<?xml version="1.0" encoding="utf-8"?>
<!-- Generator: Adobe Illustrator 28.0.0, SVG Export Plug-In . SVG Version: 6.00 Build 0)  -->
<svg version="1.1" xmlns="http://www.w3.org/2000/svg" xmlns:xlink="http://www.w3.org/1999/xlink" x="0px" y="0px"
	 viewBox="0 0 858.4 858.4" enable-background="new 0 0 858.4 858.4" xml:space="preserve">

<g id="final_white">

	<g display="none">
		
			<path id="path6306_00000023976804791551053620000012446452543249757096_" display="inline" fill="none" stroke="#FFFFFF" stroke-width="2" d="
			M374.5,118.9l-4.4-24.7 M321.5,133.2l-8.6-23.6 M271.7,156.4l-12.5-21.7 M226.7,187.9l-16.1-19.2 M187.9,226.7l-19.2-16.1
			 M156.4,271.7l-21.7-12.5 M133.2,321.5l-23.6-8.6 M118.9,374.5l-24.7-4.4 M114.2,429.2H89.1 M118.9,483.9l-24.7,4.4 M133.2,537
			l-23.6,8.6 M156.4,586.7l-21.7,12.5 M187.9,631.7l-19.2,16.1 M226.7,670.6l-16.1,19.2 M271.7,702.1l-12.5,21.7 M321.5,725.3
			l-8.6,23.6 M374.5,739.5l-4.4,24.7 M429.2,744.3l0,25.1 M483.9,739.5l4.4,24.7 M537,725.3l8.6,23.6 M586.7,702.1l12.5,21.7
			 M631.7,670.6l16.1,19.2 M670.6,631.7l19.2,16.1 M702.1,586.7l21.7,12.5 M725.3,537l23.6,8.6 M739.5,483.9l24.7,4.4 M744.3,429.2
			l25.1,0 M739.5,374.5l24.7-4.4 M725.3,321.5l23.6-8.6 M702.1,271.7l21.7-12.5 M670.6,226.7l19.2-16.1 M631.7,187.9l16.1-19.2
			 M586.7,156.4l12.5-21.7 M537,133.2l8.6-23.6 M483.9,118.9l4.4-24.7 M429.2,114.2l0-25.1 M401.8,115.4l-1.5-17.7 M347.7,124.9
			l-4.6-17.1 M296.1,143.7l-7.5-16.1 M248.5,171.1l-10.2-14.5 M206.4,206.4l-12.5-12.5 M171.1,248.5l-14.5-10.2 M143.7,296.1
			l-16.1-7.5 M124.9,347.7l-17.1-4.6 M115.4,401.8l-17.7-1.5 M115.4,456.7l-17.7,1.5 M118.9,483.9l-17.5,3.1 M124.9,510.8l-17.1,4.6
			 M143.7,562.4l-16.1,7.5 M171.1,609.9l-14.5,10.2 M206.4,652l-12.5,12.5 M248.5,687.3l-10.2,14.5 M296.1,714.7l-7.5,16.1
			 M347.7,733.5l-4.6,17.1 M401.8,743.1l-1.5,17.7 M456.7,743.1l1.5,17.7 M510.8,733.5l4.6,17.1 M562.4,714.7l7.5,16.1 M609.9,687.3
			l10.2,14.5 M652,652l12.5,12.5 M687.3,609.9l14.5,10.2 M714.7,562.4l16.1,7.5 M733.5,510.8l17.1,4.6 M743.1,456.7l17.7,1.5
			 M743.1,401.8l17.7-1.5 M733.5,347.7l17.1-4.6 M714.7,296.1l16.1-7.5 M687.3,248.5l14.5-10.2 M652,206.4l12.5-12.5 M609.9,171.1
			l10.2-14.5 M562.4,143.7l7.5-16.1 M510.8,124.9l4.6-17.1 M456.7,115.4l1.5-17.7 M423.7,114.2l-0.2-10.4 M418.2,114.3l-0.4-10.4
			 M412.7,114.6l-0.5-10.4 M407.2,114.9l-0.7-10.4 M396.3,115.9l-1.1-10.3 M390.8,116.5l-1.3-10.3 M385.4,117.2l-1.4-10.3
			 M379.9,118l-1.6-10.3 M369.1,119.9l-2-10.2 M363.7,121l-2.2-10.2 M358.3,122.2l-2.3-10.1 M353,123.5l-2.5-10.1 M342.4,126.4
			l-2.9-10 M337.1,127.9l-3-10 M331.9,129.6l-3.2-9.9 M326.6,131.3l-3.4-9.8 M316.3,135.1l-3.7-9.7 M311.2,137.1l-3.9-9.6
			 M306.1,139.2l-4.1-9.6 M301.1,141.4l-4.2-9.5 M291.1,146l-4.6-9.4 M286.2,148.5l-4.7-9.3 M281.3,151l-4.9-9.2 M276.5,153.7
			l-5-9.1 M266.9,159.2l-5.4-8.9 M262.3,162l-5.5-8.8 M257.6,165l-5.7-8.7 M253,168l-5.8-8.6 M244,174.3l-6.1-8.4 M239.6,177.6
			l-6.3-8.3 M235.2,180.9l-6.4-8.2 M230.9,184.4l-6.5-8.1 M222.5,191.4l-6.8-7.9 M218.4,195.1l-7-7.7 M214.3,198.8l-7.1-7.6
			 M210.4,202.6l-7.2-7.5 M202.6,210.4l-7.5-7.2 M198.8,214.3l-7.6-7.1 M195.1,218.4l-7.7-7 M191.4,222.5l-7.9-6.8 M184.4,230.9
			l-8.1-6.5 M180.9,235.2l-8.2-6.4 M177.6,239.6l-8.3-6.3 M174.3,244l-8.4-6.1 M168,253l-8.6-5.8 M165,257.6l-8.7-5.7 M162,262.3
			l-8.8-5.5 M159.2,266.9l-8.9-5.4 M153.7,276.5l-9.1-5 M151,281.3l-9.2-4.9 M148.5,286.2l-9.3-4.7 M146,291.1l-9.4-4.6
			 M141.4,301.1l-9.5-4.2 M139.2,306.1l-9.6-4.1 M137.1,311.2l-9.6-3.9 M135.1,316.3l-9.7-3.7 M131.3,326.6l-9.8-3.4 M129.6,331.9
			l-9.9-3.2 M127.9,337.1l-10-3 M126.4,342.4l-10-2.9 M123.5,353l-10.1-2.5 M122.2,358.3l-10.1-2.3 M121,363.7l-10.2-2.2
			 M119.9,369.1l-10.2-2 M118,379.9l-10.3-1.6 M117.2,385.4l-10.3-1.4 M116.5,390.8l-10.3-1.3 M115.9,396.3l-10.3-1.1 M114.9,407.2
			l-10.4-0.7 M114.6,412.7l-10.4-0.5 M114.3,418.2l-10.4-0.4 M114.2,423.7l-10.4-0.2 M114.2,434.7l-10.4,0.2 M114.3,440.2l-10.4,0.4
			 M114.6,445.7l-10.4,0.5 M114.9,451.2l-10.4,0.7 M115.9,462.1l-10.3,1.1 M116.5,467.6l-10.3,1.3 M117.2,473.1l-10.3,1.4
			 M118,478.5l-10.3,1.6 M119.9,489.3l-10.2,2 M121,494.7l-10.2,2.2 M122.2,500.1l-10.1,2.3 M123.5,505.4l-10.1,2.5 M126.4,516
			l-10,2.9 M127.9,521.3l-10,3 M129.6,526.6l-9.9,3.2 M131.3,531.8l-9.8,3.4 M135.1,542.1l-9.7,3.7 M137.1,547.2l-9.6,3.9
			 M139.2,552.3l-9.6,4.1 M141.4,557.4l-9.5,4.2 M146,567.3l-9.4,4.6 M148.5,572.2l-9.3,4.7 M151,577.1l-9.2,4.9 M153.7,582l-9.1,5
			 M159.2,591.5l-8.9,5.4 M162,596.2l-8.8,5.5 M165,600.8l-8.7,5.7 M168,605.4l-8.6,5.8 M174.3,614.4l-8.4,6.1 M177.6,618.8
			l-8.3,6.3 M180.9,623.2l-8.2,6.4 M184.4,627.5l-8.1,6.5 M191.4,635.9l-7.9,6.8 M195.1,640l-7.7,7 M198.8,644.1l-7.6,7.1
			 M202.6,648.1l-7.5,7.2 M210.4,655.8l-7.2,7.5 M214.3,659.6l-7.1,7.6 M218.4,663.3l-7,7.7 M222.5,667l-6.8,7.9 M230.9,674.1
			l-6.5,8.1 M235.2,677.5l-6.4,8.2 M239.6,680.8l-6.3,8.3 M244,684.1l-6.1,8.4 M253,690.4l-5.8,8.6 M257.6,693.4l-5.7,8.7
			 M262.3,696.4l-5.5,8.8 M266.9,699.3l-5.4,8.9 M276.5,704.8l-5,9.1 M281.3,707.4l-4.9,9.2 M286.2,709.9l-4.7,9.3 M291.1,712.4
			l-4.6,9.4 M301.1,717l-4.2,9.5 M306.1,719.2l-4.1,9.6 M311.2,721.3l-3.9,9.6 M316.3,723.3l-3.7,9.7 M326.6,727.1l-3.4,9.8
			 M331.9,728.8l-3.2,9.9 M337.1,730.5l-3,10 M342.4,732.1l-2.9,10 M353,734.9l-2.5,10.1 M358.3,736.2l-2.3,10.1 M363.7,737.4
			l-2.2,10.2 M369.1,738.5l-2,10.2 M379.9,740.4l-1.6,10.3 M385.4,741.2l-1.4,10.3 M390.8,741.9l-1.3,10.3 M396.3,742.5l-1.1,10.3
			 M407.2,743.5l-0.7,10.4 M412.7,743.8l-0.5,10.4 M418.2,744.1l-0.4,10.4 M423.7,744.2l-0.2,10.4 M434.7,744.2l0.2,10.4
			 M440.2,744.1l0.4,10.4 M445.7,743.8l0.5,10.4 M451.2,743.5l0.7,10.4 M462.1,742.5l1.1,10.3 M467.6,741.9l1.3,10.3 M473.1,741.2
			l1.4,10.3 M478.5,740.4l1.6,10.3 M489.3,738.5l2,10.2 M494.7,737.4l2.2,10.2 M500.1,736.2l2.3,10.1 M505.4,734.9l2.5,10.1
			 M516.1,732.1l2.9,10 M521.3,730.5l3,10 M526.6,728.8l3.2,9.9 M531.8,727.1l3.4,9.8 M542.1,723.3l3.7,9.7 M547.2,721.3l3.9,9.6
			 M552.3,719.2l4.1,9.6 M557.4,717l4.2,9.5 M567.3,712.4l4.6,9.4 M572.2,709.9l4.7,9.3 M577.1,707.4l4.9,9.2 M582,704.8l5,9.1
			 M591.5,699.3l5.4,8.9 M596.2,696.4l5.5,8.8 M600.8,693.4l5.7,8.7 M605.4,690.4l5.8,8.6 M614.4,684.1l6.1,8.4 M618.8,680.8
			l6.3,8.3 M623.2,677.5l6.4,8.2 M627.5,674.1l6.5,8.1 M635.9,667l6.8,7.9 M640,663.3l7,7.7 M644.1,659.6l7.1,7.6 M648.1,655.8
			l7.2,7.5 M655.8,648.1l7.5,7.2 M659.6,644.1l7.6,7.1 M663.3,640l7.7,7 M667,635.9l7.9,6.8 M674.1,627.5l8.1,6.5 M677.5,623.2
			l8.2,6.4 M680.8,618.8l8.3,6.3 M684.1,614.4l8.4,6.1 M690.4,605.4l8.6,5.8 M693.4,600.8l8.7,5.7 M696.4,596.2l8.8,5.5
			 M699.3,591.5l8.9,5.4 M704.8,582l9.1,5 M707.4,577.1l9.2,4.9 M709.9,572.2l9.3,4.7 M712.4,567.3l9.4,4.6 M717,557.4l9.5,4.2
			 M719.2,552.3l9.6,4.1 M721.3,547.2l9.6,3.9 M723.3,542.1l9.7,3.7 M727.1,531.8l9.8,3.4 M728.8,526.6l9.9,3.2 M730.5,521.3l10,3
			 M732.1,516l10,2.9 M734.9,505.4l10.1,2.5 M736.2,500.1l10.1,2.3 M737.4,494.7l10.2,2.2 M738.5,489.3l10.2,2 M740.4,478.5
			l10.3,1.6 M741.2,473.1l10.3,1.4 M741.9,467.6l10.3,1.3 M742.5,462.1l10.3,1.1 M743.5,451.2l10.4,0.7 M743.8,445.7l10.4,0.5
			 M744.1,440.2l10.4,0.4 M744.2,434.7l10.4,0.2 M744.2,423.7l10.4-0.2 M744.1,418.2l10.4-0.4 M743.8,412.7l10.4-0.5 M743.5,407.2
			l10.4-0.7 M742.5,396.3l10.3-1.1 M741.9,390.8l10.3-1.3 M741.2,385.4l10.3-1.4 M740.4,379.9l10.3-1.6 M738.5,369.1l10.2-2
			 M737.4,363.7l10.2-2.2 M736.2,358.3l10.1-2.3 M734.9,353l10.1-2.5 M732.1,342.4l10-2.9 M730.5,337.1l10-3 M728.8,331.9l9.9-3.2
			 M727.1,326.6l9.8-3.4 M723.3,316.3l9.7-3.7 M721.3,311.2l9.6-3.9 M719.2,306.1l9.6-4.1 M717,301.1l9.5-4.2 M712.4,291.1l9.4-4.6
			 M709.9,286.2l9.3-4.7 M707.4,281.3l9.2-4.9 M704.8,276.5l9.1-5 M699.3,266.9l8.9-5.4 M696.4,262.3l8.8-5.5 M693.4,257.6l8.7-5.7
			 M690.4,253l8.6-5.8 M684.1,244l8.4-6.1 M680.8,239.6l8.3-6.3 M677.5,235.2l8.2-6.4 M674.1,230.9l8.1-6.5 M667,222.5l7.9-6.8
			 M663.3,218.4l7.7-7 M659.6,214.3l7.6-7.1 M655.8,210.4l7.5-7.2 M648.1,202.6l7.2-7.5 M644.1,198.8l7.1-7.6 M640,195.1l7-7.7
			 M635.9,191.4l6.8-7.9 M627.5,184.4l6.5-8.1 M623.2,180.9l6.4-8.2 M618.8,177.6l6.3-8.3 M614.4,174.3l6.1-8.4 M605.4,168l5.8-8.6
			 M600.8,165l5.7-8.7 M596.2,162l5.5-8.8 M591.5,159.2l5.4-8.9 M582,153.7l5-9.1 M577.1,151l4.9-9.2 M572.2,148.5l4.7-9.3
			 M567.3,146l4.6-9.4 M557.4,141.4l4.2-9.5 M552.3,139.2l4.1-9.6 M547.2,137.1l3.9-9.6 M542.1,135.1l3.7-9.7 M531.8,131.3l3.4-9.8
			 M526.6,129.6l3.2-9.9 M521.3,127.9l3-10 M516.1,126.4l2.9-10 M505.4,123.5l2.5-10.1 M500.1,122.2l2.3-10.1 M494.7,121l2.2-10.2
			 M489.3,119.9l2-10.2 M478.5,118l1.6-10.3 M473.1,117.2l1.4-10.3 M467.6,116.5l1.3-10.3 M462.1,115.9l1.1-10.3 M451.2,114.9
			l0.7-10.4 M445.7,114.6l0.5-10.4 M440.2,114.3l0.4-10.4 M434.7,114.2l0.2-10.4"/>
		<g display="inline">
			<g enable-background="new    ">
				<path fill="#FFFFFF" d="M433.4,79.6c0,0.8-0.1,1.5-0.3,2.2s-0.5,1.2-0.8,1.6c-0.4,0.4-0.8,0.8-1.3,1s-1.1,0.3-1.7,0.3
					c-0.7,0-1.2-0.1-1.7-0.3s-0.9-0.5-1.3-1c-0.4-0.4-0.6-1-0.8-1.6s-0.3-1.4-0.3-2.2v-3c0-0.8,0.1-1.5,0.3-2.2s0.5-1.2,0.8-1.6
					s0.8-0.8,1.3-1s1.1-0.3,1.7-0.3c0.7,0,1.2,0.1,1.8,0.3s0.9,0.6,1.3,1s0.6,1,0.8,1.6s0.3,1.4,0.3,2.2V79.6z M426.7,79.3l5-3.8
					c-0.1-0.8-0.3-1.5-0.7-1.9c-0.4-0.4-1-0.7-1.7-0.7c-0.9,0-1.5,0.3-1.9,0.9s-0.6,1.4-0.6,2.5V79.3z M431.7,77l-5,3.8
					c0.1,0.8,0.4,1.5,0.8,1.9s1,0.7,1.7,0.7c0.9,0,1.5-0.3,1.9-0.9s0.6-1.4,0.6-2.5V77z"/>
			</g>
			<g enable-background="new    ">
				<path fill="#FFFFFF" d="M600.4,120.6l1,0.6c0.4,0.2,0.7,0.3,1,0.4c0.3,0.1,0.6,0.1,0.9,0c0.3-0.1,0.5-0.2,0.8-0.4
					c0.2-0.2,0.4-0.4,0.6-0.7c0.4-0.6,0.5-1.2,0.3-1.7c-0.1-0.5-0.5-1-1.2-1.3c-0.3-0.2-0.6-0.3-0.9-0.3s-0.6,0-0.9,0
					s-0.5,0.2-0.8,0.4c-0.2,0.2-0.4,0.4-0.6,0.7l-1.4-0.8c0.2-0.4,0.6-0.8,0.9-1c0.4-0.3,0.8-0.5,1.3-0.6c0.5-0.1,0.9-0.1,1.5,0
					c0.5,0.1,1,0.3,1.5,0.6c0.5,0.3,0.9,0.6,1.2,1c0.3,0.4,0.6,0.8,0.7,1.2s0.2,0.9,0.1,1.4s-0.2,1-0.5,1.5
					c-0.1,0.2-0.3,0.4-0.5,0.6c-0.2,0.2-0.4,0.4-0.7,0.5c-0.3,0.1-0.6,0.2-0.9,0.3c-0.3,0.1-0.7,0.1-1,0c0.3,0.3,0.5,0.7,0.6,1
					c0.1,0.3,0.2,0.6,0.2,1s0,0.6-0.1,0.9c-0.1,0.3-0.2,0.6-0.4,0.8c-0.3,0.5-0.7,0.9-1.1,1.2c-0.4,0.3-0.9,0.5-1.3,0.6
					c-0.5,0.1-1,0.1-1.5,0c-0.5-0.1-1-0.3-1.5-0.6c-0.5-0.3-0.9-0.6-1.3-1c-0.3-0.4-0.6-0.8-0.8-1.2c-0.2-0.4-0.2-0.9-0.2-1.4
					s0.2-1,0.5-1.5l1.4,0.8c-0.2,0.3-0.3,0.6-0.3,0.9s0,0.6,0.1,0.9c0.1,0.3,0.2,0.5,0.4,0.8c0.2,0.2,0.5,0.5,0.8,0.6
					c0.3,0.2,0.6,0.3,0.9,0.4c0.3,0.1,0.6,0.1,0.9,0c0.3-0.1,0.5-0.2,0.8-0.4s0.5-0.5,0.7-0.8c0.2-0.3,0.3-0.7,0.3-1
					c0-0.3,0-0.6-0.1-0.9c-0.1-0.3-0.3-0.6-0.5-0.8s-0.5-0.5-0.9-0.7l-1-0.6L600.4,120.6z"/>
				<path fill="#FFFFFF" d="M613.9,131c-0.4,0.7-0.9,1.3-1.3,1.7c-0.5,0.5-1,0.8-1.5,1c-0.5,0.2-1.1,0.3-1.6,0.2
					c-0.6-0.1-1.1-0.3-1.7-0.6c-0.6-0.3-1-0.7-1.3-1.2s-0.5-0.9-0.6-1.5c-0.1-0.6-0.1-1.1,0.1-1.8c0.2-0.6,0.4-1.3,0.8-2l1.5-2.6
					c0.4-0.7,0.8-1.3,1.3-1.7c0.5-0.5,1-0.8,1.5-1s1.1-0.3,1.6-0.2c0.6,0.1,1.1,0.3,1.7,0.6c0.6,0.3,1,0.7,1.3,1.2
					c0.3,0.5,0.5,1,0.6,1.5s0.1,1.1-0.1,1.8c-0.2,0.6-0.4,1.3-0.8,2L613.9,131z M613.8,128l-6.2,0.8c-0.3,0.8-0.4,1.4-0.3,2
					c0.1,0.6,0.5,1.1,1.2,1.4c0.7,0.4,1.4,0.5,2.1,0.2c0.6-0.3,1.2-0.9,1.8-1.9L613.8,128z M608.3,127.4l6.2-0.8
					c0.3-0.8,0.5-1.5,0.3-2c-0.1-0.6-0.5-1.1-1.2-1.4c-0.7-0.4-1.4-0.5-2.1-0.2c-0.6,0.3-1.2,0.9-1.8,1.9L608.3,127.4z"/>
			</g>
			<g enable-background="new    ">
				<path fill="#FFFFFF" d="M737.2,247.9l-1.3,0.7l-0.1-0.1c-0.3-0.5-0.6-0.9-0.9-1.2c-0.3-0.3-0.6-0.6-1-0.7
					c-0.3-0.2-0.7-0.3-1-0.4c-0.3-0.1-0.7-0.1-1-0.1c-0.4,0-0.7,0.1-1,0.2c-0.3,0.1-0.7,0.2-1,0.4c0.2,0,0.5,0.1,0.7,0.2
					c0.2,0.1,0.5,0.2,0.7,0.4c0.2,0.1,0.4,0.3,0.6,0.5c0.2,0.2,0.4,0.4,0.5,0.7c0.3,0.6,0.5,1.1,0.5,1.6c0,0.5-0.1,1-0.3,1.5
					s-0.5,0.9-0.8,1.2c-0.4,0.4-0.8,0.7-1.2,1c-0.5,0.3-1,0.5-1.6,0.6c-0.5,0.1-1.1,0.1-1.6,0c-0.5-0.1-1-0.3-1.4-0.6
					c-0.4-0.3-0.8-0.8-1.2-1.3c-0.2-0.4-0.4-0.8-0.5-1.2c-0.1-0.4-0.1-0.8,0-1.2c0-0.4,0.2-0.7,0.3-1.1c0.2-0.4,0.4-0.7,0.6-1
					s0.5-0.6,0.8-0.9c0.3-0.3,0.6-0.5,1-0.7l0.7-0.4c0.5-0.3,1-0.6,1.6-0.8c0.5-0.2,1.1-0.4,1.7-0.5c0.6-0.1,1.1-0.2,1.7-0.1
					c0.6,0,1.1,0.1,1.6,0.4c0.5,0.2,1,0.6,1.5,1c0.5,0.4,0.9,1,1.4,1.8L737.2,247.9z M731.2,249c-0.1-0.2-0.3-0.4-0.5-0.6
					c-0.2-0.2-0.4-0.3-0.7-0.4c-0.2-0.1-0.5-0.2-0.8-0.2c-0.3,0-0.6,0-0.8,0l-0.5,0.3c-0.5,0.3-0.9,0.6-1.2,0.9s-0.5,0.7-0.7,1
					c-0.1,0.3-0.2,0.7-0.2,1c0,0.3,0.1,0.6,0.3,0.9c0.2,0.3,0.4,0.6,0.7,0.8c0.3,0.2,0.6,0.3,0.9,0.3c0.3,0,0.7,0,1-0.1
					c0.4-0.1,0.7-0.2,1.1-0.5c0.3-0.2,0.6-0.4,0.9-0.7c0.3-0.3,0.5-0.5,0.6-0.8c0.1-0.3,0.2-0.6,0.2-1
					C731.5,249.7,731.4,249.3,731.2,249z"/>
				<path fill="#FFFFFF" d="M736.8,263c-0.7,0.4-1.4,0.7-2,0.8c-0.6,0.2-1.2,0.2-1.8,0.1c-0.5-0.1-1-0.3-1.5-0.6
					c-0.4-0.3-0.8-0.8-1.2-1.3c-0.3-0.6-0.5-1.1-0.6-1.7c-0.1-0.6,0-1.1,0.2-1.6c0.2-0.5,0.5-1,1-1.5c0.5-0.5,1-0.9,1.7-1.3l2.6-1.5
					c0.7-0.4,1.4-0.7,2-0.8c0.6-0.2,1.2-0.2,1.8-0.1c0.6,0.1,1.1,0.3,1.5,0.6c0.5,0.3,0.8,0.8,1.2,1.3c0.3,0.6,0.5,1.1,0.6,1.7
					s0,1.1-0.2,1.6c-0.2,0.5-0.5,1-1,1.5c-0.5,0.5-1,0.9-1.7,1.3L736.8,263z M738.2,260.3l-5.8-2.4c-0.7,0.5-1.1,1-1.3,1.6
					c-0.2,0.6-0.1,1.2,0.3,1.8c0.4,0.7,1,1.1,1.7,1.2c0.7,0.1,1.5-0.2,2.5-0.7L738.2,260.3z M733.8,257.1l5.8,2.4
					c0.7-0.5,1.1-1,1.3-1.6c0.2-0.6,0.1-1.2-0.3-1.8c-0.4-0.7-1-1.1-1.7-1.2s-1.5,0.2-2.5,0.7L733.8,257.1z"/>
			</g>
			<g enable-background="new    ">
				<path fill="#FFFFFF" d="M775.8,421.7c0,0.6,0.1,1.1,0.2,1.5c0.1,0.4,0.2,0.8,0.4,1.1s0.4,0.6,0.7,0.8c0.3,0.2,0.5,0.4,0.8,0.5
					c0.3,0.1,0.6,0.2,1,0.3c0.3,0.1,0.7,0.1,1,0.1c-0.2-0.1-0.3-0.3-0.5-0.5s-0.3-0.4-0.4-0.6s-0.2-0.5-0.3-0.8s-0.1-0.6-0.1-0.9
					c0-0.6,0.1-1.2,0.4-1.6c0.2-0.5,0.6-0.8,1-1.1s0.9-0.5,1.4-0.7s1-0.2,1.5-0.2c0.6,0,1.2,0.1,1.7,0.3c0.5,0.2,1,0.4,1.4,0.7
					s0.7,0.7,1,1.2c0.2,0.5,0.4,1.1,0.4,1.7c0,0.5-0.1,0.9-0.2,1.3s-0.3,0.7-0.6,1c-0.2,0.3-0.5,0.6-0.9,0.8
					c-0.3,0.2-0.7,0.4-1.1,0.5c-0.4,0.1-0.8,0.2-1.2,0.3s-0.8,0.1-1.3,0.1h-0.6c-0.5,0-1.1,0-1.7-0.1c-0.6-0.1-1.1-0.2-1.7-0.3
					s-1-0.4-1.5-0.7c-0.5-0.3-0.9-0.6-1.2-1.1s-0.6-1-0.8-1.6s-0.3-1.4-0.3-2.3v-0.2h1.5V421.7z M780,423.6c0,0.3,0,0.5,0.1,0.8
					c0.1,0.3,0.2,0.5,0.4,0.7c0.2,0.2,0.4,0.4,0.6,0.6s0.5,0.3,0.8,0.4h0.5c0.6,0,1.1-0.1,1.5-0.2s0.8-0.3,1.1-0.5
					c0.3-0.2,0.5-0.5,0.7-0.8s0.2-0.6,0.2-0.9c0-0.4-0.1-0.7-0.2-1s-0.4-0.5-0.6-0.7s-0.6-0.4-0.9-0.5s-0.8-0.2-1.2-0.2
					c-0.4,0-0.7,0-1.1,0.1c-0.4,0.1-0.7,0.2-1,0.4s-0.5,0.4-0.7,0.7C780.1,422.9,780,423.2,780,423.6z"/>
				<path fill="#FFFFFF" d="M779.3,438.7c-0.8,0-1.5-0.1-2.2-0.3s-1.2-0.5-1.6-0.8c-0.4-0.4-0.8-0.8-1-1.3s-0.3-1.1-0.3-1.7
					c0-0.7,0.1-1.2,0.3-1.7s0.5-0.9,1-1.3c0.4-0.4,1-0.6,1.6-0.8s1.4-0.3,2.2-0.3h3c0.8,0,1.5,0.1,2.2,0.3s1.2,0.5,1.6,0.8
					s0.8,0.8,1,1.3s0.3,1.1,0.3,1.7c0,0.7-0.1,1.2-0.3,1.8s-0.6,0.9-1,1.3s-1,0.6-1.6,0.8s-1.4,0.3-2.2,0.3H779.3z M781.9,437.1
					l-3.8-5c-0.8,0.1-1.5,0.4-1.9,0.8s-0.7,1-0.7,1.7c0,0.9,0.3,1.5,0.9,1.9s1.4,0.6,2.5,0.6H781.9z M779.6,432.1l3.8,5
					c0.8-0.1,1.5-0.3,1.9-0.7c0.4-0.4,0.7-1,0.7-1.7c0-0.9-0.3-1.5-0.9-1.9s-1.4-0.6-2.5-0.6H779.6z"/>
			</g>
			<g enable-background="new    ">
				<path fill="#FFFFFF" d="M438.9,774.4h1.6v10.7l3.3-1.3v1.5l-4.8,1.9h-0.1V774.4z"/>
				<path fill="#FFFFFF" d="M425.5,783.8c0-0.6,0.2-1.2,0.5-1.7s0.8-0.9,1.4-1.2c-0.3-0.1-0.6-0.3-0.9-0.5c-0.3-0.2-0.5-0.4-0.7-0.7
					c-0.2-0.3-0.3-0.6-0.4-0.9c-0.1-0.3-0.2-0.7-0.2-1c0-0.6,0.1-1.1,0.3-1.5c0.2-0.5,0.5-0.8,0.9-1.1c0.4-0.3,0.8-0.5,1.3-0.7
					c0.5-0.2,1-0.2,1.6-0.2c0.6,0,1.1,0.1,1.6,0.2c0.5,0.2,0.9,0.4,1.3,0.7c0.4,0.3,0.7,0.7,0.9,1.1s0.3,1,0.3,1.6
					c0,0.4,0,0.7-0.1,1s-0.2,0.6-0.4,0.9s-0.4,0.5-0.7,0.7s-0.6,0.4-0.9,0.5c0.3,0.1,0.5,0.3,0.8,0.5c0.2,0.2,0.4,0.4,0.6,0.7
					s0.3,0.5,0.4,0.8s0.1,0.6,0.1,0.9c0,0.6-0.1,1.1-0.3,1.5c-0.2,0.4-0.4,0.8-0.8,1.1c-0.3,0.3-0.7,0.5-1.2,0.7
					c-0.5,0.2-1,0.2-1.5,0.2c-0.5,0-1-0.1-1.5-0.2s-0.9-0.4-1.2-0.7s-0.6-0.7-0.8-1.1C425.6,784.9,425.5,784.4,425.5,783.8z
					 M426.8,777.9c0,0.4,0.1,0.7,0.2,1c0.1,0.3,0.3,0.6,0.5,0.8s0.5,0.4,0.8,0.5c0.3,0.1,0.6,0.2,1,0.2c0.4,0,0.7-0.1,1-0.2
					s0.6-0.3,0.8-0.5s0.4-0.5,0.5-0.8c0.1-0.3,0.2-0.6,0.2-1c0-0.4-0.1-0.7-0.2-1c-0.1-0.3-0.3-0.5-0.5-0.7s-0.5-0.4-0.8-0.5
					c-0.3-0.1-0.6-0.2-1-0.2c-0.4,0-0.7,0.1-1,0.2s-0.6,0.3-0.8,0.5c-0.2,0.2-0.4,0.4-0.5,0.7C426.9,777.2,426.8,777.5,426.8,777.9z
					 M427.1,783.8c0,0.3,0.1,0.6,0.2,0.9c0.1,0.3,0.3,0.5,0.4,0.7c0.2,0.2,0.4,0.3,0.7,0.5c0.3,0.1,0.6,0.2,0.9,0.2s0.6-0.1,0.9-0.2
					s0.5-0.2,0.7-0.4s0.3-0.4,0.4-0.7c0.1-0.3,0.2-0.6,0.2-0.9s-0.1-0.6-0.2-0.9c-0.1-0.3-0.2-0.5-0.4-0.7c-0.2-0.2-0.4-0.3-0.7-0.4
					c-0.3-0.1-0.5-0.2-0.9-0.2c-0.3,0-0.6,0.1-0.9,0.2s-0.5,0.2-0.7,0.4c-0.2,0.2-0.3,0.4-0.4,0.7S427.1,783.5,427.1,783.8z"/>
				<path fill="#FFFFFF" d="M414.5,779.3c0-0.8,0.1-1.5,0.3-2.2s0.5-1.2,0.8-1.6c0.4-0.4,0.8-0.8,1.3-1s1.1-0.3,1.7-0.3
					c0.7,0,1.2,0.1,1.7,0.3c0.5,0.2,0.9,0.5,1.3,1c0.4,0.4,0.6,1,0.8,1.6c0.2,0.6,0.3,1.4,0.3,2.2v3c0,0.8-0.1,1.5-0.3,2.2
					s-0.5,1.2-0.8,1.6c-0.4,0.4-0.8,0.8-1.3,1c-0.5,0.2-1.1,0.3-1.7,0.3c-0.7,0-1.2-0.1-1.8-0.3c-0.5-0.2-0.9-0.6-1.3-1
					c-0.4-0.4-0.6-1-0.8-1.6s-0.3-1.4-0.3-2.2V779.3z M416.2,781.9l5-3.8c-0.1-0.8-0.4-1.5-0.8-1.9s-1-0.7-1.7-0.7
					c-0.9,0-1.5,0.3-1.9,0.9c-0.4,0.6-0.6,1.4-0.6,2.5V781.9z M421.2,779.6l-5,3.8c0.1,0.8,0.3,1.5,0.7,1.9c0.4,0.4,1,0.7,1.7,0.7
					c0.9,0,1.5-0.3,1.9-0.9c0.4-0.6,0.6-1.4,0.6-2.5V779.6z"/>
			</g>
			<g enable-background="new    ">
				<path fill="#FFFFFF" d="M611,723.2l1.4-0.8l5.4,9.3l2.3-2.8l0.7,1.3l-3.3,4l-0.1,0.1L611,723.2z"/>
				<path fill="#FFFFFF" d="M608.9,731.8l2.6,5.8l-5.7,3.3l-0.8-1.4l4.5-2.6l-1.4-3.1c-0.1,0.3-0.3,0.5-0.6,0.8s-0.6,0.5-1,0.8
					c-0.5,0.3-1,0.5-1.5,0.5c-0.5,0.1-1,0-1.5-0.2c-0.5-0.2-0.9-0.4-1.3-0.8s-0.8-0.8-1.1-1.4c-0.3-0.5-0.5-1.1-0.6-1.6
					c-0.1-0.5-0.1-1,0-1.5c0.1-0.5,0.3-1,0.6-1.4c0.3-0.4,0.8-0.8,1.4-1.2c0.5-0.3,0.9-0.4,1.4-0.5c0.5-0.1,0.9-0.1,1.4,0
					c0.5,0.1,0.9,0.2,1.3,0.5s0.8,0.6,1.2,1.1l-1.3,0.8c-0.4-0.6-1-0.9-1.5-1c-0.6-0.1-1.1,0-1.7,0.4c-0.3,0.2-0.6,0.4-0.8,0.7
					c-0.2,0.3-0.3,0.6-0.4,0.9c0,0.3,0,0.7,0.1,1c0.1,0.4,0.2,0.7,0.5,1.1c0.2,0.3,0.4,0.6,0.7,0.9s0.6,0.4,0.9,0.5
					c0.3,0.1,0.6,0.2,1,0.1s0.7-0.1,1.1-0.4c0.2-0.1,0.4-0.3,0.6-0.4c0.2-0.1,0.3-0.3,0.4-0.4c0.1-0.1,0.2-0.3,0.3-0.4
					s0.1-0.3,0.2-0.5L608.9,731.8z"/>
				<path fill="#FFFFFF" d="M592.3,739.7c-0.4-0.7-0.7-1.4-0.8-2c-0.2-0.6-0.2-1.2-0.1-1.8c0.1-0.5,0.3-1,0.6-1.5
					c0.3-0.4,0.8-0.8,1.3-1.2c0.6-0.3,1.1-0.5,1.7-0.6c0.6-0.1,1.1,0,1.6,0.2c0.5,0.2,1,0.5,1.5,1s0.9,1,1.3,1.7l1.5,2.6
					c0.4,0.7,0.7,1.4,0.8,2c0.2,0.6,0.2,1.2,0.1,1.8s-0.3,1.1-0.6,1.5c-0.3,0.5-0.8,0.8-1.3,1.2c-0.6,0.3-1.1,0.5-1.7,0.6
					c-0.6,0.1-1.1,0-1.6-0.2c-0.5-0.2-1-0.5-1.5-1c-0.5-0.5-0.9-1-1.3-1.7L592.3,739.7z M595,741.1l2.4-5.8c-0.5-0.7-1-1.1-1.6-1.3
					c-0.6-0.2-1.2-0.1-1.8,0.3c-0.7,0.4-1.1,1-1.2,1.7s0.2,1.5,0.7,2.5L595,741.1z M598.3,736.6l-2.4,5.8c0.5,0.7,1,1.1,1.6,1.3
					c0.6,0.2,1.2,0.1,1.8-0.3c0.7-0.4,1.1-1,1.2-1.7s-0.2-1.5-0.7-2.5L598.3,736.6z"/>
			</g>
			<g enable-background="new    ">
				<path fill="#FFFFFF" d="M262.6,731.5l7.3,4.2l-0.6,1l-6,1.9c-0.5,0.2-1,0.3-1.4,0.5s-0.7,0.3-1,0.5c-0.3,0.2-0.5,0.3-0.7,0.5
					c-0.2,0.2-0.3,0.4-0.5,0.6c-0.2,0.3-0.3,0.6-0.3,0.8c0,0.3,0,0.6,0,0.9s0.2,0.5,0.4,0.8c0.2,0.2,0.4,0.5,0.7,0.6
					c0.4,0.2,0.7,0.3,1.1,0.4c0.3,0.1,0.6,0,0.9-0.1c0.3-0.1,0.6-0.3,0.8-0.5s0.5-0.5,0.7-0.9l1.4,0.8c-0.3,0.5-0.6,0.9-1,1.2
					c-0.4,0.3-0.8,0.5-1.3,0.7s-1,0.2-1.6,0.1s-1.1-0.3-1.7-0.6c-0.5-0.3-0.9-0.7-1.3-1c-0.3-0.4-0.6-0.8-0.7-1.3
					c-0.1-0.4-0.2-0.9-0.1-1.4c0.1-0.5,0.2-0.9,0.5-1.4c0.2-0.3,0.4-0.6,0.7-0.9c0.3-0.3,0.6-0.5,1-0.7c0.4-0.2,0.8-0.4,1.2-0.5
					c0.4-0.2,0.9-0.3,1.3-0.5l4.8-1.5l-5.6-3.2L262.6,731.5z"/>
				<path fill="#FFFFFF" d="M255.5,727.4l1.4,0.8l-5.4,9.3l3.5,0.6l-0.7,1.3l-5.1-0.8l-0.1-0.1L255.5,727.4z"/>
				<path fill="#FFFFFF" d="M241.3,724.9c0.4-0.7,0.8-1.3,1.3-1.7c0.5-0.5,1-0.8,1.5-1c0.5-0.2,1.1-0.3,1.6-0.2
					c0.6,0.1,1.1,0.3,1.7,0.6c0.6,0.3,1,0.7,1.3,1.2c0.3,0.4,0.5,0.9,0.6,1.5c0.1,0.6,0.1,1.1-0.1,1.8c-0.1,0.6-0.4,1.3-0.8,2
					l-1.5,2.6c-0.4,0.7-0.8,1.3-1.3,1.7c-0.5,0.5-1,0.8-1.5,1c-0.5,0.2-1.1,0.3-1.6,0.2c-0.6-0.1-1.1-0.3-1.7-0.6
					c-0.6-0.3-1-0.7-1.3-1.2c-0.3-0.5-0.5-1-0.6-1.5s-0.1-1.1,0.1-1.8c0.2-0.6,0.4-1.3,0.8-2L241.3,724.9z M246.9,728.5l-6.2,0.8
					c-0.3,0.8-0.5,1.5-0.3,2c0.1,0.6,0.5,1.1,1.2,1.4c0.7,0.4,1.4,0.5,2.1,0.2c0.6-0.3,1.2-0.9,1.8-1.9L246.9,728.5z M241.4,727.9
					l6.2-0.8c0.3-0.8,0.4-1.4,0.3-2s-0.5-1.1-1.2-1.4c-0.7-0.4-1.4-0.5-2.1-0.2c-0.6,0.3-1.2,0.9-1.8,1.9L241.4,727.9z"/>
			</g>
			<g enable-background="new    ">
				<path fill="#FFFFFF" d="M733.2,594.8l0.8-1.4l9.3,5.4l0.6-3.5l1.3,0.7l-0.8,5.1l-0.1,0.1L733.2,594.8z"/>
				<path fill="#FFFFFF" d="M726.5,606.4l4.2-7.3l1,0.6l1.9,6c0.2,0.5,0.3,1,0.5,1.4c0.2,0.4,0.3,0.7,0.5,1c0.2,0.3,0.3,0.5,0.5,0.7
					s0.4,0.3,0.6,0.5c0.3,0.2,0.6,0.3,0.9,0.3c0.3,0.1,0.6,0,0.9,0s0.5-0.2,0.8-0.4c0.2-0.2,0.5-0.4,0.6-0.7
					c0.2-0.4,0.3-0.7,0.4-1.1s0-0.6-0.1-0.9c-0.1-0.3-0.3-0.6-0.5-0.8c-0.2-0.2-0.5-0.5-0.9-0.7l0.8-1.4c0.5,0.3,0.9,0.6,1.2,1
					c0.3,0.4,0.5,0.8,0.7,1.3c0.1,0.5,0.2,1,0.1,1.6c-0.1,0.5-0.3,1.1-0.6,1.7c-0.3,0.5-0.7,0.9-1,1.3c-0.4,0.3-0.8,0.6-1.3,0.7
					c-0.4,0.1-0.9,0.2-1.4,0.1s-0.9-0.2-1.4-0.5c-0.3-0.2-0.6-0.4-0.9-0.7c-0.3-0.3-0.5-0.6-0.7-1c-0.2-0.4-0.4-0.8-0.5-1.2
					c-0.2-0.4-0.3-0.9-0.5-1.3l-1.5-4.8l-3.2,5.6L726.5,606.4z"/>
				<path fill="#FFFFFF" d="M725.3,618.3c-0.7-0.4-1.3-0.8-1.7-1.3c-0.5-0.5-0.8-1-1-1.5c-0.2-0.5-0.3-1.1-0.2-1.6
					c0.1-0.6,0.3-1.1,0.6-1.7c0.3-0.6,0.7-1,1.2-1.3s0.9-0.5,1.5-0.6c0.6-0.1,1.1-0.1,1.8,0.1c0.6,0.1,1.3,0.4,2,0.8l2.6,1.5
					c0.7,0.4,1.3,0.8,1.7,1.3c0.5,0.5,0.8,1,1,1.5s0.3,1.1,0.2,1.6c-0.1,0.6-0.3,1.1-0.6,1.7c-0.3,0.6-0.7,1-1.2,1.3
					c-0.5,0.3-1,0.5-1.5,0.6c-0.6,0.1-1.1,0.1-1.8-0.1c-0.6-0.2-1.3-0.4-2-0.8L725.3,618.3z M728.3,618.2l-0.8-6.2
					c-0.8-0.3-1.4-0.4-2-0.3c-0.6,0.1-1.1,0.5-1.4,1.2c-0.4,0.7-0.5,1.4-0.2,2.1c0.3,0.6,0.9,1.2,1.9,1.8L728.3,618.2z M728.9,612.7
					l0.8,6.2c0.8,0.3,1.5,0.5,2,0.3c0.6-0.1,1.1-0.5,1.4-1.2c0.4-0.7,0.5-1.4,0.2-2.1c-0.3-0.6-0.9-1.2-1.9-1.8L728.9,612.7z"/>
			</g>
			<g enable-background="new    ">
				<path fill="#FFFFFF" d="M133.9,609.5l4.2,7.3l-1,0.6l-6.1-1.3c-0.5-0.1-1-0.2-1.4-0.3s-0.8-0.1-1.1-0.1c-0.3,0-0.6,0-0.8,0.1
					c-0.2,0.1-0.5,0.2-0.7,0.3c-0.3,0.2-0.5,0.4-0.7,0.6c-0.2,0.2-0.3,0.5-0.4,0.8c-0.1,0.3-0.1,0.6-0.1,0.9c0,0.3,0.1,0.6,0.3,0.9
					c0.2,0.4,0.5,0.7,0.7,0.9s0.5,0.3,0.8,0.4c0.3,0.1,0.6,0.1,0.9,0s0.7-0.2,1-0.4l0.8,1.4c-0.5,0.3-1,0.4-1.5,0.5
					c-0.5,0.1-1,0.1-1.5-0.1c-0.5-0.1-1-0.4-1.4-0.7c-0.4-0.3-0.8-0.8-1.2-1.4c-0.3-0.5-0.5-1-0.6-1.5c-0.1-0.5-0.1-1,0-1.4
					c0.1-0.4,0.3-0.9,0.6-1.2s0.7-0.7,1.1-0.9c0.3-0.2,0.7-0.3,1.1-0.4c0.4-0.1,0.8-0.1,1.2-0.1c0.4,0,0.9,0,1.3,0.1
					c0.5,0.1,0.9,0.2,1.4,0.3l4.9,1.1l-3.2-5.6L133.9,609.5z"/>
				<path fill="#FFFFFF" d="M125.4,603.4l-0.9-1.5l1.1-0.7l0.9,1.5l2.6-1.5l0.8,1.4l-2.6,1.5l2.9,5.1l-0.8,0.5l-10.5-0.5l-0.9-1.5
					L125.4,603.4z M128.2,608.3l-2-3.5l-5.5,3.2l0.6,0L128.2,608.3z"/>
				<path fill="#FFFFFF" d="M118.8,593.1c0.7-0.4,1.4-0.7,2-0.8s1.2-0.2,1.8-0.1c0.6,0.1,1,0.3,1.5,0.6c0.4,0.3,0.8,0.8,1.2,1.3
					c0.3,0.6,0.5,1.1,0.6,1.7s0,1.1-0.2,1.6c-0.2,0.5-0.5,1-1,1.5c-0.5,0.5-1,0.9-1.7,1.3l-2.6,1.5c-0.7,0.4-1.4,0.7-2,0.8
					s-1.2,0.2-1.8,0.1s-1.1-0.3-1.5-0.6c-0.5-0.3-0.8-0.8-1.2-1.3c-0.3-0.6-0.5-1.1-0.6-1.7c-0.1-0.6,0-1.1,0.2-1.6s0.5-1,1-1.5
					c0.5-0.5,1-0.9,1.7-1.3L118.8,593.1z M121.8,599l-5.8-2.4c-0.7,0.5-1.1,1-1.3,1.6c-0.2,0.6-0.1,1.2,0.3,1.8
					c0.4,0.7,1,1.1,1.7,1.2c0.7,0.1,1.5-0.2,2.5-0.7L121.8,599z M117.4,595.8l5.8,2.4c0.7-0.5,1.1-1,1.3-1.6
					c0.2-0.6,0.1-1.2-0.3-1.8c-0.4-0.7-1-1.1-1.7-1.2s-1.5,0.2-2.5,0.7L117.4,595.8z"/>
			</g>
			<g enable-background="new    ">
				<path fill="#FFFFFF" d="M84.1,435.8v8.4h-1.2l-4.7-4.2c-0.4-0.4-0.8-0.7-1.1-0.9s-0.6-0.5-0.9-0.6c-0.3-0.2-0.5-0.3-0.8-0.3
					S75,438,74.7,438c-0.3,0-0.6,0.1-0.9,0.2c-0.3,0.1-0.5,0.3-0.7,0.4c-0.2,0.2-0.4,0.4-0.5,0.7c-0.1,0.3-0.2,0.6-0.2,0.9
					c0,0.4,0.1,0.8,0.2,1.1c0.1,0.3,0.3,0.6,0.5,0.8c0.2,0.2,0.5,0.4,0.8,0.5c0.3,0.1,0.7,0.2,1.1,0.2v1.6c-0.5,0-1-0.1-1.5-0.3
					s-0.9-0.5-1.3-0.8c-0.4-0.4-0.6-0.8-0.9-1.3c-0.2-0.5-0.3-1.1-0.3-1.8c0-0.6,0.1-1.1,0.3-1.6c0.2-0.5,0.4-0.9,0.7-1.2
					s0.7-0.6,1.1-0.8c0.4-0.2,0.9-0.3,1.4-0.3c0.4,0,0.8,0.1,1.1,0.2c0.4,0.1,0.7,0.3,1.1,0.5c0.4,0.2,0.7,0.5,1.1,0.8
					c0.4,0.3,0.7,0.6,1.1,0.9l3.7,3.4v-6.4H84.1z"/>
				<path fill="#FFFFFF" d="M72.2,424.7l11.9,5.3v1.7l-11.4-5.3v6.9h-1.4v-8.6H72.2z"/>
				<path fill="#FFFFFF" d="M79.2,414c0.8,0,1.5,0.1,2.2,0.3s1.2,0.5,1.6,0.8c0.4,0.4,0.8,0.8,1,1.3s0.3,1.1,0.3,1.7
					c0,0.7-0.1,1.2-0.3,1.7c-0.2,0.5-0.5,0.9-1,1.3c-0.4,0.4-1,0.6-1.6,0.8c-0.6,0.2-1.4,0.3-2.2,0.3h-3c-0.8,0-1.5-0.1-2.2-0.3
					s-1.2-0.5-1.6-0.8c-0.4-0.4-0.8-0.8-1-1.3c-0.2-0.5-0.3-1.1-0.3-1.7c0-0.7,0.1-1.2,0.3-1.8c0.2-0.5,0.6-0.9,1-1.3
					c0.4-0.4,1-0.6,1.6-0.8s1.4-0.3,2.2-0.3H79.2z M78.9,420.7l-3.8-5c-0.8,0.1-1.5,0.3-1.9,0.7c-0.4,0.4-0.7,1-0.7,1.7
					c0,0.9,0.3,1.5,0.9,1.9c0.6,0.4,1.4,0.6,2.5,0.6H78.9z M76.6,415.6l3.8,5c0.8-0.1,1.5-0.4,1.9-0.8s0.7-1,0.7-1.7
					c0-0.9-0.3-1.5-0.9-1.9c-0.6-0.4-1.4-0.6-2.5-0.6H76.6z"/>
			</g>
			<g enable-background="new    ">
				<path fill="#FFFFFF" d="M118.3,264.7l0.6-1c0.2-0.4,0.3-0.7,0.4-1c0.1-0.3,0.1-0.6,0-0.9c-0.1-0.3-0.2-0.5-0.4-0.8
					c-0.2-0.2-0.4-0.4-0.7-0.6c-0.6-0.4-1.2-0.5-1.7-0.3c-0.5,0.1-1,0.5-1.3,1.2c-0.2,0.3-0.3,0.6-0.3,0.9c-0.1,0.3,0,0.6,0,0.9
					c0.1,0.3,0.2,0.5,0.4,0.8c0.2,0.2,0.4,0.4,0.7,0.6l-0.8,1.4c-0.4-0.2-0.8-0.6-1-0.9c-0.3-0.4-0.5-0.8-0.6-1.3
					c-0.1-0.5-0.1-0.9,0-1.5c0.1-0.5,0.3-1,0.6-1.5c0.3-0.5,0.6-0.9,1-1.2c0.4-0.3,0.8-0.6,1.2-0.7c0.4-0.1,0.9-0.2,1.4-0.1
					c0.5,0.1,1,0.2,1.5,0.5c0.2,0.1,0.4,0.3,0.6,0.5s0.4,0.4,0.5,0.7c0.1,0.3,0.2,0.6,0.3,0.9c0.1,0.3,0.1,0.7,0,1
					c0.3-0.3,0.7-0.5,1-0.6c0.3-0.1,0.6-0.2,1-0.2s0.6,0,0.9,0.1c0.3,0.1,0.6,0.2,0.8,0.4c0.5,0.3,0.9,0.7,1.2,1.1
					c0.3,0.4,0.5,0.9,0.6,1.3c0.1,0.5,0.1,1,0,1.5c-0.1,0.5-0.3,1-0.6,1.5c-0.3,0.5-0.6,0.9-1,1.3c-0.4,0.3-0.8,0.6-1.2,0.8
					c-0.4,0.2-0.9,0.2-1.4,0.2c-0.5,0-1-0.2-1.5-0.5l0.8-1.4c0.3,0.2,0.6,0.3,0.9,0.3s0.6,0,0.9-0.1c0.3-0.1,0.5-0.2,0.8-0.4
					c0.2-0.2,0.5-0.5,0.6-0.8c0.2-0.3,0.3-0.6,0.4-0.9c0.1-0.3,0.1-0.6,0-0.9c-0.1-0.3-0.2-0.5-0.4-0.8c-0.2-0.2-0.5-0.5-0.8-0.7
					c-0.3-0.2-0.7-0.3-1-0.3c-0.3,0-0.6,0-0.9,0.1s-0.6,0.3-0.8,0.5c-0.2,0.2-0.5,0.5-0.7,0.9l-0.6,1L118.3,264.7z"/>
				<path fill="#FFFFFF" d="M128.8,251.2c0.7,0.4,1.3,0.9,1.7,1.3c0.5,0.5,0.8,1,1,1.5c0.2,0.5,0.3,1.1,0.2,1.6
					c-0.1,0.6-0.3,1.1-0.6,1.7c-0.3,0.6-0.7,1-1.2,1.3c-0.4,0.3-0.9,0.5-1.5,0.6c-0.6,0.1-1.1,0.1-1.8-0.1c-0.6-0.2-1.3-0.4-2-0.8
					l-2.6-1.5c-0.7-0.4-1.3-0.8-1.7-1.3c-0.5-0.5-0.8-1-1-1.5s-0.3-1.1-0.2-1.6s0.3-1.1,0.6-1.7c0.3-0.6,0.7-1,1.2-1.3
					s1-0.5,1.5-0.6c0.6-0.1,1.1-0.1,1.8,0.1c0.6,0.2,1.3,0.4,2,0.8L128.8,251.2z M125.2,256.8l-0.8-6.2c-0.8-0.3-1.5-0.5-2-0.3
					c-0.6,0.1-1.1,0.5-1.4,1.2c-0.4,0.7-0.5,1.4-0.2,2.1c0.3,0.6,0.9,1.2,1.9,1.8L125.2,256.8z M125.7,251.3l0.8,6.2
					c0.8,0.3,1.4,0.4,2,0.3c0.6-0.1,1.1-0.5,1.4-1.2c0.4-0.7,0.5-1.4,0.2-2.1c-0.3-0.6-0.9-1.2-1.9-1.8L125.7,251.3z"/>
				<path fill="#FFFFFF" d="M134.2,241.8c0.7,0.4,1.3,0.8,1.7,1.3c0.5,0.5,0.8,1,1,1.5s0.3,1.1,0.2,1.6c-0.1,0.6-0.3,1.1-0.6,1.7
					c-0.3,0.6-0.7,1-1.2,1.3c-0.4,0.3-0.9,0.5-1.5,0.6c-0.6,0.1-1.1,0.1-1.8-0.1c-0.6-0.2-1.3-0.4-2-0.8l-2.6-1.5
					c-0.7-0.4-1.3-0.8-1.7-1.3c-0.5-0.5-0.8-1-1-1.5c-0.2-0.5-0.3-1.1-0.2-1.6c0.1-0.6,0.3-1.1,0.6-1.7c0.3-0.6,0.7-1,1.2-1.3
					c0.5-0.3,1-0.5,1.5-0.6c0.6-0.1,1.1-0.1,1.8,0.1c0.6,0.2,1.3,0.4,2,0.8L134.2,241.8z M130.6,247.4l-0.8-6.2
					c-0.8-0.3-1.5-0.5-2-0.3c-0.6,0.1-1.1,0.5-1.4,1.2c-0.4,0.7-0.5,1.4-0.2,2.1c0.3,0.6,0.9,1.2,1.9,1.8L130.6,247.4z M131.1,242
					l0.8,6.2c0.8,0.3,1.4,0.4,2,0.3c0.6-0.1,1.1-0.5,1.4-1.2c0.4-0.7,0.5-1.4,0.2-2.1c-0.3-0.6-0.9-1.2-1.9-1.8L131.1,242z"/>
			</g>
			<g enable-background="new    ">
				<path fill="#FFFFFF" d="M243.1,130.4l1-0.6c0.4-0.2,0.6-0.4,0.9-0.7c0.2-0.3,0.4-0.5,0.5-0.8c0.1-0.3,0.1-0.6,0.1-0.8
					s-0.1-0.6-0.3-0.9c-0.4-0.6-0.8-1-1.3-1.2c-0.5-0.1-1.1,0-1.7,0.3c-0.3,0.2-0.5,0.4-0.7,0.6s-0.3,0.5-0.4,0.7
					c-0.1,0.3-0.1,0.5-0.1,0.8c0,0.3,0.1,0.6,0.3,0.9l-1.4,0.8c-0.2-0.4-0.4-0.9-0.4-1.3c-0.1-0.5,0-0.9,0.1-1.4
					c0.1-0.4,0.4-0.9,0.7-1.3c0.3-0.4,0.7-0.8,1.3-1c0.5-0.3,1-0.5,1.5-0.6c0.5-0.1,1-0.1,1.4,0c0.4,0.1,0.9,0.3,1.3,0.6
					c0.4,0.3,0.7,0.7,1,1.2c0.1,0.2,0.2,0.5,0.3,0.7c0.1,0.3,0.1,0.5,0.1,0.8c0,0.3-0.1,0.6-0.2,0.9c-0.1,0.3-0.3,0.6-0.5,0.9
					c0.4-0.1,0.8-0.1,1.2-0.1c0.3,0,0.7,0.1,0.9,0.3c0.3,0.1,0.5,0.3,0.7,0.6s0.4,0.5,0.5,0.7c0.3,0.5,0.5,1,0.5,1.5
					c0.1,0.5,0,1-0.2,1.4c-0.2,0.5-0.4,0.9-0.7,1.3c-0.3,0.4-0.8,0.7-1.3,1c-0.5,0.3-1,0.5-1.5,0.6s-1,0.1-1.5,0
					c-0.5-0.1-0.9-0.3-1.3-0.5s-0.7-0.7-1-1.1l1.4-0.8c0.2,0.3,0.4,0.5,0.6,0.7s0.5,0.3,0.8,0.4c0.3,0.1,0.6,0.1,0.9,0
					c0.3-0.1,0.6-0.2,1-0.4c0.3-0.2,0.6-0.4,0.8-0.6c0.2-0.2,0.4-0.5,0.4-0.8c0.1-0.3,0.1-0.6,0.1-0.9c0-0.3-0.2-0.6-0.4-1
					c-0.2-0.3-0.4-0.6-0.7-0.8c-0.3-0.2-0.5-0.3-0.8-0.4c-0.3,0-0.6,0-1,0.1c-0.3,0.1-0.7,0.2-1,0.4l-1,0.6L243.1,130.4z"/>
				<path fill="#FFFFFF" d="M252.5,125l1-0.6c0.4-0.2,0.6-0.4,0.9-0.7c0.2-0.3,0.4-0.5,0.5-0.8s0.1-0.6,0.1-0.8
					c0-0.3-0.1-0.6-0.3-0.9c-0.4-0.6-0.8-1-1.3-1.2c-0.5-0.1-1.1,0-1.7,0.3c-0.3,0.2-0.5,0.4-0.7,0.6c-0.2,0.2-0.3,0.5-0.4,0.7
					c-0.1,0.3-0.1,0.5-0.1,0.8c0,0.3,0.1,0.6,0.3,0.9l-1.4,0.8c-0.2-0.4-0.4-0.9-0.4-1.3c-0.1-0.5,0-0.9,0.1-1.4s0.4-0.9,0.7-1.3
					c0.3-0.4,0.7-0.8,1.3-1c0.5-0.3,1-0.5,1.5-0.6c0.5-0.1,1-0.1,1.4,0c0.4,0.1,0.9,0.3,1.3,0.6c0.4,0.3,0.7,0.7,1,1.2
					c0.1,0.2,0.2,0.5,0.3,0.7s0.1,0.5,0.1,0.8c0,0.3-0.1,0.6-0.2,0.9c-0.1,0.3-0.3,0.6-0.5,0.9c0.4-0.1,0.8-0.1,1.2-0.1
					s0.7,0.1,0.9,0.3c0.3,0.2,0.5,0.3,0.7,0.6c0.2,0.2,0.4,0.5,0.5,0.7c0.3,0.5,0.5,1,0.5,1.5c0.1,0.5,0,1-0.2,1.4
					c-0.2,0.5-0.4,0.9-0.8,1.3c-0.3,0.4-0.8,0.7-1.3,1c-0.5,0.3-1,0.5-1.5,0.6c-0.5,0.1-1,0.1-1.5,0s-0.9-0.3-1.3-0.5
					s-0.7-0.7-1-1.1l1.4-0.8c0.2,0.3,0.4,0.5,0.6,0.7c0.2,0.2,0.5,0.3,0.8,0.4c0.3,0.1,0.6,0.1,0.9,0s0.6-0.2,1-0.4
					c0.3-0.2,0.6-0.4,0.8-0.6c0.2-0.2,0.4-0.5,0.4-0.8c0.1-0.3,0.1-0.6,0.1-0.9s-0.2-0.6-0.4-1c-0.2-0.3-0.4-0.6-0.7-0.8
					c-0.3-0.2-0.5-0.3-0.8-0.3s-0.6,0-1,0.1c-0.3,0.1-0.7,0.2-1,0.4l-1,0.6L252.5,125z"/>
				<path fill="#FFFFFF" d="M268.3,118.5c0.4,0.7,0.7,1.4,0.8,2c0.2,0.6,0.2,1.2,0.1,1.8c-0.1,0.5-0.3,1-0.6,1.5
					c-0.3,0.4-0.8,0.8-1.3,1.2c-0.6,0.3-1.1,0.5-1.7,0.6c-0.6,0.1-1.1,0-1.6-0.2c-0.5-0.2-1-0.5-1.5-1s-0.9-1-1.3-1.7l-1.5-2.6
					c-0.4-0.7-0.7-1.4-0.8-2c-0.2-0.6-0.2-1.2-0.1-1.8s0.3-1.1,0.6-1.5c0.3-0.5,0.8-0.8,1.3-1.2c0.6-0.3,1.1-0.5,1.7-0.6
					c0.6-0.1,1.1,0,1.6,0.2c0.5,0.2,1,0.5,1.5,1c0.5,0.5,0.9,1,1.3,1.7L268.3,118.5z M262.4,121.5l2.4-5.8c-0.5-0.7-1-1.1-1.6-1.3
					c-0.6-0.2-1.2-0.1-1.8,0.3c-0.7,0.4-1.1,1-1.2,1.7s0.2,1.5,0.7,2.5L262.4,121.5z M265.6,117l-2.4,5.8c0.5,0.7,1,1.1,1.6,1.3
					c0.6,0.2,1.2,0.1,1.8-0.3c0.7-0.4,1.1-1,1.2-1.7s-0.2-1.5-0.7-2.5L265.6,117z"/>
			</g>
			<g enable-background="new    ">
				<path fill="#FFFFFF" d="M325,92.5l1.1-0.3c0.4-0.1,0.7-0.3,1-0.4c0.3-0.2,0.5-0.4,0.6-0.6c0.2-0.2,0.3-0.5,0.3-0.8
					c0-0.3,0-0.6-0.1-0.9c-0.2-0.7-0.5-1.2-1-1.5c-0.5-0.3-1.1-0.3-1.8-0.1c-0.3,0.1-0.6,0.2-0.9,0.4c-0.2,0.2-0.4,0.4-0.6,0.6
					c-0.1,0.2-0.2,0.5-0.3,0.8c0,0.3,0,0.6,0.1,0.9L322,91c-0.1-0.5-0.2-0.9-0.1-1.4c0.1-0.5,0.2-0.9,0.5-1.3c0.2-0.4,0.6-0.8,1-1.1
					c0.4-0.3,0.9-0.5,1.5-0.7c0.6-0.2,1.1-0.2,1.6-0.2c0.5,0,1,0.1,1.4,0.3c0.4,0.2,0.8,0.5,1.1,0.9c0.3,0.4,0.5,0.9,0.7,1.4
					c0.1,0.2,0.1,0.5,0.1,0.8c0,0.3,0,0.6-0.1,0.8c-0.1,0.3-0.2,0.6-0.4,0.8c-0.2,0.3-0.4,0.5-0.7,0.8c0.4,0,0.8,0.1,1.1,0.2
					c0.3,0.1,0.6,0.3,0.8,0.5s0.4,0.5,0.6,0.7s0.3,0.5,0.3,0.8c0.2,0.6,0.2,1.1,0.1,1.6c-0.1,0.5-0.2,1-0.5,1.4
					c-0.3,0.4-0.6,0.8-1,1c-0.4,0.3-0.9,0.5-1.5,0.7c-0.5,0.1-1.1,0.2-1.6,0.2c-0.5,0-1-0.1-1.4-0.3c-0.4-0.2-0.8-0.5-1.1-0.8
					c-0.3-0.4-0.6-0.8-0.7-1.4l1.6-0.4c0.1,0.3,0.2,0.6,0.4,0.8c0.2,0.2,0.4,0.4,0.7,0.5c0.3,0.1,0.5,0.2,0.9,0.2c0.3,0,0.7,0,1-0.1
					c0.4-0.1,0.7-0.2,0.9-0.4c0.3-0.2,0.5-0.4,0.6-0.6c0.2-0.2,0.2-0.5,0.3-0.8c0-0.3,0-0.7-0.1-1.1c-0.1-0.4-0.3-0.7-0.5-0.9
					c-0.2-0.2-0.4-0.4-0.7-0.6c-0.3-0.1-0.6-0.2-0.9-0.2c-0.3,0-0.7,0-1.1,0.2l-1.1,0.3L325,92.5z"/>
				<path fill="#FFFFFF" d="M340.7,91.2l1.7-0.5l0.3,1.3l-1.7,0.5l0.8,2.9l-1.6,0.4l-0.8-2.9l-5.6,1.5l-0.3-0.9l3.2-10.1l1.7-0.5
					L340.7,91.2z M335.2,92.7l3.9-1.1l-1.7-6.1l-0.1,0.5L335.2,92.7z"/>
				<path fill="#FFFFFF" d="M344.7,87.9l-1.1-6.3l6.3-1.7l0.4,1.5l-5,1.4l0.5,3.4c0.2-0.2,0.5-0.4,0.8-0.6s0.7-0.4,1.1-0.5
					c0.6-0.2,1.1-0.2,1.6-0.1c0.5,0.1,1,0.2,1.4,0.5c0.4,0.3,0.8,0.6,1.1,1.1c0.3,0.5,0.5,1,0.7,1.6c0.2,0.6,0.2,1.2,0.2,1.7
					c0,0.5-0.1,1-0.4,1.5c-0.2,0.5-0.5,0.8-1,1.2c-0.4,0.3-1,0.6-1.6,0.8c-0.5,0.1-1,0.2-1.5,0.2s-0.9-0.1-1.4-0.3
					c-0.4-0.2-0.8-0.5-1.1-0.8c-0.3-0.4-0.6-0.8-0.8-1.4l1.5-0.4c0.3,0.7,0.7,1.1,1.2,1.4s1.1,0.3,1.8,0.1c0.4-0.1,0.7-0.3,0.9-0.5
					c0.3-0.2,0.4-0.5,0.6-0.8c0.1-0.3,0.2-0.6,0.2-1s-0.1-0.8-0.2-1.2c-0.1-0.4-0.3-0.7-0.5-1s-0.4-0.5-0.7-0.7
					c-0.3-0.2-0.6-0.3-0.9-0.4c-0.3-0.1-0.7,0-1.1,0.1c-0.3,0.1-0.5,0.2-0.7,0.2c-0.2,0.1-0.3,0.2-0.5,0.3s-0.3,0.2-0.4,0.4
					s-0.2,0.3-0.3,0.4L344.7,87.9z"/>
			</g>
			<g enable-background="new    ">
				<path fill="#FFFFFF" d="M514.5,94.4L513,94l2.7-10.4l-3.6,0.4l0.4-1.4l5.2-0.6l0.1,0L514.5,94.4z"/>
				<path fill="#FFFFFF" d="M522.1,89.8l2.2-6l6.3,1.7l-0.4,1.5l-5-1.3l-1.2,3.2c0.3-0.1,0.6-0.1,1-0.1c0.4,0,0.8,0,1.2,0.1
					c0.6,0.2,1.1,0.4,1.5,0.7s0.7,0.7,0.9,1.1s0.4,0.9,0.4,1.5s0,1.1-0.2,1.8c-0.2,0.6-0.4,1.1-0.7,1.6c-0.3,0.5-0.6,0.8-1.1,1.1
					c-0.4,0.3-0.9,0.5-1.4,0.5c-0.5,0.1-1.1,0-1.8-0.1c-0.5-0.1-1-0.3-1.4-0.6c-0.4-0.3-0.8-0.6-1-1c-0.3-0.4-0.5-0.8-0.6-1.3
					c-0.1-0.5-0.1-1,0-1.6l1.5,0.4c-0.1,0.7,0,1.3,0.4,1.8c0.3,0.5,0.8,0.8,1.5,1c0.4,0.1,0.7,0.1,1,0.1c0.3-0.1,0.6-0.2,0.9-0.4
					c0.3-0.2,0.5-0.5,0.7-0.8s0.3-0.7,0.5-1.1c0.1-0.4,0.1-0.8,0.1-1.1c0-0.4-0.1-0.7-0.3-1c-0.1-0.3-0.4-0.6-0.6-0.8
					c-0.3-0.2-0.6-0.4-1-0.5c-0.3-0.1-0.5-0.1-0.7-0.1c-0.2,0-0.4,0-0.6,0c-0.2,0-0.3,0.1-0.5,0.1c-0.2,0.1-0.3,0.1-0.5,0.2
					L522.1,89.8z"/>
			</g>
			<g enable-background="new    ">
				<path fill="#FFFFFF" d="M674.5,179.9l1.3,1.3l-0.9,0.9l-1.3-1.3l-2.1,2.1l-1.2-1.1l2.1-2.1l-4.1-4.1l0.7-0.7l10.3-2.3l1.2,1.2
					L674.5,179.9z M670.5,176l2.9,2.8l4.5-4.5l-0.5,0.2L670.5,176z"/>
				<path fill="#FFFFFF" d="M679.4,181.8l4.9-4.1l4.7,4.6l-1.1,1.1l-3.7-3.7l-2.7,2.2c0.3,0.1,0.6,0.2,0.9,0.4
					c0.3,0.2,0.7,0.4,1,0.7c0.4,0.4,0.7,0.9,0.9,1.3s0.3,1,0.2,1.5c0,0.5-0.2,1-0.4,1.5c-0.2,0.5-0.6,1-1,1.4
					c-0.4,0.4-0.9,0.8-1.4,1c-0.5,0.3-1,0.4-1.5,0.4c-0.5,0-1,0-1.5-0.2s-1-0.5-1.5-1c-0.4-0.4-0.7-0.8-0.9-1.2
					c-0.2-0.4-0.4-0.9-0.4-1.3c-0.1-0.5,0-0.9,0.1-1.4c0.2-0.5,0.4-1,0.8-1.4l1.1,1.1c-0.4,0.6-0.6,1.2-0.6,1.7
					c0,0.6,0.3,1.1,0.8,1.6c0.3,0.3,0.6,0.5,0.9,0.6s0.6,0.1,0.9,0.1c0.3,0,0.6-0.1,1-0.3c0.3-0.2,0.6-0.4,1-0.7
					c0.3-0.3,0.5-0.6,0.7-0.9s0.3-0.7,0.3-1c0-0.3,0-0.7-0.1-1c-0.1-0.3-0.3-0.6-0.6-0.9c-0.2-0.2-0.4-0.3-0.5-0.5
					c-0.2-0.1-0.3-0.2-0.5-0.3c-0.2-0.1-0.3-0.1-0.5-0.1c-0.2,0-0.3,0-0.5-0.1L679.4,181.8z"/>
			</g>
			<g enable-background="new    ">
				<path fill="#FFFFFF" d="M773.8,336.3l-12.9-2l-0.4-1.6l12.4,2.1l-1.8-6.7l1.4-0.4l2.3,8.3L773.8,336.3z"/>
				<path fill="#FFFFFF" d="M769.4,340.9l6.3-1.1l1.7,6.3l-1.5,0.4l-1.4-5l-3.4,0.5c0.2,0.2,0.4,0.5,0.6,0.8
					c0.2,0.3,0.4,0.7,0.5,1.1c0.2,0.6,0.2,1.1,0.1,1.6c-0.1,0.5-0.2,1-0.5,1.4c-0.3,0.4-0.6,0.8-1.1,1.1c-0.5,0.3-1,0.5-1.6,0.7
					c-0.6,0.2-1.2,0.2-1.7,0.2c-0.5,0-1-0.1-1.5-0.4c-0.5-0.2-0.8-0.5-1.2-1c-0.3-0.4-0.6-1-0.8-1.6c-0.1-0.5-0.2-1-0.2-1.5
					c0-0.5,0.1-0.9,0.3-1.4s0.5-0.8,0.8-1.1c0.4-0.3,0.8-0.6,1.4-0.8l0.4,1.5c-0.7,0.3-1.1,0.7-1.4,1.2c-0.2,0.5-0.3,1.1-0.1,1.8
					c0.1,0.4,0.3,0.7,0.5,0.9c0.2,0.3,0.5,0.4,0.8,0.6c0.3,0.1,0.6,0.2,1,0.2c0.4,0,0.8,0,1.2-0.2c0.4-0.1,0.7-0.3,1-0.5
					c0.3-0.2,0.5-0.4,0.7-0.7c0.2-0.3,0.3-0.6,0.4-0.9c0.1-0.3,0-0.7-0.1-1.1c-0.1-0.3-0.2-0.5-0.2-0.7c-0.1-0.2-0.2-0.3-0.3-0.5
					c-0.1-0.1-0.2-0.3-0.4-0.4c-0.1-0.1-0.3-0.2-0.4-0.3L769.4,340.9z"/>
			</g>
			<g enable-background="new    ">
				<path fill="#FFFFFF" d="M765.5,509.1l0.4-1.6l10.4,2.7l-0.4-3.6l1.4,0.4l0.6,5.2l0,0.1L765.5,509.1z"/>
				<path fill="#FFFFFF" d="M766.8,523.5c-0.8-0.2-1.5-0.5-2-0.8s-1-0.7-1.3-1.2c-0.3-0.5-0.5-0.9-0.6-1.5c-0.1-0.5,0-1.1,0.1-1.8
					c0.2-0.6,0.4-1.2,0.8-1.6c0.3-0.4,0.8-0.8,1.3-1c0.5-0.2,1.1-0.4,1.7-0.4c0.7,0,1.4,0.1,2.2,0.3l2.9,0.8c0.8,0.2,1.5,0.5,2,0.8
					s1,0.7,1.3,1.2s0.5,1,0.6,1.5c0.1,0.6,0,1.1-0.1,1.8c-0.2,0.6-0.4,1.2-0.8,1.6c-0.3,0.4-0.8,0.8-1.3,1c-0.5,0.2-1.1,0.4-1.8,0.4
					c-0.7,0-1.4-0.1-2.2-0.3L766.8,523.5z M769.7,522.6l-2.4-5.8c-0.8-0.1-1.5,0-2,0.3c-0.5,0.3-0.9,0.8-1.1,1.5
					c-0.2,0.8-0.1,1.5,0.4,2.1c0.5,0.5,1.2,0.9,2.3,1.2L769.7,522.6z M768.8,517.1l2.4,5.8c0.8,0.1,1.5,0.1,2.1-0.2
					c0.5-0.3,0.9-0.8,1.1-1.5c0.2-0.8,0.1-1.5-0.4-2.1c-0.5-0.5-1.2-1-2.3-1.2L768.8,517.1z"/>
				<path fill="#FFFFFF" d="M767.4,527.1l6,2.2l-1.7,6.3l-1.5-0.4l1.3-5l-3.2-1.2c0.1,0.3,0.1,0.6,0.1,1c0,0.4,0,0.8-0.1,1.2
					c-0.2,0.6-0.4,1.1-0.7,1.5s-0.7,0.7-1.1,0.9c-0.4,0.2-0.9,0.4-1.5,0.4c-0.6,0-1.1,0-1.8-0.2c-0.6-0.2-1.1-0.4-1.6-0.7
					c-0.5-0.3-0.8-0.6-1.1-1.1c-0.3-0.4-0.5-0.9-0.5-1.4c-0.1-0.5,0-1.1,0.1-1.8c0.1-0.5,0.3-1,0.6-1.4c0.3-0.4,0.6-0.8,1-1
					c0.4-0.3,0.8-0.5,1.3-0.6c0.5-0.1,1-0.1,1.6,0l-0.4,1.5c-0.7-0.1-1.3,0-1.8,0.4c-0.5,0.3-0.8,0.8-1,1.5c-0.1,0.4-0.1,0.7-0.1,1
					c0.1,0.3,0.2,0.6,0.4,0.9c0.2,0.3,0.5,0.5,0.8,0.7c0.3,0.2,0.7,0.3,1.1,0.5c0.4,0.1,0.8,0.1,1.1,0.1c0.4,0,0.7-0.1,1-0.2
					c0.3-0.1,0.6-0.4,0.8-0.6c0.2-0.3,0.4-0.6,0.5-1c0.1-0.3,0.1-0.5,0.1-0.7c0-0.2,0-0.4,0-0.6c0-0.2-0.1-0.3-0.1-0.5
					c-0.1-0.2-0.1-0.3-0.2-0.5L767.4,527.1z"/>
			</g>
			<g enable-background="new    ">
				<path fill="#FFFFFF" d="M528.9,759.4l1.6-0.4l2.8,10.3l2.9-2.1l0.4,1.4l-4.2,3.1l-0.1,0L528.9,759.4z"/>
				<path fill="#FFFFFF" d="M521.2,774.8l-0.4-1.4l0.1,0c0.5-0.1,1-0.3,1.4-0.5s0.7-0.5,1-0.7c0.3-0.3,0.5-0.6,0.6-0.9
					c0.2-0.3,0.3-0.7,0.3-1c0.1-0.3,0.1-0.7,0.1-1.1s-0.1-0.7-0.1-1.1c-0.1,0.2-0.2,0.4-0.4,0.6c-0.2,0.2-0.3,0.4-0.5,0.6
					c-0.2,0.2-0.4,0.3-0.6,0.5c-0.2,0.1-0.5,0.2-0.8,0.3c-0.6,0.2-1.2,0.2-1.7,0.1c-0.5-0.1-1-0.3-1.4-0.6c-0.4-0.3-0.7-0.7-1-1.1
					c-0.3-0.5-0.5-0.9-0.6-1.4c-0.2-0.6-0.2-1.1-0.2-1.7c0-0.6,0.1-1.1,0.4-1.5c0.2-0.5,0.5-0.9,1-1.2c0.4-0.4,0.9-0.6,1.6-0.8
					c0.4-0.1,0.9-0.2,1.3-0.1s0.8,0.1,1.1,0.3c0.4,0.1,0.7,0.3,1,0.6s0.6,0.5,0.8,0.8c0.2,0.3,0.4,0.6,0.6,1
					c0.2,0.4,0.3,0.7,0.4,1.1l0.2,0.7c0.2,0.6,0.3,1.1,0.4,1.7c0.1,0.6,0.1,1.2,0.1,1.7c0,0.6-0.1,1.1-0.3,1.6
					c-0.2,0.5-0.4,1-0.8,1.5c-0.3,0.5-0.8,0.9-1.3,1.2c-0.6,0.4-1.2,0.6-2,0.9L521.2,774.8z M521.7,768.7c0.3-0.1,0.5-0.2,0.7-0.3
					c0.2-0.2,0.4-0.3,0.6-0.5c0.2-0.2,0.3-0.4,0.4-0.7c0.1-0.3,0.2-0.5,0.2-0.8l-0.1-0.5c-0.1-0.5-0.3-1-0.6-1.4s-0.5-0.7-0.8-0.9
					c-0.3-0.2-0.6-0.4-0.9-0.4c-0.3-0.1-0.7-0.1-1,0c-0.4,0.1-0.7,0.3-0.9,0.5c-0.2,0.2-0.4,0.5-0.6,0.8c-0.1,0.3-0.2,0.6-0.2,1
					c0,0.4,0,0.8,0.2,1.2c0.1,0.4,0.2,0.7,0.4,1c0.2,0.3,0.4,0.6,0.7,0.8c0.3,0.2,0.6,0.4,0.9,0.4
					C521,768.8,521.4,768.8,521.7,768.7z"/>
				<path fill="#FFFFFF" d="M514.3,770.1l1.1,6.3l-6.3,1.7l-0.4-1.5l5-1.4l-0.5-3.4c-0.2,0.2-0.5,0.4-0.8,0.6s-0.7,0.4-1.1,0.5
					c-0.6,0.2-1.1,0.2-1.6,0.1c-0.5-0.1-1-0.2-1.4-0.5c-0.4-0.3-0.8-0.6-1.1-1.1c-0.3-0.5-0.5-1-0.7-1.6c-0.2-0.6-0.2-1.2-0.2-1.7
					c0-0.5,0.1-1,0.4-1.5c0.2-0.5,0.5-0.8,1-1.2s1-0.6,1.6-0.8c0.5-0.1,1-0.2,1.5-0.2s0.9,0.1,1.4,0.3c0.4,0.2,0.8,0.5,1.1,0.8
					c0.3,0.4,0.6,0.8,0.8,1.4l-1.5,0.4c-0.3-0.7-0.7-1.1-1.2-1.4s-1.1-0.3-1.8-0.1c-0.4,0.1-0.7,0.3-0.9,0.5
					c-0.3,0.2-0.4,0.5-0.6,0.8c-0.1,0.3-0.2,0.6-0.2,1c0,0.4,0.1,0.8,0.2,1.2c0.1,0.4,0.3,0.7,0.5,1s0.4,0.5,0.7,0.7
					c0.3,0.2,0.6,0.3,0.9,0.4c0.3,0.1,0.7,0,1.1-0.1c0.3-0.1,0.5-0.2,0.7-0.2c0.2-0.1,0.3-0.2,0.5-0.3s0.3-0.2,0.4-0.4
					c0.1-0.1,0.2-0.3,0.3-0.4L514.3,770.1z"/>
			</g>
			<g enable-background="new    ">
				<path fill="#FFFFFF" d="M349.5,765.1l1.6,0.4l-2.7,10.4l3.6-0.4l-0.4,1.4l-5.2,0.6l-0.1,0L349.5,765.1z"/>
				<path fill="#FFFFFF" d="M342,764.7c-0.6-0.1-1.1-0.2-1.5-0.2c-0.5,0-0.9,0-1.2,0.1c-0.4,0.1-0.7,0.2-1,0.4
					c-0.3,0.2-0.5,0.4-0.7,0.7c-0.2,0.3-0.4,0.6-0.5,0.9c-0.1,0.3-0.3,0.6-0.4,1c0.2-0.1,0.4-0.3,0.6-0.4c0.2-0.1,0.4-0.2,0.7-0.2
					s0.5-0.1,0.8-0.1c0.3,0,0.6,0.1,0.9,0.1c0.6,0.2,1.1,0.4,1.5,0.8c0.4,0.4,0.7,0.8,0.9,1.2c0.2,0.5,0.3,1,0.3,1.5s-0.1,1-0.2,1.5
					c-0.2,0.6-0.4,1.1-0.7,1.6c-0.3,0.5-0.7,0.9-1.1,1.2c-0.4,0.3-0.9,0.5-1.4,0.6c-0.5,0.1-1.1,0.1-1.8-0.1
					c-0.5-0.1-0.9-0.3-1.2-0.5c-0.3-0.2-0.6-0.5-0.9-0.8c-0.2-0.3-0.4-0.7-0.5-1c-0.1-0.4-0.2-0.8-0.2-1.2c0-0.4,0-0.8,0-1.2
					s0.1-0.8,0.2-1.2l0.2-0.6c0.1-0.5,0.3-1.1,0.5-1.6c0.2-0.5,0.4-1,0.7-1.5c0.3-0.5,0.6-0.9,1-1.3c0.4-0.4,0.9-0.7,1.4-0.9
					c0.5-0.2,1.1-0.4,1.8-0.4s1.4,0.1,2.3,0.3l0.2,0l-0.4,1.4L342,764.7z M339.1,768.2c-0.3-0.1-0.5-0.1-0.8-0.1
					c-0.3,0-0.5,0.1-0.8,0.2c-0.3,0.1-0.5,0.2-0.7,0.4c-0.2,0.2-0.4,0.4-0.6,0.6l-0.1,0.5c-0.1,0.5-0.2,1.1-0.2,1.5
					c0,0.5,0.1,0.9,0.2,1.2c0.1,0.4,0.3,0.6,0.6,0.9c0.2,0.2,0.5,0.4,0.9,0.5c0.4,0.1,0.7,0.1,1,0c0.3-0.1,0.6-0.2,0.9-0.4
					c0.3-0.2,0.5-0.5,0.7-0.8s0.3-0.7,0.5-1.1c0.1-0.4,0.1-0.7,0.1-1.1c0-0.4-0.1-0.7-0.2-1c-0.1-0.3-0.3-0.6-0.5-0.8
					C339.8,768.5,339.5,768.3,339.1,768.2z"/>
				<path fill="#FFFFFF" d="M331.5,767l-2.2,6l-6.3-1.7l0.4-1.5l5,1.3l1.2-3.2c-0.3,0.1-0.6,0.1-1,0.1c-0.4,0-0.8,0-1.2-0.1
					c-0.6-0.2-1.1-0.4-1.5-0.7c-0.4-0.3-0.7-0.7-0.9-1.1c-0.2-0.4-0.4-0.9-0.4-1.5c0-0.6,0-1.1,0.2-1.8c0.2-0.6,0.4-1.1,0.7-1.6
					c0.3-0.5,0.6-0.8,1.1-1.1c0.4-0.3,0.9-0.5,1.4-0.5c0.5-0.1,1.1,0,1.8,0.1c0.5,0.1,1,0.3,1.4,0.6c0.4,0.3,0.8,0.6,1,1
					c0.3,0.4,0.5,0.8,0.6,1.3c0.1,0.5,0.1,1,0,1.6l-1.5-0.4c0.1-0.7,0-1.3-0.4-1.8c-0.3-0.5-0.8-0.8-1.5-1c-0.4-0.1-0.7-0.1-1-0.1
					c-0.3,0.1-0.6,0.2-0.9,0.4c-0.3,0.2-0.5,0.5-0.7,0.8c-0.2,0.3-0.3,0.7-0.5,1.1c-0.1,0.4-0.1,0.8-0.1,1.1c0,0.4,0.1,0.7,0.2,1
					c0.1,0.3,0.4,0.6,0.6,0.8c0.3,0.2,0.6,0.4,1,0.5c0.3,0.1,0.5,0.1,0.7,0.1c0.2,0,0.4,0,0.6,0c0.2,0,0.3-0.1,0.5-0.1
					c0.2-0.1,0.3-0.1,0.5-0.2L331.5,767z"/>
			</g>
			<g enable-background="new    ">
				<path fill="#FFFFFF" d="M680.9,665.1l1.1-1.2l7.6,7.5l1.5-3.3l1.1,1l-2.1,4.8l-0.1,0.1L680.9,665.1z"/>
				<path fill="#FFFFFF" d="M680.8,675.4l-0.8,0.8c-0.3,0.3-0.5,0.6-0.6,0.9c-0.1,0.3-0.2,0.6-0.2,0.9s0,0.6,0.1,0.8
					c0.1,0.3,0.3,0.5,0.5,0.7c0.5,0.5,1.1,0.8,1.6,0.8c0.5,0,1.1-0.3,1.6-0.8c0.2-0.2,0.4-0.5,0.6-0.8c0.1-0.3,0.2-0.6,0.2-0.8
					c0-0.3,0-0.6-0.2-0.8c-0.1-0.3-0.3-0.5-0.5-0.8l1.2-1.2c0.3,0.3,0.6,0.7,0.8,1.2c0.2,0.4,0.2,0.9,0.2,1.4c0,0.5-0.1,0.9-0.3,1.4
					c-0.2,0.5-0.5,0.9-0.9,1.3c-0.4,0.4-0.8,0.7-1.3,1c-0.4,0.2-0.9,0.4-1.3,0.4c-0.5,0-0.9-0.1-1.4-0.2c-0.5-0.2-0.9-0.5-1.3-0.9
					c-0.2-0.2-0.3-0.4-0.5-0.6c-0.1-0.2-0.2-0.5-0.3-0.8c-0.1-0.3-0.1-0.6-0.1-0.9c0-0.3,0.1-0.7,0.2-1c-0.4,0.2-0.8,0.3-1.1,0.4
					c-0.4,0-0.7,0-1,0c-0.3-0.1-0.6-0.2-0.9-0.4s-0.5-0.3-0.7-0.6c-0.4-0.4-0.7-0.9-0.9-1.3c-0.2-0.5-0.3-0.9-0.2-1.4
					c0-0.5,0.2-1,0.4-1.4c0.2-0.5,0.5-0.9,1-1.3c0.4-0.4,0.8-0.7,1.3-1s0.9-0.4,1.4-0.4c0.5,0,0.9,0,1.4,0.2
					c0.5,0.2,0.9,0.4,1.3,0.8l-1.1,1.2c-0.2-0.2-0.5-0.4-0.8-0.5c-0.3-0.1-0.6-0.2-0.8-0.1c-0.3,0-0.6,0.1-0.9,0.2
					c-0.3,0.1-0.6,0.3-0.8,0.6c-0.3,0.3-0.5,0.5-0.6,0.8c-0.1,0.3-0.2,0.6-0.2,0.9c0,0.3,0.1,0.6,0.2,0.9c0.1,0.3,0.3,0.6,0.6,0.9
					c0.3,0.3,0.6,0.5,0.9,0.6c0.3,0.1,0.6,0.2,0.9,0.1c0.3,0,0.6-0.1,0.9-0.3c0.3-0.2,0.6-0.4,0.9-0.7l0.8-0.8L680.8,675.4z"/>
				<path fill="#FFFFFF" d="M673.6,681.6l4.1,4.9l-4.6,4.7l-1.1-1.1l3.7-3.7l-2.2-2.7c-0.1,0.3-0.2,0.6-0.4,0.9
					c-0.2,0.3-0.4,0.7-0.7,1c-0.4,0.4-0.9,0.7-1.3,0.9c-0.5,0.2-1,0.3-1.5,0.2s-1-0.2-1.5-0.4c-0.5-0.2-1-0.6-1.4-1.1
					c-0.4-0.4-0.8-0.9-1-1.4c-0.3-0.5-0.4-1-0.4-1.5c0-0.5,0-1,0.3-1.5c0.2-0.5,0.5-1,1-1.5c0.4-0.4,0.8-0.7,1.2-0.9
					c0.4-0.2,0.9-0.4,1.3-0.4c0.5,0,0.9,0,1.4,0.1c0.5,0.2,0.9,0.4,1.4,0.8l-1.1,1.1c-0.6-0.4-1.2-0.6-1.7-0.6
					c-0.6,0-1.1,0.3-1.6,0.8c-0.3,0.3-0.5,0.6-0.6,0.9c-0.1,0.3-0.2,0.6-0.1,0.9c0,0.3,0.1,0.6,0.3,1c0.2,0.3,0.4,0.6,0.7,1
					c0.3,0.3,0.6,0.5,0.9,0.7c0.3,0.2,0.7,0.3,1,0.3c0.3,0,0.7,0,1-0.1c0.3-0.1,0.6-0.3,0.9-0.6c0.2-0.2,0.3-0.4,0.5-0.5
					s0.2-0.3,0.3-0.5s0.1-0.3,0.1-0.5c0-0.2,0-0.3,0.1-0.5L673.6,681.6z"/>
			</g>
			<g enable-background="new    ">
				<path fill="#FFFFFF" d="M189.5,677.7l6,5.9l-0.8,0.8l-6.3,0.4c-0.6,0-1,0.1-1.4,0.1c-0.4,0.1-0.8,0.1-1.1,0.2
					c-0.3,0.1-0.6,0.2-0.8,0.3s-0.4,0.3-0.6,0.5c-0.2,0.2-0.4,0.5-0.5,0.7s-0.2,0.5-0.2,0.8c0,0.3,0,0.6,0.2,0.8
					c0.1,0.3,0.3,0.5,0.5,0.8c0.3,0.3,0.6,0.5,0.9,0.7s0.6,0.2,0.9,0.2c0.3,0,0.6-0.1,0.9-0.3c0.3-0.2,0.6-0.4,0.9-0.7l1.2,1.2
					c-0.4,0.4-0.8,0.7-1.3,0.9c-0.5,0.2-1,0.3-1.5,0.3c-0.5,0-1-0.1-1.5-0.3s-1-0.5-1.5-1c-0.4-0.4-0.8-0.9-1-1.3
					c-0.2-0.5-0.3-0.9-0.3-1.4c0-0.5,0.1-0.9,0.2-1.3c0.2-0.4,0.4-0.8,0.8-1.2c0.3-0.3,0.6-0.5,0.9-0.7c0.4-0.2,0.7-0.3,1.1-0.4
					s0.8-0.2,1.3-0.2c0.5,0,0.9-0.1,1.4-0.1l5.1-0.2l-4.6-4.5L189.5,677.7z"/>
				<path fill="#FFFFFF" d="M181.8,670.1l6,5.9l-0.8,0.8l-6.3,0.4c-0.6,0-1,0.1-1.4,0.1c-0.4,0.1-0.8,0.1-1.1,0.2
					c-0.3,0.1-0.6,0.2-0.8,0.3s-0.4,0.3-0.6,0.5c-0.2,0.2-0.4,0.5-0.5,0.7c-0.1,0.3-0.2,0.5-0.2,0.8c0,0.3,0,0.6,0.2,0.8
					c0.1,0.3,0.3,0.5,0.5,0.8c0.3,0.3,0.6,0.5,0.9,0.7c0.3,0.1,0.6,0.2,0.9,0.2c0.3,0,0.6-0.1,0.9-0.3c0.3-0.2,0.6-0.4,0.9-0.7
					l1.2,1.2c-0.4,0.4-0.8,0.7-1.3,0.9c-0.5,0.2-1,0.3-1.5,0.3c-0.5,0-1-0.1-1.5-0.3c-0.5-0.2-1-0.5-1.5-1c-0.4-0.4-0.8-0.9-1-1.3
					c-0.2-0.5-0.3-0.9-0.3-1.4c0-0.5,0.1-0.9,0.2-1.3c0.2-0.4,0.4-0.8,0.8-1.2c0.3-0.3,0.6-0.5,0.9-0.7c0.4-0.2,0.7-0.3,1.1-0.4
					c0.4-0.1,0.8-0.2,1.3-0.2c0.5,0,0.9-0.1,1.4-0.1l5.1-0.2l-4.6-4.5L181.8,670.1z"/>
				<path fill="#FFFFFF" d="M174.8,672.2l-4.9,4.1l-4.7-4.6l1.1-1.1l3.7,3.7l2.7-2.2c-0.3-0.1-0.6-0.2-0.9-0.4
					c-0.3-0.2-0.7-0.4-1-0.7c-0.4-0.4-0.7-0.9-0.9-1.3c-0.2-0.5-0.3-1-0.2-1.5c0-0.5,0.2-1,0.4-1.5s0.6-1,1-1.4
					c0.4-0.4,0.9-0.8,1.4-1c0.5-0.3,1-0.4,1.5-0.4c0.5,0,1,0,1.5,0.3c0.5,0.2,1,0.5,1.5,1c0.4,0.4,0.7,0.8,0.9,1.2
					c0.2,0.4,0.4,0.9,0.4,1.3c0,0.5,0,0.9-0.1,1.4c-0.1,0.5-0.4,0.9-0.8,1.4l-1.1-1.1c0.4-0.6,0.6-1.2,0.6-1.7
					c0-0.6-0.3-1.1-0.8-1.6c-0.3-0.3-0.6-0.5-0.9-0.6c-0.3-0.1-0.6-0.2-0.9-0.1c-0.3,0-0.6,0.1-1,0.3s-0.6,0.4-1,0.7
					c-0.3,0.3-0.5,0.6-0.7,0.9c-0.2,0.3-0.3,0.7-0.3,1c0,0.3,0,0.7,0.1,1c0.1,0.3,0.3,0.6,0.6,0.9c0.2,0.2,0.4,0.3,0.5,0.5
					c0.2,0.1,0.3,0.2,0.5,0.3s0.3,0.1,0.5,0.1c0.2,0,0.3,0,0.5,0.1L174.8,672.2z"/>
			</g>
			<g enable-background="new    ">
				<path fill="#FFFFFF" d="M97.8,525.9l2.2,8.1l-1.1,0.3l-5.6-2.8c-0.5-0.3-0.9-0.5-1.3-0.6c-0.4-0.2-0.7-0.3-1-0.4
					c-0.3-0.1-0.6-0.1-0.8-0.1c-0.3,0-0.5,0-0.8,0.1c-0.3,0.1-0.6,0.2-0.8,0.4c-0.2,0.2-0.4,0.4-0.6,0.6c-0.1,0.2-0.2,0.5-0.3,0.8
					c0,0.3,0,0.6,0.1,1c0.1,0.4,0.3,0.8,0.5,1c0.2,0.3,0.4,0.5,0.7,0.6c0.3,0.1,0.6,0.2,0.9,0.2s0.7,0,1.1-0.1l0.4,1.6
					c-0.5,0.1-1,0.2-1.5,0.1c-0.5-0.1-1-0.2-1.4-0.5c-0.4-0.2-0.8-0.6-1.2-1c-0.3-0.4-0.6-1-0.8-1.6c-0.2-0.6-0.2-1.1-0.2-1.6
					c0-0.5,0.2-1,0.4-1.4s0.5-0.8,0.9-1c0.4-0.3,0.8-0.5,1.3-0.6c0.4-0.1,0.7-0.1,1.1-0.1c0.4,0,0.8,0.1,1.2,0.2
					c0.4,0.1,0.8,0.3,1.2,0.5c0.4,0.2,0.8,0.4,1.3,0.6l4.5,2.3l-1.7-6.2L97.8,525.9z"/>
				<path fill="#FFFFFF" d="M90.6,524.2l-6.3,1.1l-1.7-6.3l1.5-0.4l1.4,5l3.4-0.5c-0.2-0.2-0.4-0.5-0.6-0.8
					c-0.2-0.3-0.4-0.7-0.5-1.1c-0.2-0.6-0.2-1.1-0.1-1.6c0.1-0.5,0.2-1,0.5-1.4c0.3-0.4,0.6-0.8,1.1-1.1c0.5-0.3,1-0.5,1.6-0.7
					c0.6-0.2,1.2-0.2,1.7-0.2c0.5,0,1,0.1,1.5,0.4c0.5,0.2,0.8,0.5,1.2,1c0.3,0.4,0.6,1,0.8,1.6c0.1,0.5,0.2,1,0.2,1.5
					c0,0.5-0.1,0.9-0.3,1.4c-0.2,0.4-0.5,0.8-0.8,1.1c-0.4,0.3-0.8,0.6-1.4,0.8l-0.4-1.5c0.7-0.3,1.1-0.7,1.4-1.2
					c0.2-0.5,0.3-1.1,0.1-1.8c-0.1-0.4-0.3-0.7-0.5-0.9c-0.2-0.3-0.5-0.4-0.8-0.6c-0.3-0.1-0.6-0.2-1-0.2s-0.8,0-1.2,0.2
					c-0.4,0.1-0.7,0.3-1,0.5c-0.3,0.2-0.5,0.4-0.7,0.7c-0.2,0.3-0.3,0.6-0.4,0.9c-0.1,0.3,0,0.7,0.1,1.1c0.1,0.3,0.2,0.5,0.2,0.7
					c0.1,0.2,0.2,0.3,0.3,0.5c0.1,0.1,0.2,0.3,0.4,0.4c0.1,0.1,0.3,0.2,0.4,0.3L90.6,524.2z"/>
				<path fill="#FFFFFF" d="M87.8,513.8l-6.3,1.1l-1.7-6.3l1.5-0.4l1.4,5l3.4-0.5c-0.2-0.2-0.4-0.5-0.6-0.8
					c-0.2-0.3-0.4-0.7-0.5-1.1c-0.2-0.6-0.2-1.1-0.1-1.6c0.1-0.5,0.2-1,0.5-1.4c0.3-0.4,0.6-0.8,1.1-1.1c0.5-0.3,1-0.5,1.6-0.7
					c0.6-0.2,1.2-0.2,1.7-0.2c0.5,0,1,0.1,1.5,0.4c0.5,0.2,0.8,0.5,1.2,1c0.3,0.4,0.6,1,0.8,1.6c0.1,0.5,0.2,1,0.2,1.5
					c0,0.5-0.1,0.9-0.3,1.4c-0.2,0.4-0.5,0.8-0.8,1.1c-0.4,0.3-0.8,0.6-1.4,0.8l-0.4-1.5c0.7-0.3,1.1-0.7,1.4-1.2
					c0.2-0.5,0.3-1.1,0.1-1.8c-0.1-0.4-0.3-0.7-0.5-0.9c-0.2-0.3-0.5-0.4-0.8-0.6c-0.3-0.1-0.6-0.2-1-0.2c-0.4,0-0.8,0-1.2,0.2
					c-0.4,0.1-0.7,0.3-1,0.5c-0.3,0.2-0.5,0.4-0.7,0.7c-0.2,0.3-0.3,0.6-0.4,0.9c-0.1,0.3,0,0.7,0.1,1.1c0.1,0.3,0.2,0.5,0.2,0.7
					c0.1,0.2,0.2,0.3,0.3,0.5s0.2,0.3,0.4,0.4s0.3,0.2,0.4,0.3L87.8,513.8z"/>
			</g>
			<g enable-background="new    ">
				<path fill="#FFFFFF" d="M94.3,346.4l-2.1,8.1l-1.1-0.3l-3.4-5.2c-0.3-0.5-0.6-0.9-0.8-1.2c-0.2-0.3-0.5-0.6-0.7-0.8
					s-0.4-0.4-0.7-0.5c-0.2-0.1-0.5-0.2-0.7-0.3c-0.3-0.1-0.6-0.1-0.9-0.1c-0.3,0-0.6,0.1-0.8,0.2c-0.2,0.1-0.5,0.3-0.7,0.6
					c-0.2,0.2-0.3,0.5-0.4,0.9c-0.1,0.4-0.1,0.8-0.1,1.1c0,0.3,0.1,0.6,0.3,0.9c0.2,0.3,0.4,0.5,0.7,0.7c0.3,0.2,0.6,0.3,1,0.4
					l-0.4,1.6c-0.5-0.1-1-0.4-1.4-0.7c-0.4-0.3-0.7-0.7-1-1.1c-0.3-0.4-0.4-0.9-0.5-1.5c-0.1-0.5,0-1.1,0.1-1.8
					c0.2-0.6,0.4-1.1,0.7-1.5c0.3-0.4,0.6-0.8,1-1c0.4-0.2,0.8-0.4,1.3-0.5c0.5-0.1,0.9,0,1.4,0.1c0.4,0.1,0.7,0.3,1,0.5
					c0.3,0.2,0.6,0.5,0.9,0.8c0.3,0.3,0.6,0.6,0.8,1c0.3,0.4,0.5,0.8,0.8,1.2l2.7,4.3L93,346L94.3,346.4z"/>
				<path fill="#FFFFFF" d="M87.9,333.5c0.6,0.2,1.1,0.5,1.5,0.9c0.4,0.5,0.7,1,0.8,1.6c0.2-0.3,0.5-0.5,0.7-0.7
					c0.3-0.2,0.6-0.4,0.9-0.5c0.3-0.1,0.6-0.2,1-0.2c0.3,0,0.7,0,1,0.1c0.6,0.1,1,0.4,1.4,0.7c0.4,0.3,0.7,0.7,0.9,1.1
					c0.2,0.4,0.3,0.9,0.4,1.4s0,1-0.2,1.6c-0.1,0.6-0.4,1.1-0.6,1.5c-0.3,0.4-0.6,0.8-1,1.1c-0.4,0.3-0.8,0.5-1.3,0.5
					s-1,0.1-1.6-0.1c-0.3-0.1-0.7-0.2-0.9-0.4c-0.3-0.2-0.5-0.4-0.7-0.6s-0.4-0.5-0.5-0.8c-0.1-0.3-0.2-0.6-0.3-1
					c-0.2,0.2-0.4,0.4-0.7,0.6c-0.2,0.2-0.5,0.3-0.8,0.4s-0.6,0.1-0.9,0.2c-0.3,0-0.6,0-0.9-0.1c-0.5-0.1-1-0.4-1.4-0.7
					c-0.4-0.3-0.7-0.6-0.9-1c-0.2-0.4-0.3-0.8-0.4-1.3c0-0.5,0-1,0.2-1.5c0.1-0.5,0.3-1,0.6-1.4c0.3-0.4,0.6-0.7,1-1
					c0.4-0.3,0.8-0.4,1.3-0.5C86.9,333.3,87.4,333.3,87.9,333.5z M87.6,335.1c-0.3-0.1-0.6-0.1-0.9-0.1c-0.3,0-0.6,0.1-0.8,0.3
					c-0.2,0.1-0.4,0.3-0.6,0.5c-0.2,0.2-0.3,0.5-0.4,0.8c-0.1,0.3-0.1,0.6-0.1,0.9s0.1,0.5,0.3,0.8c0.1,0.2,0.3,0.4,0.6,0.6
					c0.2,0.2,0.5,0.3,0.8,0.4c0.3,0.1,0.6,0.1,0.9,0.1s0.5-0.1,0.8-0.3s0.4-0.3,0.6-0.5c0.2-0.2,0.3-0.5,0.4-0.8
					c0.1-0.3,0.1-0.6,0.1-0.9c0-0.3-0.1-0.5-0.3-0.8c-0.1-0.2-0.3-0.4-0.6-0.6C88.1,335.3,87.9,335.2,87.6,335.1z M93.4,336.3
					c-0.3-0.1-0.7-0.1-1-0.1s-0.6,0.1-0.9,0.3c-0.3,0.2-0.5,0.4-0.7,0.6c-0.2,0.3-0.3,0.6-0.4,0.9c-0.1,0.4-0.1,0.7-0.1,1
					s0.1,0.6,0.3,0.9c0.2,0.3,0.4,0.5,0.6,0.7c0.3,0.2,0.6,0.3,0.9,0.4c0.4,0.1,0.7,0.1,1,0.1c0.3,0,0.6-0.1,0.8-0.3
					s0.5-0.4,0.6-0.6c0.2-0.3,0.3-0.6,0.4-0.9c0.1-0.3,0.1-0.7,0.1-1c0-0.3-0.1-0.6-0.2-0.9s-0.3-0.5-0.6-0.7
					C94,336.5,93.7,336.4,93.4,336.3z"/>
				<path fill="#FFFFFF" d="M91.8,330.9l-6-2.2l1.7-6.3l1.5,0.4l-1.3,5l3.2,1.2c-0.1-0.3-0.1-0.6-0.1-1c0-0.4,0-0.8,0.1-1.2
					c0.2-0.6,0.4-1.1,0.7-1.5c0.3-0.4,0.7-0.7,1.1-0.9c0.4-0.2,0.9-0.4,1.5-0.4c0.6,0,1.1,0,1.8,0.2c0.6,0.2,1.1,0.4,1.6,0.7
					c0.5,0.3,0.8,0.6,1.1,1.1c0.3,0.4,0.5,0.9,0.5,1.4c0.1,0.5,0,1.1-0.1,1.8c-0.1,0.5-0.3,1-0.6,1.4c-0.3,0.4-0.6,0.8-1,1
					c-0.4,0.3-0.8,0.5-1.3,0.6c-0.5,0.1-1,0.1-1.6,0l0.4-1.5c0.7,0.1,1.3,0,1.8-0.4c0.5-0.3,0.8-0.8,1-1.5c0.1-0.4,0.1-0.7,0.1-1
					c-0.1-0.3-0.2-0.6-0.4-0.9c-0.2-0.3-0.5-0.5-0.8-0.7c-0.3-0.2-0.7-0.3-1.1-0.5c-0.4-0.1-0.8-0.1-1.1-0.1c-0.4,0-0.7,0.1-1,0.2
					c-0.3,0.1-0.6,0.4-0.8,0.6c-0.2,0.3-0.4,0.6-0.5,1c-0.1,0.3-0.1,0.5-0.1,0.7c0,0.2,0,0.4,0,0.6c0,0.2,0.1,0.3,0.1,0.5
					c0.1,0.2,0.1,0.3,0.2,0.5L91.8,330.9z"/>
			</g>
			<g enable-background="new    ">
				<path fill="#FFFFFF" d="M170.9,190.5l0.8-0.8c0.3-0.3,0.5-0.6,0.6-0.9c0.1-0.3,0.2-0.6,0.2-0.9c0-0.3,0-0.6-0.1-0.8
					s-0.3-0.5-0.5-0.7c-0.5-0.5-1.1-0.8-1.6-0.8c-0.5,0-1.1,0.3-1.6,0.8c-0.2,0.2-0.4,0.5-0.6,0.8s-0.2,0.6-0.2,0.8
					c0,0.3,0,0.6,0.2,0.8c0.1,0.3,0.3,0.5,0.5,0.8l-1.2,1.2c-0.3-0.3-0.6-0.7-0.8-1.2c-0.2-0.4-0.2-0.9-0.2-1.4
					c0-0.5,0.1-0.9,0.3-1.4c0.2-0.5,0.5-0.9,0.9-1.3c0.4-0.4,0.8-0.7,1.3-1c0.4-0.2,0.9-0.4,1.4-0.4c0.5,0,0.9,0.1,1.4,0.2
					s0.9,0.5,1.3,0.9c0.2,0.2,0.3,0.4,0.5,0.6c0.1,0.2,0.2,0.5,0.3,0.8c0.1,0.3,0.1,0.6,0.1,0.9c0,0.3-0.1,0.7-0.2,1
					c0.4-0.2,0.8-0.3,1.1-0.4s0.7,0,1,0c0.3,0.1,0.6,0.2,0.9,0.3c0.3,0.2,0.5,0.3,0.7,0.6c0.4,0.4,0.7,0.9,0.9,1.3
					c0.2,0.5,0.3,0.9,0.2,1.4c0,0.5-0.2,1-0.4,1.4c-0.2,0.5-0.5,0.9-1,1.3c-0.4,0.4-0.8,0.7-1.3,1c-0.5,0.2-0.9,0.4-1.4,0.4
					c-0.5,0-0.9,0-1.4-0.2s-0.9-0.4-1.3-0.8l1.1-1.2c0.2,0.2,0.5,0.4,0.8,0.5c0.3,0.1,0.6,0.2,0.8,0.1c0.3,0,0.6-0.1,0.9-0.2
					s0.6-0.3,0.8-0.6s0.5-0.5,0.6-0.8c0.1-0.3,0.2-0.6,0.2-0.9c0-0.3-0.1-0.6-0.2-0.9c-0.1-0.3-0.3-0.6-0.6-0.9
					c-0.3-0.3-0.6-0.5-0.9-0.6c-0.3-0.1-0.6-0.1-0.9-0.1c-0.3,0-0.6,0.1-0.9,0.3c-0.3,0.2-0.6,0.4-0.9,0.7l-0.8,0.8L170.9,190.5z"/>
				<path fill="#FFFFFF" d="M185.9,185.4l-1.1,1.2l-7.6-7.5l-1.5,3.3l-1.1-1l2.1-4.8l0.1-0.1L185.9,185.4z"/>
				<path fill="#FFFFFF" d="M185.7,176.6l-4.1-4.9l4.6-4.7l1.1,1.1l-3.7,3.7l2.2,2.7c0.1-0.3,0.2-0.6,0.4-0.9c0.2-0.3,0.4-0.7,0.7-1
					c0.4-0.4,0.9-0.7,1.3-0.9c0.5-0.2,1-0.3,1.5-0.2c0.5,0,1,0.2,1.5,0.4c0.5,0.2,1,0.6,1.4,1c0.4,0.4,0.8,0.9,1,1.4
					c0.3,0.5,0.4,1,0.4,1.5c0,0.5,0,1-0.3,1.5c-0.2,0.5-0.5,1-1,1.5c-0.4,0.4-0.8,0.7-1.2,0.9s-0.9,0.4-1.3,0.4
					c-0.5,0-0.9,0-1.4-0.1c-0.5-0.1-0.9-0.4-1.4-0.8l1.1-1.1c0.6,0.4,1.2,0.6,1.7,0.6c0.6,0,1.1-0.3,1.6-0.8
					c0.3-0.3,0.5-0.6,0.6-0.9c0.1-0.3,0.2-0.6,0.1-0.9c0-0.3-0.1-0.6-0.3-1s-0.4-0.6-0.7-1c-0.3-0.3-0.6-0.5-0.9-0.7
					c-0.3-0.2-0.7-0.3-1-0.3c-0.3,0-0.7,0-1,0.1c-0.3,0.1-0.6,0.3-0.9,0.6c-0.2,0.2-0.3,0.4-0.5,0.5c-0.1,0.2-0.2,0.3-0.3,0.5
					c-0.1,0.2-0.1,0.3-0.1,0.5c0,0.2,0,0.3-0.1,0.5L185.7,176.6z"/>
			</g>
		</g>
		<g display="inline">
			<g>
				<path fill="#FFFFFF" d="M437,36.6h-3.1l-9.4-18.1l0,18.1h-3.1V12.4h3.1l9.4,18l0-18h3.1V36.6z"/>
			</g>
			<g>
				<path fill="#FFFFFF" d="M434.4,839.6c0-0.7-0.2-1.4-0.5-1.9c-0.3-0.5-0.8-0.9-1.3-1.3s-1.1-0.6-1.8-0.9
					c-0.6-0.2-1.2-0.4-1.8-0.6c-0.9-0.3-1.7-0.6-2.6-1c-0.9-0.4-1.7-0.9-2.4-1.4c-0.7-0.6-1.3-1.2-1.8-2c-0.5-0.8-0.7-1.7-0.7-2.7
					c0-1,0.2-2,0.7-2.8c0.5-0.8,1.1-1.5,1.8-2.1s1.6-1,2.5-1.3s1.9-0.4,2.8-0.4c1.1,0,2.1,0.2,3,0.5s1.8,0.8,2.6,1.5
					s1.4,1.4,1.8,2.3s0.7,1.9,0.7,3h-3.2c-0.1-0.7-0.3-1.3-0.5-1.9s-0.6-1.1-1-1.5c-0.4-0.4-0.9-0.7-1.5-1c-0.6-0.2-1.2-0.3-2-0.3
					c-0.6,0-1.2,0.1-1.7,0.2c-0.6,0.2-1.1,0.4-1.5,0.7c-0.4,0.3-0.8,0.7-1,1.2c-0.3,0.5-0.4,1.1-0.4,1.7c0,0.7,0.2,1.3,0.5,1.8
					s0.8,0.9,1.3,1.2c0.5,0.3,1.1,0.6,1.7,0.8c0.6,0.2,1.2,0.4,1.7,0.6c0.6,0.2,1.2,0.4,1.8,0.6s1.2,0.5,1.8,0.8
					c0.6,0.3,1.1,0.7,1.6,1c0.5,0.4,0.9,0.8,1.3,1.3s0.7,1,0.9,1.6c0.2,0.6,0.3,1.2,0.3,2c0,1.1-0.2,2-0.7,2.8
					c-0.5,0.8-1.1,1.5-1.9,2s-1.6,0.9-2.6,1.2c-1,0.3-1.9,0.4-2.9,0.4c-1.1,0-2.1-0.2-3.2-0.5s-2-0.8-2.8-1.4
					c-0.8-0.6-1.5-1.4-2-2.3s-0.8-1.9-0.8-3.1h3.1c0.1,0.8,0.3,1.4,0.6,2s0.7,1.1,1.2,1.5s1,0.7,1.7,0.9c0.6,0.2,1.3,0.3,2.1,0.3
					c0.6,0,1.2-0.1,1.8-0.2c0.6-0.1,1.1-0.4,1.6-0.7s0.8-0.7,1.1-1.2S434.4,840.2,434.4,839.6z"/>
			</g>
		</g>
		<g display="inline">
			<g>
				<path fill="#FFFFFF" d="M836.9,430.1h-10.1v8.6h11.8v2.6h-14.8v-24.2h14.7v2.6h-11.6v7.8h10.1V430.1z"/>
			</g>
			<g>
				<path fill="#FFFFFF" d="M33.5,434.8l1.8-17.6h2.9l-2.9,24.2h-3.1L29,423.1l-3.1,18.2h-3.2l-2.9-24.2h2.9l1.8,17.6l3.1-17.6h2.7
					L33.5,434.8z"/>
			</g>
		</g>
	</g>
</g>
</svg>
