<svg version="1.2" xmlns="http://www.w3.org/2000/svg" viewBox="0 0 859 859" width="859" height="859">
	<title>CompassHalf2-svg</title>
	<style>
		.s0 { fill: none;stroke: #ffffff;stroke-width: 2 } 
		.s1 { fill: none;stroke: #ffffff;stroke-width: 4.5 } 
		.s2 { fill: #ffffff } 
	</style>
	<g id="halfed_white">
		<g id="Layer">
			<path id="outer_00000098919107735812988440000017831318481890340526_" fill-rule="evenodd" class="s0" d="m-310.9 56.2l-24.7 4.4m38.9 48.6l-23.6 8.6m46.9 41.2l-21.7 12.5m53.2 32.5l-19.2 16.1m58 22.7l-16.1 19.2m61.1 12.3l-12.6 21.7m62.3 1.5l-8.6 23.6m61.7-9.4l-4.4 24.7m59.1-19.9v25.1m0-655.2v-25.1m-54.7 29.9l-4.4-24.7m-48.7 38.9l-8.6-23.6m-41.1 46.8l-12.5-21.7m-32.5 53.2l-16.1-19.2m-22.7 58l-19.2-16.1m-12.3 61.1l-21.7-12.5m-1.6 62.3l-23.6-8.6m9.4 61.7l-24.7-4.4m19.9 59.1h-25.1m26.3 27.4l-17.7 1.5m27.3 52.6l-17.1 4.6m35.9 47l-16.1 7.5m43.5 40.1l-14.5 10.2m49.8 31.8l-12.5 12.5m54.6 22.8l-10.2 14.5m57.7 13l-7.5 16.1m59.2 2.7l-4.6 17.1m58.6-7.6l-1.5 17.7m1.5-645.4l-1.5-17.7m-52.5 27.2l-4.6-17.1m-47.1 35.9l-7.5-16.1m-40 43.6l-10.2-14.5m-31.9 49.8l-12.5-12.5m-22.8 54.6l-14.5-10.2m-12.9 57.7l-16.1-7.5m-2.7 59.1l-17.1-4.6m7.5 58.7l-17.7-1.5m16.6 34.5l-10.4 0.2m10.5 5.3l-10.4 0.4m10.7 5.1l-10.4 0.5m10.7 4.9l-10.4 0.7m11.4 10.3l-10.3 1.1m10.9 4.4l-10.3 1.3m11 4.1l-10.3 1.4m11.1 4l-10.3 1.6m12.2 9.3l-10.2 2m11.3 3.4l-10.2 2.2m11.4 3.1l-10.1 2.3m11.4 3.1l-10.1 2.5m12.9 8.1l-10 2.9m11.6 2.4l-10 3m11.7 2.2l-9.9 3.2m11.6 2l-9.8 3.4m13.6 7l-9.7 3.7m11.7 1.4l-9.6 3.9m11.7 1.2l-9.6 4.1m11.8 0.9l-9.5 4.2m14.1 5.8l-9.4 4.6m11.9 0.3l-9.3 4.7m11.8 0.2l-9.2 4.9m11.8-0.1l-9.1 5m14.6 4.5l-8.9 5.4m11.8-0.7l-8.8 5.5m11.8-0.8l-8.7 5.7m11.7-1.2l-8.6 5.8m14.9 3.2l-8.4 6.1m11.7-1.6l-8.3 6.3m11.6-2l-8.2 6.4m11.7-2.1l-8.1 6.5m15.1 2l-7.9 6.8m11.6-2.7l-7.7 7m11.4-3l-7.6 7.1m11.4-3.1l-7.5 7.2m15.2 0.6l-7.2 7.5m11.2-3.7l-7.1 7.6m11.2-3.9l-7 7.7m11.1-4.1l-6.8 7.9m15.2-0.8l-6.5 8.1m10.8-4.7l-6.4 8.2m10.8-4.8l-6.3 8.3m10.7-5.1l-6.1 8.4m15.1-2l-5.8 8.6m10.4-5.6l-5.7 8.7m10.3-5.8l-5.5 8.8m10.2-5.9l-5.4 8.9m15-3.4l-5 9.1m9.8-6.5l-4.9 9.2m9.8-6.6l-4.7 9.3m9.6-6.9l-4.6 9.4m14.6-4.7l-4.2 9.5m9.2-7.3l-4.1 9.6m9.2-7.5l-3.9 9.6m9-7.6l-3.7 9.7m14-5.9l-3.4 9.8m8.6-8.1l-3.2 9.9m8.5-8.2l-3 10m8.3-8.5l-2.9 10m13.5-7.1l-2.5 10.1m7.8-8.9l-2.3 10.1m7.7-8.9l-2.2 10.2m7.6-9.1l-2 10.2m12.8-8.3l-1.6 10.3m7.1-9.4l-1.4 10.3m6.8-9.6l-1.3 10.3m6.8-9.7l-1.1 10.3m12-9.4l-0.7 10.4m6.2-10l-0.5 10.4m6-10.2l-0.4 10.4m5.9-10.2l-0.2 10.4m0.2-640.4l-0.2-10.4m-5.3 10.5l-0.4-10.4m-5.1 10.6l-0.5-10.4m-5 10.8l-0.7-10.4m-10.2 11.3l-1.1-10.3m-4.4 11l-1.3-10.3m-4.1 11l-1.4-10.3m-4.1 11.1l-1.6-10.3m-9.2 12.2l-2-10.2m-3.4 11.3l-2.2-10.2m-3.2 11.4l-2.3-10.1m-3 11.4l-2.5-10.1m-8.1 12.9l-2.9-10m-2.4 11.6l-3-10m-2.3 11.6l-3.2-9.9m-2 11.7l-3.4-9.8m-6.9 13.5l-3.7-9.7m-1.4 11.7l-3.9-9.6m-1.2 11.8l-4.1-9.6m-0.9 11.7l-4.2-9.5m-5.8 14.2l-4.6-9.4m-0.3 11.8l-4.7-9.3m-0.2 11.9l-4.9-9.2m0.1 11.8l-5-9.1m-4.6 14.6l-5.4-8.9m0.7 11.8l-5.5-8.8m0.9 11.7l-5.7-8.7m1.1 11.8l-5.8-8.6m-3.2 14.9l-6.1-8.4m1.7 11.6l-6.3-8.3m1.9 11.7l-6.4-8.2m2.1 11.6l-6.5-8.1m-1.9 15.2l-6.8-7.9m2.7 11.5l-7-7.7m2.9 11.4l-7.1-7.6m3.1 11.4l-7.2-7.5m-0.5 15.3l-7.5-7.2m3.7 11.2l-7.6-7.1m3.9 11.1l-7.7-7m4 11.2l-7.9-6.8m0.9 15.2l-8.1-6.5m4.6 10.8l-8.2-6.4m4.9 10.8l-8.3-6.3m5 10.7l-8.4-6.1m2.1 15.1l-8.6-5.8m5.6 10.4l-8.7-5.7m5.7 10.3l-8.8-5.5m5.9 10.2l-8.9-5.4m3.4 14.9l-9.1-5m6.5 9.9l-9.2-4.9m6.7 9.7l-9.3-4.7m6.8 9.7l-9.4-4.6m4.8 14.5l-9.5-4.2m7.3 9.3l-9.6-4.1m7.5 9.1l-9.6-3.9m7.6 9.1l-9.7-3.7m5.9 14l-9.8-3.4m8.1 8.6l-9.9-3.2m8.2 8.4l-10-3m8.4 8.3l-10-2.9m7.2 13.5l-10.1-2.5m8.8 7.9l-10.1-2.3m8.9 7.7l-10.2-2.2m9.1 7.5l-10.2-2m8.3 12.9l-10.3-1.6m9.5 7l-10.3-1.4m9.6 6.9l-10.3-1.3m9.7 6.7l-10.3-1.1m9.3 12.1l-10.4-0.7m10.1 6.2l-10.4-0.5m10.1 6l-10.4-0.4m10.3 5.9l-10.4-0.2"/>
		
			<g id="numbers">
				<g id="Layer">
					<path id="Layer" fill-rule="evenodd" class="s2" d="m-8.2-345.4c0.6 0 1.1-0.1 1.5-0.2 0.4-0.1 0.8-0.2 1.1-0.4 0.3-0.2 0.6-0.4 0.8-0.7 0.2-0.3 0.4-0.5 0.5-0.8 0.1-0.3 0.2-0.6 0.3-1 0.1-0.3 0.1-0.7 0.1-1-0.1 0.2-0.3 0.3-0.5 0.5-0.2 0.2-0.4 0.3-0.6 0.4-0.2 0.1-0.5 0.2-0.8 0.3-0.3 0.1-0.6 0.1-0.9 0.1-0.6 0-1.2-0.1-1.6-0.4-0.5-0.2-0.8-0.6-1.1-1-0.3-0.4-0.5-0.9-0.7-1.4-0.2-0.5-0.2-1-0.2-1.5 0-0.6 0.1-1.2 0.2-1.7 0.2-0.5 0.4-1 0.7-1.4 0.3-0.4 0.7-0.7 1.2-1 0.5-0.2 1.1-0.4 1.7-0.4 0.5 0 0.9 0.1 1.3 0.2 0.4 0.1 0.7 0.3 1 0.6 0.3 0.2 0.6 0.5 0.8 0.9 0.2 0.3 0.4 0.7 0.5 1.1q0.1 0.6 0.3 1.2c0.1 0.4 0.1 0.8 0.1 1.3v0.6c0 0.5 0 1.1-0.1 1.7-0.1 0.6-0.2 1.1-0.3 1.7-0.2 0.5-0.4 1-0.7 1.5-0.3 0.5-0.6 0.9-1.1 1.2-0.5 0.3-1 0.6-1.6 0.8-0.6 0.2-1.4 0.3-2.3 0.3h-0.2v-1.5zm2-4.2c0.3 0 0.5 0 0.8-0.1 0.3-0.1 0.5-0.2 0.7-0.4q0.3-0.3 0.6-0.6c0.2-0.2 0.3-0.5 0.4-0.8v-0.5c0-0.6-0.1-1.1-0.2-1.5-0.1-0.4-0.3-0.8-0.5-1.1-0.2-0.3-0.5-0.5-0.8-0.7-0.3-0.2-0.6-0.2-0.9-0.2-0.4 0-0.7 0.1-1 0.2-0.3 0.1-0.5 0.4-0.7 0.6-0.2 0.3-0.4 0.6-0.5 0.9-0.1 0.3-0.2 0.8-0.2 1.2 0 0.4 0 0.7 0.1 1.1 0.1 0.4 0.2 0.7 0.4 1 0.2 0.3 0.4 0.5 0.7 0.7 0.4 0.1 0.7 0.2 1.1 0.2z"/>
					<path id="Layer" fill-rule="evenodd" class="s2" d="m8.9-348.9c0 0.8-0.1 1.5-0.3 2.2-0.2 0.7-0.5 1.2-0.8 1.6-0.4 0.4-0.8 0.8-1.3 1-0.5 0.2-1.1 0.3-1.7 0.3-0.7 0-1.2-0.1-1.7-0.3-0.5-0.2-0.9-0.5-1.3-1-0.4-0.4-0.6-1-0.8-1.6-0.2-0.6-0.3-1.4-0.3-2.2v-3c0-0.8 0.1-1.5 0.3-2.2 0.2-0.7 0.5-1.2 0.8-1.6 0.4-0.4 0.8-0.8 1.3-1 0.5-0.2 1.1-0.3 1.7-0.3 0.7 0 1.2 0.1 1.8 0.3 0.5 0.2 0.9 0.6 1.3 1 0.4 0.4 0.6 1 0.8 1.6 0.2 0.6 0.3 1.4 0.3 2.2v3zm-1.6-2.6l-5 3.8c0.1 0.8 0.4 1.5 0.8 1.9 0.4 0.4 1 0.7 1.7 0.7 0.9 0 1.5-0.3 1.9-0.9 0.4-0.6 0.6-1.4 0.6-2.5zm0-1.5c-0.1-0.8-0.3-1.5-0.7-1.9-0.4-0.4-1-0.7-1.7-0.7-0.9 0-1.5 0.3-1.9 0.9-0.4 0.6-0.6 1.4-0.6 2.5v2.9zm-4.9 3.8v-0.1l-0.1 0.1z"/>
				</g>
				<g id="Layer">
					<path id="Layer" class="s2" d="m7.3 351.3h6.7v1.3h-6.7z"/>
					<path id="Layer" fill-rule="evenodd" class="s2" d="m1.9 347.9c-0.6 0-1.1 0.1-1.5 0.2-0.4 0.1-0.8 0.2-1.1 0.4-0.3 0.2-0.6 0.4-0.8 0.7-0.2 0.3-0.4 0.5-0.5 0.8-0.1 0.3-0.2 0.6-0.3 1-0.1 0.3-0.1 0.7-0.1 1 0.1-0.2 0.3-0.3 0.5-0.5 0.2-0.2 0.4-0.3 0.6-0.4 0.2-0.1 0.5-0.2 0.8-0.3 0.3-0.1 0.6-0.1 0.9-0.1 0.6 0 1.2 0.1 1.6 0.4 0.5 0.2 0.8 0.6 1.1 1 0.3 0.4 0.5 0.9 0.7 1.4 0.2 0.5 0.2 1 0.2 1.5 0 0.6-0.1 1.2-0.3 1.7-0.2 0.5-0.4 1-0.7 1.4-0.3 0.4-0.7 0.7-1.2 1-0.5 0.2-1.1 0.4-1.7 0.4-0.5 0-0.9-0.1-1.3-0.2-0.4-0.1-0.7-0.3-1-0.6-0.3-0.2-0.6-0.5-0.8-0.9-0.2-0.3-0.4-0.7-0.5-1.1q-0.1-0.6-0.3-1.2c-0.1-0.4-0.1-0.8-0.1-1.3v-0.6c0-0.5 0-1.1 0.1-1.7 0.1-0.6 0.2-1.1 0.3-1.7 0.2-0.5 0.4-1 0.7-1.5 0.3-0.5 0.6-0.9 1.1-1.2 0.5-0.3 1-0.6 1.6-0.8 0.6-0.2 1.4-0.3 2.3-0.3h0.2v1.5zm-2 4.1c-0.3 0-0.5 0-0.8 0.1-0.3 0.1-0.5 0.2-0.7 0.4q-0.3 0.3-0.6 0.6c-0.2 0.2-0.3 0.5-0.4 0.8v0.5c0 0.6 0.1 1.1 0.2 1.5 0.1 0.4 0.3 0.8 0.5 1.1 0.2 0.3 0.5 0.5 0.8 0.7 0.3 0.2 0.6 0.2 0.9 0.2 0.4 0 0.7-0.1 1-0.2 0.3-0.1 0.5-0.4 0.7-0.6 0.2-0.3 0.4-0.6 0.5-0.9 0.1-0.3 0.2-0.8 0.2-1.2 0-0.4 0-0.7-0.1-1.1-0.1-0.4-0.2-0.7-0.4-1-0.2-0.3-0.4-0.5-0.7-0.7-0.4-0.1-0.7-0.2-1.1-0.2z"/>
					<path id="Layer" fill-rule="evenodd" class="s2" d="m-15.2 351.3c0-0.8 0.1-1.5 0.3-2.2 0.2-0.7 0.5-1.2 0.8-1.6 0.4-0.4 0.8-0.8 1.3-1 0.5-0.2 1.1-0.3 1.7-0.3 0.7 0 1.2 0.1 1.7 0.3 0.5 0.2 0.9 0.5 1.3 1 0.4 0.4 0.6 1 0.8 1.6 0.2 0.6 0.3 1.4 0.3 2.2v3c0 0.8-0.1 1.5-0.3 2.2-0.2 0.7-0.5 1.2-0.8 1.6-0.4 0.4-0.8 0.8-1.3 1-0.5 0.2-1.1 0.3-1.7 0.3-0.7 0-1.2-0.1-1.8-0.3-0.5-0.2-0.9-0.6-1.3-1-0.4-0.4-0.6-1-0.8-1.6-0.2-0.6-0.3-1.4-0.3-2.2v-3zm1.6 2.6l5-3.8c-0.1-0.8-0.4-1.5-0.8-1.9-0.4-0.4-1-0.7-1.7-0.7-0.9 0-1.5 0.3-1.9 0.9-0.4 0.6-0.6 1.4-0.6 2.5zm4.9-2.3v0.1l0.1-0.1zm-4.9 3.8c0.1 0.8 0.3 1.5 0.7 1.9 0.4 0.4 1 0.7 1.7 0.7 0.9 0 1.5-0.3 1.9-0.9 0.4-0.6 0.6-1.4 0.6-2.5v-2.9z"/>
				</g>
				<g id="Layer">
					<path id="Layer" class="s2" d="m-168.3 308l5.8 3.4-0.7 1.2-5.8-3.4z"/>
					<path id="Layer" fill-rule="evenodd" class="s2" d="m-180.6 310l0.7-1.3 0.1 0.1c0.5 0.3 0.9 0.5 1.3 0.6 0.4 0.1 0.8 0.2 1.2 0.2 0.4 0 0.7-0.1 1.1-0.2 0.3-0.1 0.6-0.3 0.9-0.5 0.3-0.2 0.6-0.4 0.8-0.7 0.2-0.3 0.5-0.5 0.7-0.8-0.2 0.1-0.5 0.1-0.7 0.2-0.2 0.1-0.5 0-0.8 0-0.3 0-0.5-0.1-0.8-0.1-0.3-0.1-0.5-0.2-0.8-0.3-0.6-0.3-1-0.7-1.2-1.1-0.3-0.4-0.4-0.9-0.5-1.4-0.1-0.5 0-1 0.1-1.5 0.1-0.5 0.3-1 0.6-1.4 0.3-0.5 0.7-1 1.1-1.3 0.4-0.3 0.9-0.6 1.3-0.8 0.5-0.2 1-0.2 1.5-0.2 0.5 0 1.1 0.2 1.7 0.6 0.4 0.2 0.7 0.5 1 0.8 0.3 0.3 0.5 0.6 0.6 1 0.1 0.4 0.2 0.7 0.3 1.1 0.1 0.4 0 0.8 0 1.2-0.1 0.4-0.1 0.8-0.3 1.2-0.1 0.4-0.3 0.7-0.5 1.1l-0.4 0.7c-0.3 0.5-0.6 1-1 1.5-0.4 0.5-0.7 0.9-1.2 1.3-0.5 0.4-0.9 0.7-1.4 1-0.5 0.3-1 0.4-1.6 0.5-0.6 0.1-1.2 0-1.8-0.1-0.6-0.1-1.3-0.4-2.1-0.8zm4.7-3.9c0.2 0.1 0.5 0.2 0.8 0.3 0.3 0.1 0.5 0.1 0.8 0 0.3 0 0.5-0.1 0.8-0.2 0.3-0.1 0.5-0.3 0.7-0.4l0.3-0.5c0.3-0.5 0.5-1 0.6-1.4 0.1-0.4 0.1-0.9 0.1-1.2 0-0.4-0.2-0.7-0.3-1-0.2-0.3-0.4-0.5-0.7-0.7-0.3-0.2-0.7-0.3-1-0.3-0.3 0-0.6 0-0.9 0.2q-0.4 0.2-0.9 0.6c-0.3 0.3-0.5 0.6-0.7 0.9-0.2 0.3-0.3 0.7-0.4 1-0.1 0.4-0.1 0.7-0.1 1q0 0.5 0.3 0.9c0 0.3 0.3 0.6 0.6 0.8z"/>
					<path id="Layer" fill-rule="evenodd" class="s2" d="m-187.8 296.7c0.4-0.7 0.8-1.3 1.3-1.7 0.5-0.5 1-0.8 1.5-1 0.5-0.2 1.1-0.3 1.6-0.2 0.6 0.1 1.1 0.3 1.7 0.6 0.6 0.3 1 0.7 1.3 1.2q0.5 0.8 0.6 1.5c0.1 0.6 0.1 1.1-0.1 1.8-0.2 0.7-0.4 1.3-0.8 2l-1.5 2.6c-0.4 0.7-0.8 1.3-1.3 1.7-0.5 0.5-1 0.8-1.5 1-0.5 0.2-1.1 0.3-1.6 0.2-0.6-0.1-1.1-0.3-1.7-0.6-0.6-0.3-1-0.7-1.3-1.2q-0.4-0.7-0.6-1.5c-0.1-0.6-0.1-1.1 0.1-1.8 0.2-0.6 0.4-1.3 0.8-2zm5.6 3.6l-6.2 0.8c-0.3 0.8-0.5 1.5-0.3 2 0.1 0.6 0.5 1.1 1.2 1.4 0.7 0.4 1.4 0.5 2.1 0.2 0.6-0.3 1.2-0.9 1.8-1.9zm-5.5-0.5l6.2-0.8c0.3-0.8 0.4-1.4 0.3-2-0.1-0.6-0.5-1.1-1.2-1.4-0.7-0.4-1.4-0.5-2.1-0.2-0.7 0.3-1.2 0.9-1.8 1.9z"/>
				</g>
				<g id="Layer">
					<path id="Layer" class="s2" d="m-299.3 185.8l3.4 5.8-1.2 0.7-3.4-5.8z"/>
					<path id="Layer" class="s2" d="m-304 182.1l-0.6-1c-0.2-0.4-0.4-0.6-0.7-0.9-0.3-0.2-0.5-0.4-0.8-0.5-0.3-0.1-0.6-0.1-0.8-0.1-0.2 0-0.6 0.1-0.9 0.3-0.6 0.4-1 0.8-1.2 1.3-0.1 0.5 0 1.1 0.3 1.7 0.2 0.3 0.4 0.5 0.6 0.7 0.2 0.2 0.5 0.3 0.7 0.4 0.2 0.1 0.5 0.1 0.8 0.1q0.5 0 0.9-0.3l0.8 1.4c-0.4 0.2-0.9 0.4-1.3 0.4-0.5 0.1-0.9 0-1.4-0.1-0.5-0.1-0.9-0.4-1.3-0.7-0.4-0.3-0.8-0.7-1-1.3q-0.4-0.7-0.6-1.5c-0.1-0.5-0.1-1 0-1.4 0.1-0.4 0.3-0.9 0.6-1.3 0.3-0.4 0.7-0.7 1.2-1 0.2-0.1 0.5-0.2 0.7-0.3 0.3-0.1 0.5-0.1 0.8-0.1 0.3 0 0.6 0.1 0.9 0.2 0.3 0.1 0.6 0.3 0.9 0.5-0.1-0.4-0.1-0.8-0.1-1.2 0-0.3 0.1-0.7 0.3-0.9 0.2-0.3 0.3-0.5 0.6-0.7 0.2-0.2 0.5-0.4 0.7-0.5 0.5-0.3 1-0.5 1.5-0.5 0.5 0 1 0 1.4 0.2 0.5 0.2 0.9 0.4 1.3 0.7 0.4 0.3 0.7 0.8 1 1.3q0.5 0.8 0.6 1.5 0.2 0.8 0 1.5c-0.1 0.5-0.3 0.9-0.5 1.3-0.2 0.4-0.7 0.7-1.1 1l-0.8-1.4c0.3-0.2 0.5-0.4 0.7-0.6 0.2-0.2 0.3-0.5 0.4-0.8q0.1-0.4 0-0.9c-0.1-0.3-0.2-0.6-0.4-1-0.2-0.3-0.4-0.6-0.6-0.8-0.2-0.2-0.5-0.4-0.8-0.4-0.3-0.1-0.6-0.1-0.9-0.1-0.3 0-0.6 0.2-1 0.4-0.3 0.2-0.6 0.4-0.8 0.7-0.2 0.3-0.3 0.5-0.4 0.8 0 0.3 0 0.6 0.1 1 0.1 0.3 0.2 0.7 0.4 1l0.6 1z"/>
					<path id="Layer" fill-rule="evenodd" class="s2" d="m-310.5 166.2c0.7-0.4 1.4-0.7 2-0.8 0.6-0.2 1.2-0.2 1.8-0.1q0.8 0.2 1.5 0.6c0.4 0.3 0.8 0.8 1.2 1.3 0.3 0.6 0.5 1.1 0.6 1.7 0.1 0.6 0 1.1-0.2 1.6-0.2 0.5-0.5 1-1 1.5-0.5 0.5-1 0.9-1.7 1.3l-2.6 1.5c-0.7 0.4-1.4 0.7-2 0.8-0.6 0.2-1.2 0.2-1.8 0.1q-0.9-0.1-1.5-0.6c-0.5-0.3-0.8-0.8-1.2-1.3-0.3-0.6-0.5-1.1-0.6-1.7-0.1-0.6 0-1.1 0.2-1.6 0.2-0.5 0.5-1 1-1.5 0.5-0.5 1-0.9 1.7-1.3zm3 6l-5.8-2.4c-0.7 0.5-1.1 1-1.3 1.6q-0.3 0.9 0.3 1.8c0.4 0.7 1 1.1 1.7 1.2 0.7 0.1 1.5-0.2 2.5-0.7zm-4.4-3.2l5.8 2.4c0.7-0.5 1.1-1 1.3-1.6q0.3-0.9-0.3-1.8c-0.4-0.7-1-1.1-1.7-1.2-0.7-0.1-1.5 0.2-2.5 0.7z"/>
				</g>
				<g id="Layer">
					<path id="Layer" fill-rule="evenodd" class="s2" d="m-350.7-2.7c0.8 0 1.5 0.1 2.2 0.3 0.7 0.2 1.2 0.5 1.6 0.8 0.4 0.4 0.8 0.8 1 1.3q0.3 0.8 0.3 1.8c0 0.7-0.1 1.2-0.3 1.7-0.2 0.5-0.5 0.9-1 1.3-0.4 0.4-1 0.6-1.6 0.8-0.6 0.2-1.4 0.3-2.2 0.3h-3c-0.8 0-1.5-0.1-2.2-0.3-0.7-0.2-1.2-0.5-1.6-0.8-0.4-0.3-0.8-0.8-1-1.3-0.2-0.5-0.3-1.1-0.3-1.7 0-0.7 0.1-1.2 0.3-1.8 0.2-0.6 0.6-0.9 1-1.3 0.4-0.4 1-0.6 1.6-0.8 0.6-0.2 1.4-0.3 2.2-0.3zm-0.3 6.6h-0.1l0.1 0.1zm-3.8-4.9c-0.8 0.1-1.5 0.3-1.9 0.7-0.4 0.4-0.7 1-0.7 1.7 0 0.9 0.3 1.5 0.9 1.9 0.6 0.4 1.4 0.6 2.5 0.6h2.9zm1.5 0l3.8 5c0.8-0.1 1.5-0.4 1.9-0.8 0.4-0.4 0.7-1 0.7-1.7 0-0.9-0.3-1.5-0.9-1.9-0.6-0.4-1.4-0.6-2.5-0.6z"/>
				</g>
				<g id="Layer">
					<path id="Layer" class="s2" d="m-311.1-169.8l0.6-1c0.2-0.4 0.3-0.7 0.4-1q0.2-0.4 0-0.9c-0.1-0.3-0.2-0.5-0.4-0.8-0.2-0.2-0.4-0.4-0.7-0.6-0.6-0.4-1.2-0.5-1.7-0.3-0.5 0.1-1 0.5-1.3 1.2q-0.3 0.5-0.3 0.9c-0.1 0.3 0 0.6 0 0.9 0 0.3 0.2 0.5 0.4 0.8 0.2 0.2 0.4 0.4 0.7 0.6l-0.8 1.4c-0.4-0.2-0.8-0.6-1-0.9-0.3-0.4-0.5-0.8-0.6-1.3-0.1-0.5-0.1-0.9 0-1.5q0.1-0.8 0.6-1.5c0.3-0.5 0.6-0.9 1-1.2 0.4-0.3 0.8-0.6 1.2-0.7 0.4-0.1 0.9-0.2 1.4-0.1 0.5 0.1 1 0.2 1.5 0.5 0.2 0.1 0.4 0.3 0.6 0.5 0.2 0.2 0.4 0.4 0.5 0.7q0.2 0.5 0.3 0.9c0.1 0.3 0.1 0.7 0 1 0.3-0.3 0.7-0.5 1-0.6 0.3-0.1 0.6-0.2 1-0.2 0.3 0 0.6 0 0.9 0.1 0.3 0.1 0.6 0.2 0.8 0.4 0.5 0.3 0.9 0.7 1.2 1.1 0.3 0.4 0.5 0.9 0.6 1.3q0.1 0.8 0 1.5-0.1 0.8-0.6 1.5c-0.3 0.5-0.6 0.9-1 1.3-0.4 0.4-0.8 0.6-1.2 0.8-0.4 0.2-0.9 0.2-1.4 0.2-0.5 0-1-0.2-1.5-0.5l0.8-1.4q0.5 0.3 0.9 0.3c0.3 0 0.6 0 0.9-0.1 0.3-0.1 0.5-0.2 0.8-0.4 0.3-0.2 0.5-0.5 0.6-0.8 0.2-0.3 0.3-0.6 0.4-0.9q0.1-0.4 0-0.9c-0.1-0.3-0.2-0.5-0.4-0.8-0.2-0.2-0.5-0.5-0.8-0.7-0.3-0.2-0.7-0.3-1-0.3-0.3 0-0.6 0-0.9 0.1-0.3 0.1-0.6 0.3-0.8 0.5-0.2 0.2-0.5 0.5-0.7 0.9l-0.6 1z"/>
					<path id="Layer" fill-rule="evenodd" class="s2" d="m-300.7-183.3c0.7 0.4 1.3 0.8 1.7 1.3 0.5 0.5 0.8 1 1 1.5 0.2 0.5 0.3 1.1 0.2 1.6-0.1 0.6-0.3 1.1-0.6 1.7-0.3 0.6-0.7 1-1.2 1.3-0.5 0.3-0.9 0.5-1.5 0.6-0.6 0.1-1.1 0.1-1.8-0.1-0.7-0.2-1.3-0.4-2-0.8l-2.6-1.5c-0.7-0.4-1.3-0.8-1.7-1.3-0.5-0.5-0.8-1-1-1.5-0.2-0.5-0.3-1.1-0.2-1.6 0.1-0.6 0.3-1.1 0.6-1.7 0.3-0.6 0.7-1 1.2-1.3q0.7-0.4 1.5-0.6c0.6-0.1 1.1-0.1 1.8 0.1 0.6 0.2 1.3 0.4 2 0.8zm-3.6 5.6l-0.8-6.2c-0.8-0.3-1.5-0.5-2-0.3-0.6 0.1-1.1 0.5-1.4 1.2-0.4 0.7-0.5 1.4-0.2 2.1 0.3 0.6 0.9 1.2 1.9 1.8zm0.5-5.5l0.8 6.2c0.8 0.3 1.4 0.4 2 0.3 0.6-0.1 1.1-0.5 1.4-1.2 0.4-0.7 0.5-1.4 0.2-2.1-0.3-0.7-0.9-1.2-1.9-1.8z"/>
				</g>
				<g id="Layer">
					<path id="Layer" fill-rule="evenodd" class="s2" d="m-182.8-306.7l0.7 1.3-0.1 0.1q-0.8 0.4-1.2 0.9c-0.3 0.3-0.6 0.6-0.7 1-0.2 0.3-0.3 0.7-0.4 1-0.1 0.3-0.1 0.7-0.1 1 0 0.4 0.1 0.7 0.2 1 0.1 0.3 0.2 0.7 0.4 1 0-0.2 0.1-0.5 0.2-0.7 0.1-0.2 0.2-0.5 0.4-0.7 0.1-0.2 0.3-0.4 0.5-0.6 0.2-0.2 0.4-0.4 0.7-0.5 0.6-0.3 1.1-0.5 1.6-0.5q0.7 0 1.5 0.3c0.5 0.2 0.9 0.5 1.2 0.8 0.4 0.4 0.7 0.8 1 1.2 0.3 0.5 0.5 1 0.6 1.6 0.1 0.5 0.1 1.1 0 1.6-0.1 0.5-0.3 1-0.6 1.4-0.3 0.4-0.8 0.8-1.3 1.2-0.4 0.2-0.8 0.4-1.2 0.5q-0.6 0.1-1.2 0c-0.4 0-0.7-0.2-1.1-0.3-0.4-0.2-0.7-0.4-1-0.6-0.3-0.2-0.6-0.5-0.9-0.8-0.3-0.3-0.5-0.6-0.7-1l-0.4-0.7c-0.3-0.5-0.6-1-0.8-1.6-0.2-0.5-0.4-1.1-0.5-1.7-0.1-0.6-0.2-1.1-0.1-1.7 0-0.6 0.1-1.1 0.4-1.6 0.2-0.5 0.6-1 1-1.5 0.4-0.5 1-0.9 1.8-1.4zm1.1 6.1c-0.2 0.1-0.4 0.3-0.6 0.5-0.2 0.2-0.3 0.4-0.4 0.7-0.1 0.2-0.2 0.5-0.2 0.8 0 0.3 0 0.6 0 0.8l0.3 0.5q0.5 0.7 0.9 1.2c0.3 0.3 0.7 0.5 1 0.7 0.3 0.2 0.7 0.2 1 0.2q0.4 0 0.9-0.3c0.3-0.2 0.6-0.4 0.8-0.7q0.3-0.5 0.3-0.9c0-0.3 0-0.7-0.1-1-0.1-0.4-0.2-0.7-0.5-1.1-0.2-0.3-0.4-0.6-0.7-0.9-0.3-0.3-0.5-0.5-0.8-0.6-0.3-0.1-0.6-0.2-1-0.2-0.4 0-0.6 0.1-0.9 0.3z"/>
					<path id="Layer" fill-rule="evenodd" class="s2" d="m-167.7-306.3c0.4 0.7 0.7 1.4 0.8 2 0.2 0.6 0.2 1.2 0.1 1.8q-0.2 0.8-0.6 1.5c-0.3 0.5-0.8 0.8-1.3 1.2-0.6 0.3-1.1 0.5-1.7 0.6-0.6 0.1-1.1 0-1.6-0.2-0.5-0.2-1-0.5-1.5-1-0.5-0.5-0.9-1-1.3-1.7l-1.5-2.6c-0.4-0.7-0.7-1.4-0.8-2-0.1-0.6-0.2-1.2-0.1-1.8q0.1-0.9 0.6-1.5c0.3-0.5 0.8-0.8 1.3-1.2 0.6-0.3 1.1-0.5 1.7-0.6 0.6-0.1 1.1 0 1.6 0.2 0.5 0.2 1 0.5 1.5 1 0.5 0.5 0.9 1 1.3 1.7zm-5.9 3.1l2.4-5.8c-0.5-0.7-1-1.1-1.6-1.3q-0.9-0.3-1.8 0.3c-0.7 0.4-1.1 1-1.2 1.7-0.1 0.7 0.2 1.5 0.7 2.5zm3.2-4.5l-2.4 5.8c0.5 0.7 1 1.1 1.6 1.3q0.9 0.3 1.8-0.3c0.7-0.4 1.1-1 1.2-1.7 0.1-0.7-0.2-1.5-0.7-2.5z"/>
				</g>
				<g id="Layer">
					<path id="Layer" class="s2" d="m-93.8-343.4l-2 12.9-1.6 0.4 2.1-12.4-6.7 1.8-0.4-1.4 8.3-2.3z"/>
					<path id="Layer" class="s2" d="m-89.2-339l-1.1-6.3 6.3-1.7 0.4 1.5-5 1.4 0.5 3.4c0.2-0.2 0.5-0.4 0.8-0.6 0.3-0.2 0.7-0.4 1.1-0.5 0.6-0.2 1.1-0.2 1.6-0.1 0.5 0.1 1 0.2 1.4 0.5 0.4 0.3 0.8 0.6 1.1 1.1 0.3 0.5 0.5 1 0.7 1.6 0.2 0.6 0.2 1.2 0.2 1.7 0 0.5-0.1 1-0.4 1.5-0.2 0.5-0.5 0.8-1 1.2-0.4 0.3-1 0.6-1.6 0.8-0.5 0.1-1 0.2-1.5 0.2-0.5 0-0.9-0.1-1.4-0.3-0.4-0.2-0.8-0.5-1.1-0.8-0.3-0.4-0.6-0.8-0.8-1.4l1.5-0.4c0.3 0.7 0.7 1.1 1.2 1.4 0.5 0.3 1.1 0.3 1.8 0.1 0.4-0.1 0.7-0.3 0.9-0.5 0.3-0.2 0.4-0.5 0.6-0.8 0.1-0.3 0.2-0.6 0.2-1 0-0.4-0.1-0.8-0.2-1.2-0.1-0.4-0.3-0.7-0.5-1-0.2-0.3-0.4-0.5-0.7-0.7-0.3-0.2-0.6-0.3-0.9-0.4-0.3-0.1-0.7 0-1.1 0.1-0.3 0.1-0.5 0.2-0.7 0.2-0.2 0.1-0.3 0.2-0.5 0.3-0.2 0.1-0.3 0.2-0.4 0.4-0.1 0.1-0.2 0.3-0.3 0.4z"/>
				</g>
				<g id="Layer">
					<path id="Layer" class="s2" d="m-83.2 341.3l6.5 1.7-0.3 1.3-6.5-1.7z"/>
					<path id="Layer" class="s2" d="m-96.4 345l8.2-10.1 1.6 0.4-8 9.7 6.7 1.8-0.4 1.4-8.4-2.2z"/>
					<path id="Layer" class="s2" d="m-98.2 338.9l-2.2 6-6.3-1.7 0.4-1.5 5 1.3 1.2-3.2c-0.3 0.1-0.6 0.1-1 0.1-0.4 0-0.8 0-1.2-0.1-0.6-0.2-1.1-0.4-1.5-0.7-0.4-0.3-0.7-0.7-0.9-1.1-0.2-0.4-0.4-0.9-0.4-1.5 0-0.6 0-1.1 0.2-1.8 0.2-0.6 0.4-1.1 0.7-1.6 0.3-0.5 0.6-0.8 1.1-1.1 0.4-0.3 0.9-0.5 1.4-0.5 0.5 0 1.1 0 1.8 0.1 0.5 0.1 1 0.3 1.4 0.6 0.4 0.3 0.8 0.6 1 1 0.3 0.4 0.5 0.8 0.6 1.3 0.1 0.5 0.1 1 0 1.6l-1.5-0.4c0.1-0.7 0-1.3-0.4-1.8-0.3-0.5-0.8-0.8-1.5-1-0.4-0.1-0.7-0.1-1-0.1-0.3 0.1-0.6 0.2-0.9 0.4-0.3 0.2-0.5 0.5-0.7 0.8-0.2 0.3-0.3 0.7-0.5 1.1-0.1 0.4-0.1 0.8-0.1 1.1 0 0.4 0.1 0.7 0.2 1 0.1 0.3 0.4 0.6 0.6 0.8 0.3 0.2 0.6 0.4 1 0.5 0.3 0.1 0.5 0.1 0.7 0.1q0.3 0 0.6 0c0.2 0 0.3-0.1 0.5-0.1 0.2-0.1 0.3-0.1 0.5-0.2z"/>
				</g>
				<g id="Layer">
					<path id="Layer" class="s2" d="m-240.1 255l4.8 4.7-0.9 0.9-4.8-4.6z"/>
					<path id="Layer" fill-rule="evenodd" class="s2" d="m-246.9 247.3l-1.3-1.3 0.9-0.9 1.3 1.3 2.1-2.1 1.2 1.1-2.1 2.1 4.1 4.1-0.7 0.7-10.3 2.3-1.2-1.2zm4 4l-2.9-2.8-4.5 4.5 0.5-0.2z"/>
					<path id="Layer" class="s2" d="m-251.8 245.5l-4.9 4.1-4.7-4.6 1.1-1.1 3.7 3.7 2.7-2.2c-0.3-0.1-0.6-0.2-0.9-0.4-0.3-0.2-0.7-0.4-1-0.7-0.4-0.4-0.7-0.9-0.9-1.3-0.2-0.5-0.3-1-0.2-1.5 0-0.5 0.2-1 0.4-1.5 0.2-0.5 0.6-1 1-1.4 0.4-0.4 0.9-0.8 1.4-1 0.5-0.3 1-0.4 1.5-0.4 0.5 0 1 0 1.5 0.3 0.5 0.3 1 0.5 1.5 1q0.6 0.6 0.9 1.2c0.2 0.4 0.4 0.9 0.4 1.3 0.1 0.5 0 0.9-0.1 1.4-0.1 0.5-0.4 1-0.8 1.4l-1.1-1.1c0.4-0.6 0.6-1.2 0.6-1.7 0-0.6-0.3-1.1-0.8-1.6q-0.5-0.5-0.9-0.6c-0.3-0.1-0.6-0.2-0.9-0.1-0.3 0-0.6 0.1-1 0.3-0.3 0.2-0.6 0.4-1 0.7-0.3 0.3-0.5 0.6-0.7 0.9-0.2 0.3-0.3 0.7-0.3 1 0 0.3 0 0.7 0.1 1q0.2 0.4 0.6 0.9c0.2 0.2 0.4 0.3 0.5 0.5 0.2 0.1 0.3 0.2 0.5 0.3 0.2 0.1 0.3 0.1 0.5 0.1 0.2 0 0.3 0 0.5 0.1z"/>
				</g>
				<g id="Layer">
					<path id="Layer" class="s2" d="m-335.1 101.6l1.8 6.5-1.3 0.4-1.8-6.5z"/>
					<path id="Layer" class="s2" d="m-332.7 91.7l0.4 1.6-10.3 2.8 2.1 2.9-1.4 0.4-3.1-4.2v-0.1z"/>
					<path id="Layer" class="s2" d="m-340.5 87.5l-6.3 1.1-1.7-6.3 1.5-0.4 1.4 5 3.4-0.5c-0.2-0.2-0.4-0.5-0.6-0.8-0.2-0.3-0.4-0.7-0.5-1.1-0.2-0.6-0.2-1.1-0.1-1.6 0.1-0.5 0.2-1 0.5-1.4 0.3-0.4 0.6-0.8 1.1-1.1 0.5-0.3 1-0.5 1.6-0.7 0.6-0.2 1.2-0.2 1.7-0.2 0.5 0 1 0.1 1.5 0.4 0.5 0.2 0.8 0.5 1.2 1 0.3 0.4 0.6 1 0.8 1.6 0.1 0.5 0.2 1 0.2 1.5 0 0.5-0.1 0.9-0.3 1.4-0.2 0.4-0.5 0.8-0.8 1.1-0.4 0.3-0.8 0.6-1.4 0.8l-0.4-1.5c0.7-0.3 1.1-0.7 1.4-1.2 0.2-0.5 0.3-1.1 0.1-1.8-0.1-0.4-0.3-0.7-0.5-0.9-0.2-0.3-0.5-0.4-0.8-0.6-0.3-0.1-0.6-0.2-1-0.2-0.4 0-0.8 0.1-1.2 0.2-0.4 0.1-0.7 0.3-1 0.5-0.3 0.2-0.5 0.4-0.7 0.7-0.2 0.3-0.3 0.6-0.4 0.9-0.1 0.3 0 0.7 0.1 1.1 0.1 0.3 0.2 0.5 0.2 0.7 0 0.2 0.2 0.3 0.3 0.5 0.1 0.2 0.2 0.3 0.4 0.4 0.1 0.1 0.3 0.2 0.4 0.3z"/>
				</g>
				<g id="Layer">
					<path id="Layer" class="s2" d="m-336.1-83l-0.4 1.6-10.4-2.7 0.4 3.6-1.4-0.4-0.6-5.2v-0.1z"/>
					<path id="Layer" class="s2" d="m-340.8-90.5l-6-2.2 1.7-6.3 1.5 0.4-1.3 5 3.2 1.2c-0.1-0.3-0.1-0.6-0.1-1 0-0.4 0-0.8 0.2-1.2 0.2-0.6 0.4-1.1 0.7-1.5 0.3-0.4 0.7-0.7 1.1-0.9 0.4-0.2 0.9-0.4 1.5-0.4 0.6 0 1.1 0 1.8 0.2 0.6 0.2 1.1 0.4 1.6 0.7 0.5 0.3 0.8 0.6 1.1 1.1 0.3 0.4 0.5 0.9 0.5 1.4 0 0.5 0 1.1-0.1 1.8-0.1 0.5-0.3 1-0.6 1.4-0.3 0.4-0.6 0.8-1 1-0.4 0.3-0.8 0.5-1.3 0.6-0.5 0.1-1 0.1-1.6 0l0.4-1.5c0.7 0.1 1.3 0 1.8-0.4 0.5-0.3 0.8-0.8 1-1.5 0.1-0.4 0.1-0.7 0.1-1-0.1-0.3-0.2-0.6-0.4-0.9-0.2-0.3-0.5-0.5-0.8-0.7-0.3-0.2-0.7-0.3-1.1-0.5-0.4-0.1-0.8-0.1-1.1-0.1-0.4 0-0.7 0.1-1 0.3-0.3 0.1-0.6 0.4-0.8 0.6-0.2 0.3-0.4 0.6-0.5 1-0.1 0.3-0.1 0.5-0.1 0.7q0 0.3 0 0.6c0 0.2 0.1 0.3 0.1 0.5 0.1 0.2 0.1 0.3 0.2 0.5z"/>
				</g>
				<g id="Layer">
					<path id="Layer" fill-rule="evenodd" class="s2" d="m-249.4-245.2l1.3-1.3 0.9 0.9-1.3 1.3 2.1 2.1-1.1 1.2-2.1-2.1-4.1 4.1-0.7-0.7-2.3-10.3 1.2-1.2zm-4 4l2.8-2.9-4.5-4.5 0.2 0.5z"/>
					<path id="Layer" class="s2" d="m-247.6-250.1l-4.1-4.9 4.6-4.7 1.1 1.1-3.7 3.7 2.2 2.7c0.1-0.3 0.2-0.6 0.4-0.9 0.2-0.3 0.4-0.7 0.7-1 0.4-0.4 0.9-0.7 1.3-0.9 0.5-0.2 1-0.3 1.5-0.2 0.5 0 1 0.2 1.5 0.4 0.5 0.2 1 0.6 1.4 1 0.4 0.4 0.8 0.9 1 1.4 0.3 0.5 0.4 1 0.4 1.5 0 0.5 0 1-0.3 1.5-0.2 0.5-0.5 1-1 1.5q-0.6 0.6-1.2 0.9c-0.4 0.2-0.9 0.4-1.3 0.4-0.5 0-0.9 0-1.4-0.1-0.5-0.1-0.9-0.4-1.4-0.8l1.1-1.1c0.6 0.4 1.2 0.6 1.7 0.6 0.6 0 1.1-0.3 1.6-0.8q0.5-0.5 0.6-0.9c0.1-0.3 0.1-0.6 0.1-0.9 0-0.3-0.1-0.6-0.3-1-0.2-0.4-0.4-0.6-0.7-1-0.3-0.3-0.6-0.5-0.9-0.7-0.3-0.2-0.7-0.3-1-0.3-0.3 0-0.7 0-1 0.1q-0.4 0.1-0.9 0.6c-0.2 0.2-0.3 0.4-0.5 0.5-0.2 0.1-0.2 0.3-0.3 0.5-0.1 0.2-0.1 0.3-0.1 0.5 0 0.2 0 0.3-0.1 0.5z"/>
				</g>
			</g>
		</g>
		<g id="Layer">
			<path id="Layer" class="s2" d="m58.8-305.8h-1.9l-5.8-11.2v11.2h-1.9v-15h1.9l5.8 11.1v-11.1h1.9z"/>
			<path id="Layer" fill-rule="evenodd" class="s2" d="m69.2-309.7h-5l-1.2 3.9h-1.9l4.8-14.9h1.6l4.7 14.9h-1.9zm-4.5-1.6h4l-2-6.5z"/>
			<path id="Layer" fill-rule="evenodd" class="s2" d="m74.5-320.8h3.5c1 0 2 0.2 2.8 0.5 0.8 0.3 1.5 0.8 2.1 1.4 0.6 0.6 1 1.3 1.3 2.2 0.3 0.8 0.4 1.8 0.5 2.8v1.1c0 1-0.2 2-0.5 2.8-0.3 0.8-0.7 1.6-1.3 2.2-0.6 0.6-1.3 1.1-2.1 1.4-0.8 0.3-1.7 0.5-2.8 0.5h-3.5zm1.9 13.4h1.5c0.8 0 1.5-0.1 2.1-0.4 0.6-0.3 1.1-0.7 1.5-1.1 0.4-0.5 0.7-1 0.9-1.7 0.2-0.6 0.3-1.4 0.3-2.1v-1.1q0-1.2-0.3-2.1c-0.2-0.6-0.5-1.2-0.9-1.7-0.4-0.5-0.9-0.8-1.5-1.1-0.6-0.3-1.3-0.4-2.1-0.4h-1.5z"/>
			<path id="Layer" class="s2" d="m87.3-320.8h9v1.7h-3.6v11.6h3.6v1.6h-9v-1.6h3.5v-11.6h-3.5z"/>
			<path id="Layer" fill-rule="evenodd" class="s2" d="m104.8-311.9h-3v6.1h-1.8v-15h4.4c0.7 0 1.4 0.1 2 0.3 0.6 0.2 1.2 0.5 1.6 0.8 0.5 0.4 0.8 0.8 1.1 1.4 0.3 0.6 0.4 1.2 0.4 2 0 0.5-0.1 0.9-0.2 1.3-0.1 0.4-0.3 0.8-0.6 1.1-0.3 0.3-0.5 0.6-0.9 0.9-0.3 0.3-0.7 0.5-1.1 0.6l3.2 6.4v0.1h-2zm-0.5-1.6c0.4 0 0.8-0.1 1.2-0.2 0.4-0.1 0.7-0.3 1-0.5 0.3-0.2 0.5-0.5 0.7-0.9 0.2-0.4 0.2-0.7 0.2-1.2 0-0.5-0.1-0.9-0.2-1.3-0.2-0.4-0.4-0.7-0.7-0.9-0.3-0.2-0.6-0.4-1-0.5-0.4-0.1-0.8-0.2-1.3-0.2h-2.5v5.7z"/>
		</g>
		<g id="Layer">
			<path id="Layer" class="s2" d="m45.1 321.6h7.7v1.6h-9.8v-1.5l7.4-11.8h-7.3v-1.6h9.5v1.4z"/>
			<path id="Layer" class="s2" d="m64.4 316.3h-6.2v5.3h7.3v1.6h-9.2v-14.9h9.1v1.6h-7.2v4.8h6.2z"/>
			<path id="Layer" class="s2" d="m78.1 323.2h-1.9l-5.8-11.2v11.2h-1.9v-14.9h1.9l5.8 11.1v-11.1h1.9z"/>
			<path id="Layer" class="s2" d="m81.4 308.3h9v1.7h-3.6v11.6h3.6v1.6h-9v-1.6h3.5v-11.6h-3.5z"/>
			<path id="Layer" class="s2" d="m104.1 309.9h-4.6v13.3h-1.8v-13.3h-4.7v-1.6h11.1z"/>
			<path id="Layer" class="s2" d="m116 323.2h-1.8v-6.9h-6.2v6.9h-1.8v-14.9h1.8v6.4h6.1v-6.4h1.8v14.9z"/>
		</g>
	</g>
</svg>