{
  "asset": {
    "version": "2.0",
    "generator": "THREE.GLTFExporter"
  },
  "scenes": [
    {
      "name": "Scene",
      "nodes": [
        15
      ]
    }
  ],
  "scene": 0,
  "nodes": [
    {
      "matrix": [
        1,
        0,
        0,
        0,
        0,
        1,
        0,
        0,
        0,
        0,
        1,
        0,
        -14.268446922302246,
        -0.05865514278411865,
        -14.85360050201416,
        1
      ],
      "name": "AmbientLight",
      "extras": {
        "name": "AmbientLight"
      }
    },
    {
      "matrix": [
        1,
        0,
        0,
        0,
        0,
        1,
        0,
        0,
        0,
        0,
        1,
        0,
        -17.115501403808594,
        17.270980834960938,
        15.364811897277832,
        1
      ],
      "name": "HemisphereLight",
      "extras": {
        "name": "HemisphereLight"
      }
    },
    {
      "name": "azimuthcylinder",
      "extras": {
        "name": "azimuthcylinder"
      },
      "mesh": 0
    },
    {
      "name": "azimuthcylinder_1",
      "extras": {
        "name": "azimuthcylinder_1"
      },
      "mesh": 1
    },
    {
      "name": "elevation_cylinder",
      "extras": {
        "name": "elevation_cylinder"
      },
      "mesh": 2
    },
    {
      "name": "Mesh_5",
      "mesh": 3
    },
    {
      "name": "Mesh_5_1",
      "mesh": 4
    },
    {
      "name": "elevation_cylinder_1",
      "extras": {
        "name": "elevation_cylinder_1"
      },
      "children": [
        5,
        6
      ]
    },
    {
      "name": "elevation_cylinder_2",
      "extras": {
        "name": "elevation_cylinder_2"
      },
      "mesh": 5
    },
    {
      "matrix": [
        1,
        0,
        0,
        0,
        0,
        1,
        0,
        0,
        0,
        0,
        1,
        0,
        0,
        1.1820001602172852,
        0,
        1
      ],
      "name": "Elevation",
      "extras": {
        "name": "Elevation"
      },
      "children": [
        4,
        7,
        8
      ]
    },
    {
      "matrix": [
        1,
        0,
        0,
        0,
        0,
        1,
        0,
        0,
        0,
        0,
        1,
        0,
        0,
        10,
        0,
        1
      ],
      "name": "Azimuth",
      "extras": {
        "name": "Azimuth"
      },
      "children": [
        2,
        3,
        9
      ]
    },
    {
      "name": "basecylinder",
      "extras": {
        "name": "basecylinder"
      },
      "mesh": 6
    },
    {
      "name": "basecylinder_1",
      "extras": {
        "name": "basecylinder_1"
      },
      "mesh": 7
    },
    {
      "name": "Base",
      "extras": {
        "name": "Base"
      },
      "children": [
        11,
        12
      ]
    },
    {
      "matrix": [
        1,
        0,
        0,
        0,
        0,
        1,
        0,
        0,
        0,
        0,
        1,
        0,
        0,
        0,
        2.263179302215576,
        1
      ],
      "name": "rotatormodeltexturedglb",
      "extras": {
        "name": "rotatormodeltextured.glb"
      },
      "children": [
        10,
        13
      ]
    },
    {
      "name": "finalmodel.glb",
      "children": [
        0,
        1,
        14
      ]
    }
  ],
  "bufferViews": [
    {
      "buffer": 0,
      "byteOffset": 0,
      "byteLength": 34512,
      "target": 34962,
      "byteStride": 12
    },
    {
      "buffer": 0,
      "byteOffset": 34512,
      "byteLength": 34512,
      "target": 34962,
      "byteStride": 12
    },
    {
      "buffer": 0,
      "byteOffset": 69024,
      "byteLength": 23008,
      "target": 34962,
      "byteStride": 8
    },
    {
      "buffer": 0,
      "byteOffset": 92032,
      "byteLength": 9192,
      "target": 34963
    },
    {
      "buffer": 0,
      "byteOffset": 101224,
      "byteLength": 10656,
      "target": 34962,
      "byteStride": 12
    },
    {
      "buffer": 0,
      "byteOffset": 111880,
      "byteLength": 10656,
      "target": 34962,
      "byteStride": 12
    },
    {
      "buffer": 0,
      "byteOffset": 122536,
      "byteLength": 7104,
      "target": 34962,
      "byteStride": 8
    },
    {
      "buffer": 0,
      "byteOffset": 129640,
      "byteLength": 5112,
      "target": 34963
    },
    {
      "buffer": 0,
      "byteOffset": 134752,
      "byteLength": 9768,
      "target": 34962,
      "byteStride": 12
    },
    {
      "buffer": 0,
      "byteOffset": 144520,
      "byteLength": 9768,
      "target": 34962,
      "byteStride": 12
    },
    {
      "buffer": 0,
      "byteOffset": 154288,
      "byteLength": 6512,
      "target": 34962,
      "byteStride": 8
    },
    {
      "buffer": 0,
      "byteOffset": 160800,
      "byteLength": 4584,
      "target": 34963
    },
    {
      "buffer": 0,
      "byteOffset": 165384,
      "byteLength": 12780,
      "target": 34962,
      "byteStride": 12
    },
    {
      "buffer": 0,
      "byteOffset": 178164,
      "byteLength": 12780,
      "target": 34962,
      "byteStride": 12
    },
    {
      "buffer": 0,
      "byteOffset": 190944,
      "byteLength": 8520,
      "target": 34962,
      "byteStride": 8
    },
    {
      "buffer": 0,
      "byteOffset": 199464,
      "byteLength": 5120,
      "target": 34963
    },
    {
      "buffer": 0,
      "byteOffset": 204584,
      "byteLength": 660,
      "target": 34962,
      "byteStride": 12
    },
    {
      "buffer": 0,
      "byteOffset": 205244,
      "byteLength": 660,
      "target": 34962,
      "byteStride": 12
    },
    {
      "buffer": 0,
      "byteOffset": 205904,
      "byteLength": 440,
      "target": 34962,
      "byteStride": 8
    },
    {
      "buffer": 0,
      "byteOffset": 206344,
      "byteLength": 212,
      "target": 34963
    },
    {
      "buffer": 0,
      "byteOffset": 206556,
      "byteLength": 12096,
      "target": 34962,
      "byteStride": 12
    },
    {
      "buffer": 0,
      "byteOffset": 218652,
      "byteLength": 12096,
      "target": 34962,
      "byteStride": 12
    },
    {
      "buffer": 0,
      "byteOffset": 230748,
      "byteLength": 8064,
      "target": 34962,
      "byteStride": 8
    },
    {
      "buffer": 0,
      "byteOffset": 238812,
      "byteLength": 4896,
      "target": 34963
    },
    {
      "buffer": 0,
      "byteOffset": 243708,
      "byteLength": 13872,
      "target": 34962,
      "byteStride": 12
    },
    {
      "buffer": 0,
      "byteOffset": 257580,
      "byteLength": 13872,
      "target": 34962,
      "byteStride": 12
    },
    {
      "buffer": 0,
      "byteOffset": 271452,
      "byteLength": 9248,
      "target": 34962,
      "byteStride": 8
    },
    {
      "buffer": 0,
      "byteOffset": 280700,
      "byteLength": 6048,
      "target": 34963
    },
    {
      "buffer": 0,
      "byteOffset": 286748,
      "byteLength": 24180,
      "target": 34962,
      "byteStride": 12
    },
    {
      "buffer": 0,
      "byteOffset": 310928,
      "byteLength": 24180,
      "target": 34962,
      "byteStride": 12
    },
    {
      "buffer": 0,
      "byteOffset": 335108,
      "byteLength": 16120,
      "target": 34962,
      "byteStride": 8
    },
    {
      "buffer": 0,
      "byteOffset": 351228,
      "byteLength": 13296,
      "target": 34963
    }
  ],
  "buffers": [
    {
      "byteLength": 364524,
      "uri": "data:application/octet-stream;base64,"
    }
  ],
  "accessors": [
    {
      "bufferView": 0,
      "componentType": 5126,
      "count": 2876,
      "max": [
        0.3549831211566925,
        1.7321715354919434,
        -0.46982768177986145
      ],
      "min": [
        -0.3525531589984894,
        1.05076265335083,
        -0.6795912981033325
      ],
      "type": "VEC3"
    },
    {
      "bufferView": 1,
      "componentType": 5126,
      "count": 2876,
      "max": [
        0.9951865673065186,
        0.9951865673065186,
        1
      ],
      "min": [
        -0.9951865673065186,
        -0.9951865673065186,
        -1
      ],
      "type": "VEC3"
    },
    {
      "bufferView": 2,
      "componentType": 5126,
      "count": 2876,
      "max": [
        1,
        0.9899996519088745
      ],
      "min": [
        0,
        0
      ],
      "type": "VEC2"
    },
    {
      "bufferView": 3,
      "componentType": 5123,
      "count": 4596,
      "max": [
        2875
      ],
      "min": [
        0
      ],
      "type": "SCALAR"
    },
    {
      "bufferView": 4,
      "componentType": 5126,
      "count": 888,
      "max": [
        0.75,
        1.9858589172363281,
        0.75
      ],
      "min": [
        -0.75,
        -0.2591400146484375,
        -0.75
      ],
      "type": "VEC3"
    },
    {
      "bufferView": 5,
      "componentType": 5126,
      "count": 888,
      "max": [
        1,
        1,
        1
      ],
      "min": [
        -1,
        -1,
        -1
      ],
      "type": "VEC3"
    },
    {
      "bufferView": 6,
      "componentType": 5126,
      "count": 888,
      "max": [
        1,
        1
      ],
      "min": [
        0,
        0
      ],
      "type": "VEC2"
    },
    {
      "bufferView": 7,
      "componentType": 5123,
      "count": 2556,
      "max": [
        887
      ],
      "min": [
        0
      ],
      "type": "SCALAR"
    },
    {
      "bufferView": 8,
      "componentType": 5126,
      "count": 814,
      "max": [
        3.1387553215026855,
        0.3143402338027954,
        0.2965310215950012
      ],
      "min": [
        -3.137983798980713,
        -0.3073791265487671,
        -0.32518893480300903
      ],
      "type": "VEC3"
    },
    {
      "bufferView": 9,
      "componentType": 5126,
      "count": 814,
      "max": [
        1,
        1,
        1
      ],
      "min": [
        -1,
        -1,
        -1
      ],
      "type": "VEC3"
    },
    {
      "bufferView": 10,
      "componentType": 5126,
      "count": 814,
      "max": [
        0,
        1
      ],
      "min": [
        0,
        1
      ],
      "type": "VEC2"
    },
    {
      "bufferView": 11,
      "componentType": 5123,
      "count": 2292,
      "max": [
        813
      ],
      "min": [
        0
      ],
      "type": "SCALAR"
    },
    {
      "bufferView": 12,
      "componentType": 5126,
      "count": 1065,
      "max": [
        3.4387059211730957,
        1.8823343515396118,
        6.510269641876221
      ],
      "min": [
        -3.4396185874938965,
        -1.8907274007797241,
        -6.46621561050415
      ],
      "type": "VEC3"
    },
    {
      "bufferView": 13,
      "componentType": 5126,
      "count": 1065,
      "max": [
        1,
        1,
        1
      ],
      "min": [
        -1,
        -1,
        -1
      ],
      "type": "VEC3"
    },
    {
      "bufferView": 14,
      "componentType": 5126,
      "count": 1065,
      "max": [
        0.875,
        0.9838709831237793
      ],
      "min": [
        0.125,
        0.25806450843811035
      ],
      "type": "VEC2"
    },
    {
      "bufferView": 15,
      "componentType": 5123,
      "count": 2559,
      "max": [
        1064
      ],
      "min": [
        0
      ],
      "type": "SCALAR"
    },
    {
      "bufferView": 16,
      "componentType": 5126,
      "count": 55,
      "max": [
        3.4387059211730957,
        0.1534792184829712,
        6.784102916717529
      ],
      "min": [
        -3.4396185874938965,
        -0.1465238332748413,
        5.613440990447998
      ],
      "type": "VEC3"
    },
    {
      "bufferView": 17,
      "componentType": 5126,
      "count": 55,
      "max": [
        1,
        1,
        1
      ],
      "min": [
        -1,
        -1,
        0
      ],
      "type": "VEC3"
    },
    {
      "bufferView": 18,
      "componentType": 5126,
      "count": 55,
      "max": [
        0.875,
        1
      ],
      "min": [
        0.125,
        0
      ],
      "type": "VEC2"
    },
    {
      "bufferView": 19,
      "componentType": 5123,
      "count": 105,
      "max": [
        54
      ],
      "min": [
        0
      ],
      "type": "SCALAR"
    },
    {
      "bufferView": 20,
      "componentType": 5126,
      "count": 1008,
      "max": [
        3.420706272125244,
        1.953478455543518,
        5.592825412750244
      ],
      "min": [
        -3.421618938446045,
        -1.9465230703353882,
        -5.253291606903076
      ],
      "type": "VEC3"
    },
    {
      "bufferView": 21,
      "componentType": 5126,
      "count": 1008,
      "max": [
        1,
        0.990270733833313,
        1
      ],
      "min": [
        -1,
        -0.990270733833313,
        -1
      ],
      "type": "VEC3"
    },
    {
      "bufferView": 22,
      "componentType": 5126,
      "count": 1008,
      "max": [
        0.5916667580604553,
        0.9826929569244385
      ],
      "min": [
        0.4083332121372223,
        0.2673070430755615
      ],
      "type": "VEC2"
    },
    {
      "bufferView": 23,
      "componentType": 5123,
      "count": 2448,
      "max": [
        1007
      ],
      "min": [
        0
      ],
      "type": "SCALAR"
    },
    {
      "bufferView": 24,
      "componentType": 5126,
      "count": 1156,
      "max": [
        0.8047427535057068,
        0.427426815032959,
        0.7874836921691895
      ],
      "min": [
        -0.7585192322731018,
        0.38150596618652344,
        -0.7836884260177612
      ],
      "type": "VEC3"
    },
    {
      "bufferView": 25,
      "componentType": 5126,
      "count": 1156,
      "max": [
        1,
        0.9785816073417664,
        1
      ],
      "min": [
        -1,
        -1,
        -1
      ],
      "type": "VEC3"
    },
    {
      "bufferView": 26,
      "componentType": 5126,
      "count": 1156,
      "max": [
        1,
        0.9900000095367432
      ],
      "min": [
        0,
        0
      ],
      "type": "VEC2"
    },
    {
      "bufferView": 27,
      "componentType": 5123,
      "count": 3024,
      "max": [
        1155
      ],
      "min": [
        0
      ],
      "type": "SCALAR"
    },
    {
      "bufferView": 28,
      "componentType": 5126,
      "count": 2015,
      "max": [
        1.0046710968017578,
        9.743587493896484,
        1.0031704902648926
      ],
      "min": [
        -1.0046710968017578,
        0.015654563903808594,
        -1.0031704902648926
      ],
      "type": "VEC3"
    },
    {
      "bufferView": 29,
      "componentType": 5126,
      "count": 2015,
      "max": [
        1,
        1,
        1
      ],
      "min": [
        -1,
        -1,
        -1
      ],
      "type": "VEC3"
    },
    {
      "bufferView": 30,
      "componentType": 5126,
      "count": 2015,
      "max": [
        1,
        1
      ],
      "min": [
        0,
        0
      ],
      "type": "VEC2"
    },
    {
      "bufferView": 31,
      "componentType": 5123,
      "count": 6648,
      "max": [
        2014
      ],
      "min": [
        0
      ],
      "type": "SCALAR"
    }
  ],
  "materials": [
    {
      "pbrMetallicRoughness": {
        "baseColorFactor": [
          0.009077637456357479,
          0.009077639319002628,
          0.009077649563550949,
          1
        ],
        "metallicFactor": 0,
        "roughnessFactor": 0.5
      },
      "doubleSided": true,
      "name": "darkpaintedmetal"
    },
    {
      "pbrMetallicRoughness": {
        "baseColorFactor": [
          0.2622506618499756,
          0.28744083642959595,
          0.37123769521713257,
          1
        ],
        "metallicFactor": 0.9728096723556519,
        "roughnessFactor": 0.9700000286102295
      },
      "doubleSided": true,
      "name": "lightpaintedmetal",
      "extensions": {
        "KHR_materials_ior": {
          "ior": 1.4500000476837158
        },
        "KHR_materials_specular": {
          "specularFactor": 1,
          "specularColorFactor": [
            0,
            0,
            0
          ]
        }
      }
    },
    {
      "pbrMetallicRoughness": {
        "baseColorFactor": [
          0.03189603239297867,
          0.03433980792760849,
          0.045186202973127365,
          1
        ],
        "metallicFactor": 0,
        "roughnessFactor": 0.9
      },
      "name": "Material_2",
      "extensions": {
        "KHR_materials_unlit": {}
      }
    },
    {
      "pbrMetallicRoughness": {
        "baseColorFactor": [
          0.03189603239297867,
          0.03433980792760849,
          0.045186202973127365,
          1
        ],
        "metallicFactor": 0,
        "roughnessFactor": 0.5
      },
      "doubleSided": true,
      "name": "antenna"
    },
    {
      "pbrMetallicRoughness": {
        "baseColorFactor": [
          0.005746703129261732,
          0,
          0.8000000715255737,
          1
        ],
        "metallicFactor": 0,
        "roughnessFactor": 0.5
      },
      "doubleSided": true,
      "name": "tips"
    },
    {
      "pbrMetallicRoughness": {
        "baseColorFactor": [
          0.004776953253895044,
          0.005181516520678997,
          0.006512090563774109,
          1
        ],
        "metallicFactor": 0,
        "roughnessFactor": 0.5
      },
      "emissiveFactor": [
        0.08437620848417282,
        0.08437620848417282,
        0.08437620848417282
      ],
      "doubleSided": true,
      "name": "antennacaps"
    }
  ],
  "meshes": [
    {
      "primitives": [
        {
          "mode": 4,
          "attributes": {
            "POSITION": 0,
            "NORMAL": 1,
            "TEXCOORD_0": 2
          },
          "indices": 3,
          "material": 0
        }
      ]
    },
    {
      "primitives": [
        {
          "mode": 4,
          "attributes": {
            "POSITION": 4,
            "NORMAL": 5,
            "TEXCOORD_0": 6
          },
          "indices": 7,
          "material": 1
        }
      ]
    },
    {
      "primitives": [
        {
          "mode": 4,
          "attributes": {
            "POSITION": 8,
            "NORMAL": 9,
            "TEXCOORD_0": 10
          },
          "indices": 11,
          "material": 2
        }
      ]
    },
    {
      "primitives": [
        {
          "mode": 4,
          "attributes": {
            "POSITION": 12,
            "NORMAL": 13,
            "TEXCOORD_0": 14
          },
          "indices": 15,
          "material": 3
        }
      ]
    },
    {
      "primitives": [
        {
          "mode": 4,
          "attributes": {
            "POSITION": 16,
            "NORMAL": 17,
            "TEXCOORD_0": 18
          },
          "indices": 19,
          "material": 4
        }
      ]
    },
    {
      "primitives": [
        {
          "mode": 4,
          "attributes": {
            "POSITION": 20,
            "NORMAL": 21,
            "TEXCOORD_0": 22
          },
          "indices": 23,
          "material": 5
        }
      ]
    },
    {
      "primitives": [
        {
          "mode": 4,
          "attributes": {
            "POSITION": 24,
            "NORMAL": 25,
            "TEXCOORD_0": 26
          },
          "indices": 27,
          "material": 0
        }
      ]
    },
    {
      "primitives": [
        {
          "mode": 4,
          "attributes": {
            "POSITION": 28,
            "NORMAL": 29,
            "TEXCOORD_0": 30
          },
          "indices": 31,
          "material": 1
        }
      ]
    }
  ],
  "extensionsUsed": [
    "KHR_materials_ior",
    "KHR_materials_specular",
    "KHR_materials_unlit"
  ]
}