{
  "asset": {
    "version": "2.0",
    "generator": "THREE.GLTFExporter"
  },
  "scenes": [
    {
      "name": "Scene",
      "nodes": [
        0,
        1,
        2,
        16
      ]
    }
  ],
  "scene": 0,
  "nodes": [
    {
      "matrix": [
        1,
        0,
        0,
        0,
        0,
        1,
        0,
        0,
        0,
        0,
        1,
        0,
        -14.268447266295192,
        -0.05865514130521987,
        -14.853600491609475,
        1
      ],
      "name": "AmbientLight"
    },
    {
      "matrix": [
        1,
        0,
        0,
        0,
        0,
        1,
        0,
        0,
        0,
        0,
        1,
        0,
        -10.988027431543781,
        15.355545911636078,
        7.44604986375596,
        1
      ],
      "name": "PointLight",
      "extensions": {
        "KHR_lights_punctual": {
          "light": 0
        }
      }
    },
    {
      "matrix": [
        1,
        0,
        0,
        0,
        0,
        1,
        0,
        0,
        0,
        0,
        1,
        0,
        -17.115501103330352,
        17.270980717657284,
        15.364811587170532,
        1
      ],
      "name": "HemisphereLight"
    },
    {
      "matrix": [
        1,
        0,
        0,
        0,
        0,
        -1.3435885648505064e-7,
        1.0000001343588565,
        0,
        0,
        -1.0000001343588565,
        -1.3435885648505064e-7,
        0,
        0.07000000029802322,
        2.5,
        0,
        1
      ],
      "name": "Cross",
      "extras": {
        "name": "Cross"
      }
    },
    {
      "matrix": [
        -0.333333560773454,
        -0.6666667115612057,
        -0.6666667115612057,
        0,
        0,
        0,
        0,
        0,
        0.6466667292878572,
        -0.6466667960486148,
        0.3233332325616147,
        0,
        0,
        2.5899999141693115,
        0,
        1
      ],
      "name": "Pole",
      "extras": {
        "name": "Pole"
      }
    },
    {
      "name": "basecylinder",
      "mesh": 0
    },
    {
      "name": "basecylinder_1",
      "mesh": 1
    },
    {
      "name": "Base",
      "extras": {
        "name": "Base"
      },
      "children": [
        5,
        6
      ]
    },
    {
      "name": "azimuthcylinder",
      "mesh": 2
    },
    {
      "name": "azimuthcylinder_1",
      "mesh": 3
    },
    {
      "name": "elevation_cylinder",
      "mesh": 4
    },
    {
      "name": "elevation_cylinder_1",
      "mesh": 5
    },
    {
      "name": "elevation_cylinder_2",
      "mesh": 6
    },
    {
      "matrix": [
        1,
        0,
        0,
        0,
        0,
        1,
        0,
        0,
        0,
        0,
        1,
        0,
        0,
        1.182,
        0,
        1
      ],
      "name": "Elevation",
      "extras": {
        "name": "Elevation"
      },
      "children": [
        10,
        11,
        12
      ]
    },
    {
      "matrix": [
        1,
        0,
        0,
        0,
        0,
        1,
        0,
        0,
        0,
        0,
        1,
        0,
        0,
        10,
        0,
        1
      ],
      "name": "Azimuth",
      "extras": {
        "name": "Azimuth"
      },
      "children": [
        8,
        9,
        13
      ]
    },
    {
      "name": "Circle",
      "extras": {
        "name": "Circle"
      },
      "mesh": 7
    },
    {
      "matrix": [
        1,
        0,
        0,
        0,
        0,
        1,
        0,
        0,
        0,
        0,
        1,
        0,
        0,
        0,
        2.26317921396514,
        1
      ],
      "name": "rotatormodeltextured.glb",
      "children": [
        3,
        4,
        7,
        14,
        15
      ]
    }
  ],
  "extensions": {
    "KHR_lights_punctual": {
      "lights": [
        {
          "name": "PointLight",
          "color": [
            1,
            1,
            1
          ],
          "intensity": 213.4,
          "type": "point"
        }
      ]
    }
  },
  "bufferViews": [
    {
      "buffer": 0,
      "byteOffset": 0,
      "byteLength": 13872,
      "target": 34962,
      "byteStride": 12
    },
    {
      "buffer": 0,
      "byteOffset": 13872,
      "byteLength": 13872,
      "target": 34962,
      "byteStride": 12
    },
    {
      "buffer": 0,
      "byteOffset": 27744,
      "byteLength": 9248,
      "target": 34962,
      "byteStride": 8
    },
    {
      "buffer": 0,
      "byteOffset": 36992,
      "byteLength": 6048,
      "target": 34963
    },
    {
      "buffer": 0,
      "byteOffset": 43040,
      "byteLength": 23676,
      "target": 34962,
      "byteStride": 12
    },
    {
      "buffer": 0,
      "byteOffset": 66716,
      "byteLength": 23676,
      "target": 34962,
      "byteStride": 12
    },
    {
      "buffer": 0,
      "byteOffset": 90392,
      "byteLength": 15784,
      "target": 34962,
      "byteStride": 8
    },
    {
      "buffer": 0,
      "byteOffset": 106176,
      "byteLength": 13296,
      "target": 34963
    },
    {
      "buffer": 0,
      "byteOffset": 119472,
      "byteLength": 31848,
      "target": 34962,
      "byteStride": 12
    },
    {
      "buffer": 0,
      "byteOffset": 151320,
      "byteLength": 31848,
      "target": 34962,
      "byteStride": 12
    },
    {
      "buffer": 0,
      "byteOffset": 183168,
      "byteLength": 21232,
      "target": 34962,
      "byteStride": 8
    },
    {
      "buffer": 0,
      "byteOffset": 204400,
      "byteLength": 9192,
      "target": 34963
    },
    {
      "buffer": 0,
      "byteOffset": 213592,
      "byteLength": 10656,
      "target": 34962,
      "byteStride": 12
    },
    {
      "buffer": 0,
      "byteOffset": 224248,
      "byteLength": 10656,
      "target": 34962,
      "byteStride": 12
    },
    {
      "buffer": 0,
      "byteOffset": 234904,
      "byteLength": 7104,
      "target": 34962,
      "byteStride": 8
    },
    {
      "buffer": 0,
      "byteOffset": 242008,
      "byteLength": 5112,
      "target": 34963
    },
    {
      "buffer": 0,
      "byteOffset": 247120,
      "byteLength": 9216,
      "target": 34962,
      "byteStride": 12
    },
    {
      "buffer": 0,
      "byteOffset": 256336,
      "byteLength": 9216,
      "target": 34962,
      "byteStride": 12
    },
    {
      "buffer": 0,
      "byteOffset": 265552,
      "byteLength": 6144,
      "target": 34962,
      "byteStride": 8
    },
    {
      "buffer": 0,
      "byteOffset": 271696,
      "byteLength": 4584,
      "target": 34963
    },
    {
      "buffer": 0,
      "byteOffset": 276280,
      "byteLength": 13248,
      "target": 34962,
      "byteStride": 12
    },
    {
      "buffer": 0,
      "byteOffset": 289528,
      "byteLength": 13248,
      "target": 34962,
      "byteStride": 12
    },
    {
      "buffer": 0,
      "byteOffset": 302776,
      "byteLength": 8832,
      "target": 34962,
      "byteStride": 8
    },
    {
      "buffer": 0,
      "byteOffset": 311608,
      "byteLength": 5328,
      "target": 34963
    },
    {
      "buffer": 0,
      "byteOffset": 316936,
      "byteLength": 12096,
      "target": 34962,
      "byteStride": 12
    },
    {
      "buffer": 0,
      "byteOffset": 329032,
      "byteLength": 12096,
      "target": 34962,
      "byteStride": 12
    },
    {
      "buffer": 0,
      "byteOffset": 341128,
      "byteLength": 8064,
      "target": 34962,
      "byteStride": 8
    },
    {
      "buffer": 0,
      "byteOffset": 349192,
      "byteLength": 4896,
      "target": 34963
    },
    {
      "buffer": 0,
      "byteOffset": 354088,
      "byteLength": 1536,
      "target": 34962,
      "byteStride": 12
    },
    {
      "buffer": 0,
      "byteOffset": 355624,
      "byteLength": 1536,
      "target": 34962,
      "byteStride": 12
    },
    {
      "buffer": 0,
      "byteOffset": 357160,
      "byteLength": 1024,
      "target": 34962,
      "byteStride": 8
    },
    {
      "buffer": 0,
      "byteOffset": 358184,
      "byteLength": 672,
      "target": 34963
    }
  ],
  "buffers": [
    {
      "byteLength": 358856,
      "uri": "data:application/octet-stream;base64,"
    }
  ],
  "accessors": [
    {
      "bufferView": 0,
      "componentType": 5126,
      "count": 1156,
      "max": [
        0.8047427535057068,
        0.427426815032959,
        0.7874836921691895
      ],
      "min": [
        -0.7585192322731018,
        0.38150596618652344,
        -0.7836884260177612
      ],
      "type": "VEC3"
    },
    {
      "bufferView": 1,
      "componentType": 5126,
      "count": 1156,
      "max": [
        1,
        0.9785816073417664,
        1
      ],
      "min": [
        -1,
        -1,
        -1
      ],
      "type": "VEC3"
    },
    {
      "bufferView": 2,
      "componentType": 5126,
      "count": 1156,
      "max": [
        1,
        0.9900000095367432
      ],
      "min": [
        0,
        0
      ],
      "type": "VEC2"
    },
    {
      "bufferView": 3,
      "componentType": 5123,
      "count": 3024,
      "max": [
        1155
      ],
      "min": [
        0
      ],
      "type": "SCALAR"
    },
    {
      "bufferView": 4,
      "componentType": 5126,
      "count": 1973,
      "max": [
        1.0046710968017578,
        9.743587493896484,
        1.0031704902648926
      ],
      "min": [
        -1.0046710968017578,
        0.015654563903808594,
        -1.0031704902648926
      ],
      "type": "VEC3"
    },
    {
      "bufferView": 5,
      "componentType": 5126,
      "count": 1973,
      "max": [
        1,
        1,
        1
      ],
      "min": [
        -1,
        -1,
        -1
      ],
      "type": "VEC3"
    },
    {
      "bufferView": 6,
      "componentType": 5126,
      "count": 1973,
      "max": [
        1,
        1
      ],
      "min": [
        0,
        0
      ],
      "type": "VEC2"
    },
    {
      "bufferView": 7,
      "componentType": 5123,
      "count": 6648,
      "max": [
        1972
      ],
      "min": [
        0
      ],
      "type": "SCALAR"
    },
    {
      "bufferView": 8,
      "componentType": 5126,
      "count": 2654,
      "max": [
        0.3549831211566925,
        1.7321715354919434,
        -0.46982768177986145
      ],
      "min": [
        -0.3525531589984894,
        1.05076265335083,
        -0.6795912981033325
      ],
      "type": "VEC3"
    },
    {
      "bufferView": 9,
      "componentType": 5126,
      "count": 2654,
      "max": [
        0.9951865673065186,
        0.9951865673065186,
        1
      ],
      "min": [
        -0.9951865673065186,
        -0.9951865673065186,
        -1
      ],
      "type": "VEC3"
    },
    {
      "bufferView": 10,
      "componentType": 5126,
      "count": 2654,
      "max": [
        1,
        0.9899996519088745
      ],
      "min": [
        0,
        0
      ],
      "type": "VEC2"
    },
    {
      "bufferView": 11,
      "componentType": 5123,
      "count": 4596,
      "max": [
        2653
      ],
      "min": [
        0
      ],
      "type": "SCALAR"
    },
    {
      "bufferView": 12,
      "componentType": 5126,
      "count": 888,
      "max": [
        0.75,
        1.9858589172363281,
        0.75
      ],
      "min": [
        -0.75,
        -0.2591400146484375,
        -0.75
      ],
      "type": "VEC3"
    },
    {
      "bufferView": 13,
      "componentType": 5126,
      "count": 888,
      "max": [
        1,
        1,
        1
      ],
      "min": [
        -1,
        -1,
        -1
      ],
      "type": "VEC3"
    },
    {
      "bufferView": 14,
      "componentType": 5126,
      "count": 888,
      "max": [
        1,
        1
      ],
      "min": [
        0,
        0
      ],
      "type": "VEC2"
    },
    {
      "bufferView": 15,
      "componentType": 5123,
      "count": 2556,
      "max": [
        887
      ],
      "min": [
        0
      ],
      "type": "SCALAR"
    },
    {
      "bufferView": 16,
      "componentType": 5126,
      "count": 768,
      "max": [
        3.1387553215026855,
        0.3143402338027954,
        0.2965310215950012
      ],
      "min": [
        -3.137983798980713,
        -0.3073791265487671,
        -0.32518893480300903
      ],
      "type": "VEC3"
    },
    {
      "bufferView": 17,
      "componentType": 5126,
      "count": 768,
      "max": [
        1,
        1,
        1
      ],
      "min": [
        -1,
        -1,
        -1
      ],
      "type": "VEC3"
    },
    {
      "bufferView": 18,
      "componentType": 5126,
      "count": 768,
      "max": [
        0,
        1
      ],
      "min": [
        0,
        1
      ],
      "type": "VEC2"
    },
    {
      "bufferView": 19,
      "componentType": 5123,
      "count": 2292,
      "max": [
        767
      ],
      "min": [
        0
      ],
      "type": "SCALAR"
    },
    {
      "bufferView": 20,
      "componentType": 5126,
      "count": 1104,
      "max": [
        3.4387059211730957,
        1.8823343515396118,
        6.784102916717529
      ],
      "min": [
        -3.4396185874938965,
        -1.8907274007797241,
        -6.46621561050415
      ],
      "type": "VEC3"
    },
    {
      "bufferView": 21,
      "componentType": 5126,
      "count": 1104,
      "max": [
        1,
        1,
        1
      ],
      "min": [
        -1,
        -1,
        -1
      ],
      "type": "VEC3"
    },
    {
      "bufferView": 22,
      "componentType": 5126,
      "count": 1104,
      "max": [
        0.875,
        1
      ],
      "min": [
        0.125,
        0
      ],
      "type": "VEC2"
    },
    {
      "bufferView": 23,
      "componentType": 5123,
      "count": 2664,
      "max": [
        1103
      ],
      "min": [
        0
      ],
      "type": "SCALAR"
    },
    {
      "bufferView": 24,
      "componentType": 5126,
      "count": 1008,
      "max": [
        3.420706272125244,
        1.953478455543518,
        5.592825412750244
      ],
      "min": [
        -3.421618938446045,
        -1.9465230703353882,
        -5.253291606903076
      ],
      "type": "VEC3"
    },
    {
      "bufferView": 25,
      "componentType": 5126,
      "count": 1008,
      "max": [
        1,
        0.990270733833313,
        1
      ],
      "min": [
        -1,
        -0.990270733833313,
        -1
      ],
      "type": "VEC3"
    },
    {
      "bufferView": 26,
      "componentType": 5126,
      "count": 1008,
      "max": [
        0.5916667580604553,
        0.9826929569244385
      ],
      "min": [
        0.4083332121372223,
        0.2673070430755615
      ],
      "type": "VEC2"
    },
    {
      "bufferView": 27,
      "componentType": 5123,
      "count": 2448,
      "max": [
        1007
      ],
      "min": [
        0
      ],
      "type": "SCALAR"
    },
    {
      "bufferView": 28,
      "componentType": 5126,
      "count": 128,
      "max": [
        4.817270278930664,
        0,
        4.819802761077881
      ],
      "min": [
        -4.8172712326049805,
        0,
        -4.814738750457764
      ],
      "type": "VEC3"
    },
    {
      "bufferView": 29,
      "componentType": 5126,
      "count": 128,
      "max": [
        0,
        -1,
        0
      ],
      "min": [
        0,
        -1,
        0
      ],
      "type": "VEC3"
    },
    {
      "bufferView": 30,
      "componentType": 5126,
      "count": 128,
      "max": [
        1,
        1
      ],
      "min": [
        0,
        0
      ],
      "type": "VEC2"
    },
    {
      "bufferView": 31,
      "componentType": 5123,
      "count": 336,
      "max": [
        127
      ],
      "min": [
        0
      ],
      "type": "SCALAR"
    }
  ],
  "materials": [
    {
      "pbrMetallicRoughness": {
        "baseColorFactor": [
          0.009077637456357479,
          0.009077639319002628,
          0.009077649563550949,
          1
        ],
        "metallicFactor": 0,
        "roughnessFactor": 0.5
      },
      "doubleSided": true,
      "name": "darkpaintedmetal"
    },
    {
      "pbrMetallicRoughness": {
        "baseColorFactor": [
          0.26225065751888765,
          0.2874408377161099,
          0.3712376804636741,
          1
        ],
        "metallicFactor": 0.9728096723556519,
        "roughnessFactor": 0.97
      },
      "doubleSided": true,
      "name": "lightpaintedmetal",
      "extensions": {
        "KHR_materials_ior": {
          "ior": 1.4500000476837158
        },
        "KHR_materials_specular": {
          "specularFactor": 1,
          "specularColorFactor": [
            0,
            0,
            0
          ]
        }
      }
    },
    {
      "pbrMetallicRoughness": {
        "baseColorFactor": [
          0.031896033067374104,
          0.0343398068028541,
          0.04518620437910499,
          1
        ],
        "metallicFactor": 0,
        "roughnessFactor": 0.9
      },
      "extensions": {
        "KHR_materials_unlit": {}
      }
    },
    {
      "pbrMetallicRoughness": {
        "baseColorFactor": [
          0.031896033067374104,
          0.0343398068028541,
          0.04518620437910499,
          1
        ],
        "metallicFactor": 0,
        "roughnessFactor": 0.5
      },
      "doubleSided": true,
      "name": "antenna"
    },
    {
      "pbrMetallicRoughness": {
        "baseColorFactor": [
          0.004776953478513362,
          0.005181516700061659,
          0.006512090790025684,
          1
        ],
        "metallicFactor": 0,
        "roughnessFactor": 0.5
      },
      "emissiveFactor": [
        0.08437621153575764,
        0.08437621153575764,
        0.08437621153575764
      ],
      "doubleSided": true,
      "name": "antennacaps"
    },
    {
      "pbrMetallicRoughness": {
        "baseColorFactor": [
          0.0865004620280852,
          0.0865004620280852,
          0.08865558627723595,
          1
        ],
        "metallicFactor": 0,
        "roughnessFactor": 0.5
      },
      "doubleSided": true,
      "name": "Markers"
    }
  ],
  "meshes": [
    {
      "primitives": [
        {
          "mode": 4,
          "attributes": {
            "POSITION": 0,
            "NORMAL": 1,
            "TEXCOORD_0": 2
          },
          "indices": 3,
          "material": 0
        }
      ]
    },
    {
      "primitives": [
        {
          "mode": 4,
          "attributes": {
            "POSITION": 4,
            "NORMAL": 5,
            "TEXCOORD_0": 6
          },
          "indices": 7,
          "material": 1
        }
      ]
    },
    {
      "primitives": [
        {
          "mode": 4,
          "attributes": {
            "POSITION": 8,
            "NORMAL": 9,
            "TEXCOORD_0": 10
          },
          "indices": 11,
          "material": 0
        }
      ]
    },
    {
      "primitives": [
        {
          "mode": 4,
          "attributes": {
            "POSITION": 12,
            "NORMAL": 13,
            "TEXCOORD_0": 14
          },
          "indices": 15,
          "material": 1
        }
      ]
    },
    {
      "primitives": [
        {
          "mode": 4,
          "attributes": {
            "POSITION": 16,
            "NORMAL": 17,
            "TEXCOORD_0": 18
          },
          "indices": 19,
          "material": 2
        }
      ]
    },
    {
      "primitives": [
        {
          "mode": 4,
          "attributes": {
            "POSITION": 20,
            "NORMAL": 21,
            "TEXCOORD_0": 22
          },
          "indices": 23,
          "material": 3
        }
      ]
    },
    {
      "primitives": [
        {
          "mode": 4,
          "attributes": {
            "POSITION": 24,
            "NORMAL": 25,
            "TEXCOORD_0": 26
          },
          "indices": 27,
          "material": 4
        }
      ]
    },
    {
      "primitives": [
        {
          "mode": 4,
          "attributes": {
            "POSITION": 28,
            "NORMAL": 29,
            "TEXCOORD_0": 30
          },
          "indices": 31,
          "material": 5
        }
      ]
    }
  ],
  "extensionsUsed": [
    "KHR_lights_punctual",
    "KHR_materials_ior",
    "KHR_materials_specular",
    "KHR_materials_unlit"
  ]
}