{
  "asset": {
    "version": "2.0",
    "generator": "THREE.GLTFExporter"
  },
  "scenes": [
    {
      "name": "Scene",
      "nodes": [
        0,
        1,
        2,
        17,
        18
      ]
    }
  ],
  "scene": 0,
  "nodes": [
    {
      "matrix": [
        1,
        0,
        0,
        0,
        0,
        1,
        0,
        0,
        0,
        0,
        1,
        0,
        -14.268447266295192,
        -0.05865514130521987,
        -14.853600491609475,
        1
      ],
      "name": "AmbientLight"
    },
    {
      "matrix": [
        1,
        0,
        0,
        0,
        0,
        1,
        0,
        0,
        0,
        0,
        1,
        0,
        -10.988027431543781,
        17.045641235883124,
        7.44604986375596,
        1
      ],
      "name": "PointLight",
      "extensions": {
        "KHR_lights_punctual": {
          "light": 0
        }
      }
    },
    {
      "matrix": [
        1,
        0,
        0,
        0,
        0,
        1,
        0,
        0,
        0,
        0,
        1,
        0,
        -17.115501103330352,
        17.270980717657284,
        15.364811587170532,
        1
      ],
      "name": "HemisphereLight"
    },
    {
      "matrix": [
        1,
        0,
        0,
        0,
        0,
        -1.3435885655173873e-7,
        1.0000001343588565,
        0,
        0,
        -1.0000001343588565,
        -1.3435885655173873e-7,
        0,
        0.07000000029802322,
        2.5,
        0,
        1
      ],
      "name": "Cross",
      "extras": {
        "name": "Cross"
      }
    },
    {
      "matrix": [
        null,
        null,
        null,
        0,
        null,
        null,
        null,
        0,
        null,
        null,
        null,
        0,
        0,
        2.5899999141693115,
        0,
        1
      ],
      "name": "Pole",
      "extras": {
        "name": "Pole"
      }
    },
    {
      "name": "Cylinder002",
      "mesh": 0
    },
    {
      "name": "Cylinder002_1",
      "mesh": 1
    },
    {
      "name": "Base",
      "extras": {
        "name": "Base"
      },
      "children": [
        5,
        6
      ]
    },
    {
      "name": "Cylinder003",
      "mesh": 2
    },
    {
      "name": "Cylinder003_1",
      "mesh": 3
    },
    {
      "name": "Cylinder004",
      "mesh": 4
    },
    {
      "name": "Cylinder004_1",
      "mesh": 5
    },
    {
      "name": "Cylinder004_2",
      "mesh": 6
    },
    {
      "matrix": [
        1,
        0,
        0,
        0,
        0,
        1,
        0,
        0,
        0,
        0,
        1,
        0,
        0,
        1.062,
        0,
        1
      ],
      "name": "Elevation",
      "extras": {
        "name": "Elevation"
      },
      "children": [
        10,
        11,
        12
      ]
    },
    {
      "matrix": [
        0.9999756307053943,
        0,
        0.006981260297961554,
        0,
        0,
        1,
        0,
        0,
        -0.006981260297961554,
        0,
        0.9999756307053943,
        0,
        0,
        10,
        0,
        1
      ],
      "name": "Azimuth",
      "extras": {
        "name": "Azimuth"
      },
      "children": [
        8,
        9,
        13
      ]
    },
    {
      "matrix": [
        0.6985159780709694,
        2.607965257212352e-8,
        -0.7155944645051533,
        0,
        -0.1905205509547795,
        0.9639065148570333,
        -0.1859735233509375,
        0,
        0.6897661613668679,
        0.2662409291520484,
        0.6733041068506436,
        0,
        25.051271438598633,
        17.911455154418945,
        25.078567504882812,
        1
      ],
      "name": "viewCamera",
      "extras": {
        "name": "viewCamera"
      },
      "camera": 0
    },
    {
      "name": "Circle",
      "extras": {
        "name": "Circle"
      },
      "mesh": 7
    },
    {
      "name": "rotatormodel.glb",
      "children": [
        3,
        4,
        7,
        14,
        15,
        16
      ]
    },
    {
      "matrix": [
        1,
        0,
        0,
        0,
        0,
        -0.08019892432885943,
        0.9967788784562472,
        0,
        0,
        -0.9967788784562472,
        -0.08019892432885943,
        0,
        0,
        0,
        0,
        1
      ],
      "name": "OrthographicCamera",
      "camera": 1
    }
  ],
  "extensions": {
    "KHR_lights_punctual": {
      "lights": [
        {
          "name": "PointLight",
          "color": [
            1,
            1,
            1
          ],
          "intensity": 200,
          "type": "point"
        }
      ]
    }
  },
  "bufferViews": [
    {
      "buffer": 0,
      "byteOffset": 0,
      "byteLength": 13872,
      "target": 34962,
      "byteStride": 12
    },
    {
      "buffer": 0,
      "byteOffset": 13872,
      "byteLength": 13872,
      "target": 34962,
      "byteStride": 12
    },
    {
      "buffer": 0,
      "byteOffset": 27744,
      "byteLength": 9248,
      "target": 34962,
      "byteStride": 8
    },
    {
      "buffer": 0,
      "byteOffset": 36992,
      "byteLength": 6048,
      "target": 34963
    },
    {
      "buffer": 0,
      "byteOffset": 43040,
      "byteLength": 23676,
      "target": 34962,
      "byteStride": 12
    },
    {
      "buffer": 0,
      "byteOffset": 66716,
      "byteLength": 23676,
      "target": 34962,
      "byteStride": 12
    },
    {
      "buffer": 0,
      "byteOffset": 90392,
      "byteLength": 15784,
      "target": 34962,
      "byteStride": 8
    },
    {
      "buffer": 0,
      "byteOffset": 106176,
      "byteLength": 13296,
      "target": 34963
    },
    {
      "buffer": 0,
      "byteOffset": 119472,
      "byteLength": 31896,
      "target": 34962,
      "byteStride": 12
    },
    {
      "buffer": 0,
      "byteOffset": 151368,
      "byteLength": 31896,
      "target": 34962,
      "byteStride": 12
    },
    {
      "buffer": 0,
      "byteOffset": 183264,
      "byteLength": 21264,
      "target": 34962,
      "byteStride": 8
    },
    {
      "buffer": 0,
      "byteOffset": 204528,
      "byteLength": 9204,
      "target": 34963
    },
    {
      "buffer": 0,
      "byteOffset": 213732,
      "byteLength": 10656,
      "target": 34962,
      "byteStride": 12
    },
    {
      "buffer": 0,
      "byteOffset": 224388,
      "byteLength": 10656,
      "target": 34962,
      "byteStride": 12
    },
    {
      "buffer": 0,
      "byteOffset": 235044,
      "byteLength": 7104,
      "target": 34962,
      "byteStride": 8
    },
    {
      "buffer": 0,
      "byteOffset": 242148,
      "byteLength": 5112,
      "target": 34963
    },
    {
      "buffer": 0,
      "byteOffset": 247260,
      "byteLength": 9216,
      "target": 34962,
      "byteStride": 12
    },
    {
      "buffer": 0,
      "byteOffset": 256476,
      "byteLength": 9216,
      "target": 34962,
      "byteStride": 12
    },
    {
      "buffer": 0,
      "byteOffset": 265692,
      "byteLength": 6144,
      "target": 34962,
      "byteStride": 8
    },
    {
      "buffer": 0,
      "byteOffset": 271836,
      "byteLength": 4584,
      "target": 34963
    },
    {
      "buffer": 0,
      "byteOffset": 276420,
      "byteLength": 13248,
      "target": 34962,
      "byteStride": 12
    },
    {
      "buffer": 0,
      "byteOffset": 289668,
      "byteLength": 13248,
      "target": 34962,
      "byteStride": 12
    },
    {
      "buffer": 0,
      "byteOffset": 302916,
      "byteLength": 8832,
      "target": 34962,
      "byteStride": 8
    },
    {
      "buffer": 0,
      "byteOffset": 311748,
      "byteLength": 5328,
      "target": 34963
    },
    {
      "buffer": 0,
      "byteOffset": 317076,
      "byteLength": 8064,
      "target": 34962,
      "byteStride": 12
    },
    {
      "buffer": 0,
      "byteOffset": 325140,
      "byteLength": 8064,
      "target": 34962,
      "byteStride": 12
    },
    {
      "buffer": 0,
      "byteOffset": 333204,
      "byteLength": 5376,
      "target": 34962,
      "byteStride": 8
    },
    {
      "buffer": 0,
      "byteOffset": 338580,
      "byteLength": 2592,
      "target": 34963
    },
    {
      "buffer": 0,
      "byteOffset": 341172,
      "byteLength": 1536,
      "target": 34962,
      "byteStride": 12
    },
    {
      "buffer": 0,
      "byteOffset": 342708,
      "byteLength": 1536,
      "target": 34962,
      "byteStride": 12
    },
    {
      "buffer": 0,
      "byteOffset": 344244,
      "byteLength": 1024,
      "target": 34962,
      "byteStride": 8
    },
    {
      "buffer": 0,
      "byteOffset": 345268,
      "byteLength": 672,
      "target": 34963
    }
  ],
  "buffers": [
    {
      "byteLength": 345940,
      "uri": "data:application/octet-stream;base64,"
    }
  ],
  "accessors": [
    {
      "bufferView": 0,
      "componentType": 5126,
      "count": 1156,
      "max": [
        0.8047427535057068,
        0.427426815032959,
        0.7874836921691895
      ],
      "min": [
        -0.7585192322731018,
        0.38150596618652344,
        -0.7836884260177612
      ],
      "type": "VEC3"
    },
    {
      "bufferView": 1,
      "componentType": 5126,
      "count": 1156,
      "max": [
        1,
        0.9785816073417664,
        1
      ],
      "min": [
        -1,
        -1,
        -1
      ],
      "type": "VEC3"
    },
    {
      "bufferView": 2,
      "componentType": 5126,
      "count": 1156,
      "max": [
        1,
        0.9900000095367432
      ],
      "min": [
        0,
        0
      ],
      "type": "VEC2"
    },
    {
      "bufferView": 3,
      "componentType": 5123,
      "count": 3024,
      "max": [
        1155
      ],
      "min": [
        0
      ],
      "type": "SCALAR"
    },
    {
      "bufferView": 4,
      "componentType": 5126,
      "count": 1973,
      "max": [
        1.0046710968017578,
        9.743587493896484,
        1.0031704902648926
      ],
      "min": [
        -1.0046710968017578,
        0.015654563903808594,
        -1.0031704902648926
      ],
      "type": "VEC3"
    },
    {
      "bufferView": 5,
      "componentType": 5126,
      "count": 1973,
      "max": [
        1,
        1,
        1
      ],
      "min": [
        -1,
        -1,
        -1
      ],
      "type": "VEC3"
    },
    {
      "bufferView": 6,
      "componentType": 5126,
      "count": 1973,
      "max": [
        1,
        1
      ],
      "min": [
        0,
        0
      ],
      "type": "VEC2"
    },
    {
      "bufferView": 7,
      "componentType": 5123,
      "count": 6648,
      "max": [
        1972
      ],
      "min": [
        0
      ],
      "type": "SCALAR"
    },
    {
      "bufferView": 8,
      "componentType": 5126,
      "count": 2658,
      "max": [
        0.3549831211566925,
        1.7321715354919434,
        4.461998462677002
      ],
      "min": [
        -0.3525531589984894,
        -10.000004768371582,
        -0.6795912981033325
      ],
      "type": "VEC3"
    },
    {
      "bufferView": 9,
      "componentType": 5126,
      "count": 2658,
      "max": [
        0.9951865673065186,
        1,
        1
      ],
      "min": [
        -0.9951865673065186,
        -0.9951865673065186,
        -1
      ],
      "type": "VEC3"
    },
    {
      "bufferView": 10,
      "componentType": 5126,
      "count": 2658,
      "max": [
        1,
        1
      ],
      "min": [
        0,
        0
      ],
      "type": "VEC2"
    },
    {
      "bufferView": 11,
      "componentType": 5123,
      "count": 4602,
      "max": [
        2657
      ],
      "min": [
        0
      ],
      "type": "SCALAR"
    },
    {
      "bufferView": 12,
      "componentType": 5126,
      "count": 888,
      "max": [
        0.75,
        1.9858589172363281,
        0.75
      ],
      "min": [
        -0.75,
        -0.2591400146484375,
        -0.75
      ],
      "type": "VEC3"
    },
    {
      "bufferView": 13,
      "componentType": 5126,
      "count": 888,
      "max": [
        1,
        1,
        1
      ],
      "min": [
        -1,
        -1,
        -1
      ],
      "type": "VEC3"
    },
    {
      "bufferView": 14,
      "componentType": 5126,
      "count": 888,
      "max": [
        1,
        1
      ],
      "min": [
        0,
        0
      ],
      "type": "VEC2"
    },
    {
      "bufferView": 15,
      "componentType": 5123,
      "count": 2556,
      "max": [
        887
      ],
      "min": [
        0
      ],
      "type": "SCALAR"
    },
    {
      "bufferView": 16,
      "componentType": 5126,
      "count": 768,
      "max": [
        3.1387553215026855,
        0.3143402338027954,
        0.2965310215950012
      ],
      "min": [
        -3.137983798980713,
        -0.3073791265487671,
        -0.32518893480300903
      ],
      "type": "VEC3"
    },
    {
      "bufferView": 17,
      "componentType": 5126,
      "count": 768,
      "max": [
        1,
        1,
        1
      ],
      "min": [
        -1,
        -1,
        -1
      ],
      "type": "VEC3"
    },
    {
      "bufferView": 18,
      "componentType": 5126,
      "count": 768,
      "max": [
        0,
        1
      ],
      "min": [
        0,
        1
      ],
      "type": "VEC2"
    },
    {
      "bufferView": 19,
      "componentType": 5123,
      "count": 2292,
      "max": [
        767
      ],
      "min": [
        0
      ],
      "type": "SCALAR"
    },
    {
      "bufferView": 20,
      "componentType": 5126,
      "count": 1104,
      "max": [
        3.4387059211730957,
        1.953478455543518,
        6.784102916717529
      ],
      "min": [
        -3.4396185874938965,
        -1.9465230703353882,
        -6.46621561050415
      ],
      "type": "VEC3"
    },
    {
      "bufferView": 21,
      "componentType": 5126,
      "count": 1104,
      "max": [
        1,
        1,
        1
      ],
      "min": [
        -1,
        -1,
        -1
      ],
      "type": "VEC3"
    },
    {
      "bufferView": 22,
      "componentType": 5126,
      "count": 1104,
      "max": [
        0.875,
        1
      ],
      "min": [
        0.125,
        0
      ],
      "type": "VEC2"
    },
    {
      "bufferView": 23,
      "componentType": 5123,
      "count": 2664,
      "max": [
        1103
      ],
      "min": [
        0
      ],
      "type": "SCALAR"
    },
    {
      "bufferView": 24,
      "componentType": 5126,
      "count": 672,
      "max": [
        3.420706272125244,
        1.953478455543518,
        5.592825412750244
      ],
      "min": [
        -3.421618938446045,
        -1.9465230703353882,
        -5.253291606903076
      ],
      "type": "VEC3"
    },
    {
      "bufferView": 25,
      "componentType": 5126,
      "count": 672,
      "max": [
        1,
        1,
        1
      ],
      "min": [
        -1,
        -1,
        -1
      ],
      "type": "VEC3"
    },
    {
      "bufferView": 26,
      "componentType": 5126,
      "count": 672,
      "max": [
        0.5916667580604553,
        1
      ],
      "min": [
        0,
        0.2673070430755615
      ],
      "type": "VEC2"
    },
    {
      "bufferView": 27,
      "componentType": 5123,
      "count": 1296,
      "max": [
        671
      ],
      "min": [
        0
      ],
      "type": "SCALAR"
    },
    {
      "bufferView": 28,
      "componentType": 5126,
      "count": 128,
      "max": [
        4.817270278930664,
        0,
        4.819802761077881
      ],
      "min": [
        -4.8172712326049805,
        0,
        -4.814738750457764
      ],
      "type": "VEC3"
    },
    {
      "bufferView": 29,
      "componentType": 5126,
      "count": 128,
      "max": [
        0,
        -1,
        0
      ],
      "min": [
        0,
        -1,
        0
      ],
      "type": "VEC3"
    },
    {
      "bufferView": 30,
      "componentType": 5126,
      "count": 128,
      "max": [
        1,
        1
      ],
      "min": [
        0,
        0
      ],
      "type": "VEC2"
    },
    {
      "bufferView": 31,
      "componentType": 5123,
      "count": 336,
      "max": [
        127
      ],
      "min": [
        0
      ],
      "type": "SCALAR"
    }
  ],
  "materials": [
    {
      "pbrMetallicRoughness": {
        "baseColorFactor": [
          0.08437621153575764,
          0.08437621153575764,
          0.08437621153575764,
          1
        ],
        "metallicFactor": 0,
        "roughnessFactor": 0.5
      },
      "doubleSided": true,
      "name": "darkpaintedmetal"
    },
    {
      "pbrMetallicRoughness": {
        "metallicFactor": 0,
        "roughnessFactor": 0.5
      },
      "doubleSided": true,
      "name": "lightpaintedmetal"
    },
    {
      "pbrMetallicRoughness": {
        "metallicFactor": 0,
        "roughnessFactor": 0.5
      },
      "doubleSided": true,
      "name": "crossbeam"
    },
    {
      "pbrMetallicRoughness": {
        "baseColorFactor": [
          0.07227185067438519,
          0,
          1,
          1
        ],
        "metallicFactor": 0,
        "roughnessFactor": 0.5
      },
      "doubleSided": true,
      "name": "antenna"
    },
    {
      "pbrMetallicRoughness": {
        "baseColorFactor": [
          1,
          0.13286832154414627,
          0,
          1
        ],
        "metallicFactor": 0,
        "roughnessFactor": 0.5
      },
      "doubleSided": true,
      "name": "antennacaps"
    }
  ],
  "meshes": [
    {
      "primitives": [
        {
          "mode": 4,
          "attributes": {
            "POSITION": 0,
            "NORMAL": 1,
            "TEXCOORD_0": 2
          },
          "indices": 3,
          "material": 0
        }
      ]
    },
    {
      "primitives": [
        {
          "mode": 4,
          "attributes": {
            "POSITION": 4,
            "NORMAL": 5,
            "TEXCOORD_0": 6
          },
          "indices": 7,
          "material": 1
        }
      ]
    },
    {
      "primitives": [
        {
          "mode": 4,
          "attributes": {
            "POSITION": 8,
            "NORMAL": 9,
            "TEXCOORD_0": 10
          },
          "indices": 11,
          "material": 0
        }
      ]
    },
    {
      "primitives": [
        {
          "mode": 4,
          "attributes": {
            "POSITION": 12,
            "NORMAL": 13,
            "TEXCOORD_0": 14
          },
          "indices": 15,
          "material": 1
        }
      ]
    },
    {
      "primitives": [
        {
          "mode": 4,
          "attributes": {
            "POSITION": 16,
            "NORMAL": 17,
            "TEXCOORD_0": 18
          },
          "indices": 19,
          "material": 2
        }
      ]
    },
    {
      "primitives": [
        {
          "mode": 4,
          "attributes": {
            "POSITION": 20,
            "NORMAL": 21,
            "TEXCOORD_0": 22
          },
          "indices": 23,
          "material": 3
        }
      ]
    },
    {
      "primitives": [
        {
          "mode": 4,
          "attributes": {
            "POSITION": 24,
            "NORMAL": 25,
            "TEXCOORD_0": 26
          },
          "indices": 27,
          "material": 4
        }
      ]
    },
    {
      "primitives": [
        {
          "mode": 4,
          "attributes": {
            "POSITION": 28,
            "NORMAL": 29,
            "TEXCOORD_0": 30
          },
          "indices": 31,
          "material": 0
        }
      ]
    }
  ],
  "cameras": [
    {
      "type": "perspective",
      "perspective": {
        "aspectRatio": 1.806554756195044,
        "yfov": 0.6911112070083619,
        "zfar": 100,
        "znear": 0.10000000149011612
      },
      "name": "PerspectiveCamera"
    },
    {
      "type": "orthographic",
      "orthographic": {
        "xmag": 26.24,
        "ymag": 28.2,
        "zfar": 2000,
        "znear": 0.1
      },
      "name": "OrthographicCamera"
    }
  ],
  "extensionsUsed": [
    "KHR_lights_punctual"
  ]
}