<?xml version="1.0" encoding="utf-8"?>
<!-- Generator: Adobe Illustrator 18.1.1, SVG Export Plug-In . SVG Version: 6.00 Build 0)  -->
<svg version="1.1" xmlns="http://www.w3.org/2000/svg" xmlns:xlink="http://www.w3.org/1999/xlink" x="0px" y="0px"
	 viewBox="0 0 600 385" enable-background="new 0 0 600 385" xml:space="preserve">
<g id="Satellite">
	<path id="Body5" fill="#479B7B" d="M325,344v-4h-50v4c0,3.3,3.9,6,8.6,6h32.9C321.1,350,325,347.3,325,344z"/>
	<path id="Body1" fill="#479B7B" d="M320,135v-6c0-4.9-3.1-9-6.9-9h-26.3c-3.8,0-6.9,4.1-6.9,9v6H320z"/>
	<path id="Body4" fill="#479B7B" d="M335,250v78.1c0,3.8-3.1,6.9-6.9,6.9h-56.2c-3.8,0-6.9-3.1-6.9-6.9V250H335z"/>
	<path id="Body2" fill="#479B7B" d="M335,190v-45.1c0-2.7-3.1-4.9-6.9-4.9h-56.2c-3.8,0-6.9,2.2-6.9,4.9V190H335z"/>
	<rect id="Body3" x="270" y="195" fill="#479B7B" width="60" height="50"/>
	<rect id="bottom_right" x="330" y="230.2" fill="#DD7247" width="30" height="9.7"/>
	<rect id="top_right" x="330" y="205.2" fill="#DD7247" width="30" height="9.7"/>
	<rect id="bottom_left" x="240" y="230.2" fill="#DD7247" width="30" height="9.7"/>
	<rect id="top_left" x="240" y="205.2" fill="#DD7247" width="30" height="9.7"/>
	<path id="Panel1" fill="#235999" d="M231.8,185H28.3c-4.5,0-8.3,3.7-8.3,8.3v58.5c0,4.5,3.7,8.3,8.3,8.3h203.5
		c4.5,0,8.3-3.7,8.3-8.3v-58.5C240,188.7,236.3,185,231.8,185z"/>
	<rect id="Mid2" x="275" y="245" fill="#235999" width="50" height="5"/>
	<rect id="Bottom" x="280" y="335" fill="#235999" width="40" height="5"/>
	<rect id="Mid1" x="275" y="190" fill="#235999" width="50" height="5"/>
	<rect id="Top" x="285" y="135" fill="#235999" width="30" height="5"/>
	<path id="Dish_Triangle" fill="none" stroke="#DD7247" stroke-width="3" stroke-miterlimit="10" d="M250,95
		c9.8-16.5,34.3-53.1,50-53.5c14.8-0.4,40.5,37.1,50,53.5"/>
	
		<line id="Dish_Part" fill="none" stroke="#DD7247" stroke-width="5" stroke-miterlimit="10" x1="300" y1="91.2" x2="300" y2="33.8"/>
	<path id="Dish" fill="#CD5528" d="M370,80H230.8c3.5,25.3,33.3,45,69.6,45S366.5,105.3,370,80z"/>
	<circle id="Antenna" fill="#DD7247" cx="300" cy="35" r="5"/>
	<path id="Panel2" fill="#235999" d="M571.8,185H368.3c-4.5,0-8.3,3.7-8.3,8.3v53.5c0,4.5,3.7,8.3,8.3,8.3h203.5
		c4.5,0,8.3-3.7,8.3-8.3v-53.5C580,188.7,576.3,185,571.8,185z"/>
</g>
<g id="CubeSat">
</g>
<g id="Marker">
</g>
<g id="Rotator">
</g>
</svg>
