<?xml version="1.0" encoding="utf-8"?>
<!-- Generator: Adobe Illustrator 18.1.1, SVG Export Plug-In . SVG Version: 6.00 Build 0)  -->
<svg version="1.1" xmlns="http://www.w3.org/2000/svg" xmlns:xlink="http://www.w3.org/1999/xlink" x="0px" y="0px"
	 viewBox="0 0 600 200" enable-background="new 0 0 600 200" xml:space="preserve">
<g id="Satellite">
</g>
<g id="CubeSat">
	<path fill="#CD5528" d="M250,125H135c-2.8,0-5-2.3-5-5v0c0-2.7,2.3-5,5-5h115c2.8,0,5,2.3,5,5v0C255,122.8,252.8,125,250,125z"/>
	<path fill="#DD7247" d="M240,105L240,105c-2.8,0-5,2.3-5,5v20c0,2.8,2.3,5,5,5l0,0c2.8,0,5-2.3,5-5v-20
		C245,107.3,242.8,105,240,105z"/>
	<path fill="#CD5528" d="M465,75H350c-2.8,0-5-2.3-5-5v0c0-2.7,2.3-5,5-5h115c2.8,0,5,2.3,5,5v0C470,72.8,467.8,75,465,75z"/>
	<path fill="#DD7247" d="M360,55L360,55c-2.8,0-5,2.2-5,5v20c0,2.7,2.3,5,5,5l0,0c2.8,0,5-2.3,5-5V60C365,57.2,362.8,55,360,55z"/>
	<path id="CubeSat_Body" fill="#479B7B" d="M351.9,155H248.1c-4.5,0-8.1-3.7-8.1-8.1V43.1c0-4.5,3.7-8.1,8.1-8.1h103.7
		c4.5,0,8.1,3.7,8.1,8.1v103.7C360,151.3,356.3,155,351.9,155z"/>
	<path id="Panel_2" fill="#235999" d="M287.7,145h-30.4c-4,0-7.3-3.3-7.3-7.3V52.3c0-4,3.3-7.3,7.3-7.3h30.4c4,0,7.3,3.3,7.3,7.3
		v85.4C295,141.7,291.7,145,287.7,145z"/>
	<path id="Panel_1" fill="#235999" d="M342.7,145h-30.4c-4,0-7.3-3.3-7.3-7.3V52.3c0-4,3.3-7.3,7.3-7.3h30.4c4,0,7.3,3.3,7.3,7.3
		v85.4C350,141.7,346.7,145,342.7,145z"/>
</g>
<g id="Marker">
</g>
<g id="Rotator">
</g>
</svg>
